<svg id="Capa_1" data-name="Capa 1" xmlns="http://www.w3.org/2000/svg" viewBox="0 0 585.17 526.29"><defs><style>.cls-1{fill:#fefefe;}</style></defs><title>comic</title><path d="M-325.79,301.58c-11.19-40.42-22.47-80.82-33.53-121.28-8.73-31.92,5.16-64.24,33.94-80.21,12-6.66,25.31-7.72,38.44-9.6q62.48-8.94,125-17.68,61.68-8.69,123.37-17.33C2.53,49.67,43.67,44,84.74,37.85c33.58-5,61.75,7.82,77,36.07A68.2,68.2,0,0,1,167.5,88.3q26.5,95.91,53,191.8c10.66,38.72-10.78,76.27-49.57,87Q56.39,398.93-58.25,430.46c-4.83,1.33-5.48,2.85-4.06,7.44C-49.71,478.77-32.17,517.14-5.7,551c2.1,2.69,3.35,5.35,1.64,8.58-1.88,3.55-5.13,3.63-8.63,3.32-61.84-5.46-109.26-35-143.75-86.09-2.68-4-5.54-7.9-7.52-12.22-1.76-3.85-3.82-3.89-7.34-2.84-10.62,3.17-21.35,6-32,8.95-41.65,11.51-78.21-9.3-89.79-51.11Q-309.47,360.61-325.79,301.58Z" transform="translate(361.91 -36.78)"/><path class="cls-1" d="M-25.69,547.95c-31.32-4.9-59.21-17.29-83.48-37.68A193.07,193.07,0,0,1-155,453.37c-4.27-7.91-5.25-8.34-14-5.93-13.54,3.74-27.06,7.54-40.61,11.23-30.68,8.34-61.21-8.72-69.73-39.33q-33.75-121.24-67.14-242.58c-9.35-34,12.68-66.25,47.63-71.07C-246.38,98.44-194,90.77-141.5,83.35q82.8-11.7,165.62-23.26c22.67-3.19,45.3-6.6,68-9.55,29.26-3.81,54.68,13.16,62.62,41.69q25.4,91.34,50.6,182.73c2.07,7.47,4.45,14.87,4.64,22.73,0.64,26.72-15.9,49.22-41.77,56.4q-118.87,33-237.77,65.83c-9.09,2.52-10.23,4.36-7.76,13.34,10.9,39.61,26.91,76.92,50,111.07C-26.67,545.33-25.33,546.08-25.69,547.95Z" transform="translate(361.91 -36.78)"/><path d="M-229.39,129.34a4.86,4.86,0,0,1,1.82,2.89q0.12,0.69.2,1.45a11.65,11.65,0,0,1,.06,1.36,5.58,5.58,0,0,1-1.07,2.69,6.59,6.59,0,0,1-2.35,1.48,11.91,11.91,0,0,1-1.55.63q-0.79.26-1.67,0.65a11.4,11.4,0,0,1-1.59.4l-1.73.31-5.88,1q-2.05.48-4.07,0.84l-4,.7q0.75,3.55,1.47,7.64t1.62,9.52q0.9,5.43,2.11,12.58t2.88,16.61l1.55,8.76a9.65,9.65,0,0,0,.42,1.71l0.15,0.86a5.25,5.25,0,0,1,.06,1,18.12,18.12,0,0,0,.08,2.48,5.17,5.17,0,0,1,.08,1.11,7.38,7.38,0,0,1-.15,1.16,1.31,1.31,0,0,0-.34.77l-0.22.75a6,6,0,0,1-1.8,2.58,8.38,8.38,0,0,1-5.55,1.58,6.05,6.05,0,0,1-3.18-.51,7.1,7.1,0,0,1-1.87-1.81,6.47,6.47,0,0,1-1.23-2.28,7,7,0,0,1-.73-2.13l-10.47-59.24-2.88.51q-2.19.39-4.68,0.77t-4.7.65q-2.21.27-3,.3l-2.19,0q-1.48,0-2.44,0a8.17,8.17,0,0,1-4.19-1.52,5.11,5.11,0,0,1-1.86-3.12l-0.24-1.38a3.42,3.42,0,0,1,0-1.31,3.86,3.86,0,0,1,1.44-2.63,11.51,11.51,0,0,1,1.29-1.12,8.56,8.56,0,0,1,1.77-1.09,17.61,17.61,0,0,1,3.33-1.3,15.43,15.43,0,0,1,1.82-.44l2-.35,7.66-1.35q3.63-.64,7.64-1.47,6.66-1.3,13.3-2.41t13.25-2q1.52-.15,2.94-0.16a12.85,12.85,0,0,1,2.91.32,11.53,11.53,0,0,1,2.11.52A4.65,4.65,0,0,1-229.39,129.34Z" transform="translate(361.91 -36.78)"/><path d="M-157.69,118.8a11,11,0,0,1,.38,1.48l0.24,1.38,0.84,4.73,9.88,59.94,0.2,1.15a9.62,9.62,0,0,1,0,2.14,8.56,8.56,0,0,1-.13,1.27q-0.12.67-.23,1.41a4.55,4.55,0,0,1-1.25,2.36,5.53,5.53,0,0,1-2.77,1.8,9.08,9.08,0,0,1-6,.46A5,5,0,0,1-159,195a2.61,2.61,0,0,1-.58-0.61,1.81,1.81,0,0,0-.35-0.65,6.23,6.23,0,0,1-.56-1.15q-0.23-.61-0.46-1.28c-0.07-.38-0.16-0.76-0.26-1.14s-0.23-.75-0.38-1.12a2.72,2.72,0,0,1-.4-0.94l-0.17-1a4.45,4.45,0,0,0-.08-1.77l-1.49-9.13-2.45-14.54-6.22,1.1L-195.76,167l4.58,27.24,0.2,1.15a9.61,9.61,0,0,1,0,2.14,8.67,8.67,0,0,1-.13,1.27c-0.08.45-.16,0.92-0.23,1.41a4.55,4.55,0,0,1-1.25,2.36,5.52,5.52,0,0,1-2.77,1.8,9.08,9.08,0,0,1-6,.46,7.15,7.15,0,0,1-2.6-1.92,1.75,1.75,0,0,1-.35-0.65l-0.47-.63a6.23,6.23,0,0,1-.56-1.15q-0.23-.61-0.46-1.28a6.12,6.12,0,0,0-.32-1.13l-0.43-1.11a8.41,8.41,0,0,1-.35-2l-0.31-1.73-1.49-9.13-2.76-17q-0.54-3.71-1.23-7.63l-1.43-8.07q-0.85-4.13-1.36-7.36t-1-7.31l-0.08-.46q-0.09-1.17-.3-2.38c-0.14-.81-0.25-1.64-0.32-2.5a14.6,14.6,0,0,1,0-2.32,11.78,11.78,0,0,1,.47-2.4A4.83,4.83,0,0,1-216,125a8.91,8.91,0,0,1,1.17-1.46,8.33,8.33,0,0,1,3.53-1.57q0.92-.16,1.62-0.23t1.41-.07a4.35,4.35,0,0,1,2.89.91,4.26,4.26,0,0,1,1.59,1.62,10.64,10.64,0,0,1,1.16,2.53,11,11,0,0,1,.38,1.48l0.24,1.38,0.84,4.73,3.13,19.06,2.13-.38q1.21-.21,2.8-0.61,6-1.06,11.95-2t12.53-2.09l0.11,0q-0.92-5.19-1.69-9.92t-1.46-10q-0.2-1.15-.36-2.37c-0.11-.81-0.19-1.65-0.27-2.51a14.41,14.41,0,0,1,0-2.32,11.73,11.73,0,0,1,.47-2.4,3.31,3.31,0,0,1,.59-1.71,8.9,8.9,0,0,1,1.34-1.49,7.2,7.2,0,0,1,3.41-1.55q0.92-.16,1.68-0.24a12,12,0,0,1,1.36-.06,4.34,4.34,0,0,1,2.9.91,3,3,0,0,1,1.59,1.62c0.23,0.43.45,0.85,0.64,1.25S-157.92,118.37-157.69,118.8Z" transform="translate(361.91 -36.78)"/><path d="M-133.51,180.25l-1.49-9.13-2.88-17q-0.54-3.71-1.23-7.63l-1.43-8.07-1.3-7.38q-0.57-3.23-1.05-7.3l-0.08-.46q-0.09-1.17-.24-2.39c-0.11-.81-0.23-1.64-0.38-2.49a12.26,12.26,0,0,1,.47-4.72,7.62,7.62,0,0,1,1.93-3.19,8.11,8.11,0,0,1,3.41-1.55q0.92-.16,1.68-0.24t1.47-.08a4.78,4.78,0,0,1,2.89.91,5.24,5.24,0,0,1,1.59,1.62c0.23,0.43.45,0.85,0.64,1.25a13.73,13.73,0,0,1,.52,1.27q0.26,0.79.44,1.47c0.12,0.45.22,0.91,0.3,1.37s0.16,1,.2,1.45,0.09,0.87.18,1.34l0.35,2,9.88,59.94,0.2,1.15a8.44,8.44,0,0,1,.09.87q0,0.53,0,1.24a11.09,11.09,0,0,0-.19,1.28q-0.06.66-.17,1.4a11.1,11.1,0,0,1-.56,1.23,6.08,6.08,0,0,1-.81,1.15,5.53,5.53,0,0,1-2.77,1.8,9.18,9.18,0,0,1-6,.46,5.19,5.19,0,0,1-2.37-2,1,1,0,0,1-.47-0.63,1.41,1.41,0,0,0-.29-0.3,1.26,1.26,0,0,1-.29-0.3,6.18,6.18,0,0,1-.56-1.15,7.46,7.46,0,0,1-.35-1.31,11.62,11.62,0,0,1-.38-1.12c-0.11-.38-0.23-0.75-0.38-1.12a8.41,8.41,0,0,1-.35-2Z" transform="translate(361.91 -36.78)"/><path d="M-48.89,143.31a19,19,0,0,1,1.51,3.48,29.42,29.42,0,0,1,1,4,29.4,29.4,0,0,1,.43,4.14,23.67,23.67,0,0,1-.13,3.65,20.93,20.93,0,0,1-5.47,12.08A36.27,36.27,0,0,1-63,179.21a43.08,43.08,0,0,1-14.39,4,33.2,33.2,0,0,1-14.1-1.43,24.53,24.53,0,0,1-7.24-4,31.16,31.16,0,0,1-5.68-5.89,7.84,7.84,0,0,1-1.38-2.79,8.38,8.38,0,0,1-.28-3.28,7.54,7.54,0,0,1,1-3,5.47,5.47,0,0,1,2.59-2.18,13.5,13.5,0,0,1,2.55-.69,10.19,10.19,0,0,1,2.89-.1,8,8,0,0,1,2.76.82,6.15,6.15,0,0,1,2.26,2,15.23,15.23,0,0,0,4.41,3.8A23.23,23.23,0,0,0-82,168.9a20.5,20.5,0,0,0,7.85-.32,19.23,19.23,0,0,0,6.72-3,13.78,13.78,0,0,0,4.4-5,9.73,9.73,0,0,0,.91-6.28,11.31,11.31,0,0,0-1.61-4.41,8.48,8.48,0,0,0-2.78-2.6,12.83,12.83,0,0,0-3.81-1.41,32.79,32.79,0,0,0-4.68-.6,46.74,46.74,0,0,0-5.73.18q-2.87.27-5.81,0.43t-5.81.08a28.15,28.15,0,0,1-5.72-.77,16.85,16.85,0,0,1-9.25-5.26,22.87,22.87,0,0,1-5-9.1,24.75,24.75,0,0,1-.61-10.53,22.15,22.15,0,0,1,4-9.8,22,22,0,0,1,8-6.34A49.46,49.46,0,0,1-90,100.53a54.09,54.09,0,0,1,7-1,49.45,49.45,0,0,1,7,0,36.3,36.3,0,0,1,6.48,1A21.47,21.47,0,0,1-64,102.6a17.83,17.83,0,0,1,3.54,2.52,15.49,15.49,0,0,1,3,3.63,8.26,8.26,0,0,1,1.24,4,4.91,4.91,0,0,1-1.89,3.78,5.62,5.62,0,0,1-3.34,1.6,8,8,0,0,1-3.35-.48,20.65,20.65,0,0,1-3.24-1.51q-1.59-.91-2.9-1.63a18.28,18.28,0,0,0-8.27-1.75A30.77,30.77,0,0,0-87.95,114a22.85,22.85,0,0,0-4.52,2,11.81,11.81,0,0,0-3.36,2.85,9.63,9.63,0,0,0-1.82,3.83,9.41,9.41,0,0,0,.17,4.66,5.59,5.59,0,0,0,1.65,2.92A7.94,7.94,0,0,0-93,131.86a13.76,13.76,0,0,0,3.39.71,27.77,27.77,0,0,0,3.58.08q5.31-.23,10.56-0.8a34.07,34.07,0,0,1,10.55.51,26.86,26.86,0,0,1,9.58,3.77A18.83,18.83,0,0,1-48.89,143.31Z" transform="translate(361.91 -36.78)"/><path d="M14.87,154l-1.49-9.13-2.88-17q-0.54-3.71-1.23-7.63l-1.43-8.07-1.3-7.38Q6,101.64,5.48,97.56L5.4,97.1q-0.09-1.17-.24-2.39C5,93.9,4.92,93.07,4.77,92.22a12.26,12.26,0,0,1,.47-4.72,7.62,7.62,0,0,1,1.93-3.19,8.11,8.11,0,0,1,3.41-1.55q0.92-.16,1.68-0.24t1.47-.08a4.78,4.78,0,0,1,2.89.91A5.24,5.24,0,0,1,18.23,85c0.23,0.43.45,0.85,0.64,1.25a13.73,13.73,0,0,1,.52,1.27q0.26,0.79.44,1.47c0.12,0.45.22,0.91,0.3,1.37s0.16,1,.2,1.45,0.09,0.87.18,1.34l0.35,2L30.73,155l0.2,1.15A8.44,8.44,0,0,1,31,157q0,0.53,0,1.24a11.09,11.09,0,0,0-.19,1.28q-0.06.66-.17,1.4a11.1,11.1,0,0,1-.56,1.23,6.08,6.08,0,0,1-.81,1.15,5.53,5.53,0,0,1-2.77,1.8,9.18,9.18,0,0,1-6,.46,5.19,5.19,0,0,1-2.37-2,1,1,0,0,1-.47-0.63,1.41,1.41,0,0,0-.29-0.3,1.26,1.26,0,0,1-.29-0.3,6.18,6.18,0,0,1-.56-1.15,7.46,7.46,0,0,1-.35-1.31,11.62,11.62,0,0,1-.38-1.12c-0.11-.38-0.23-0.75-0.38-1.12a8.41,8.41,0,0,1-.35-2Z" transform="translate(361.91 -36.78)"/><path d="M99.49,117.08a19,19,0,0,1,1.51,3.48,29.61,29.61,0,0,1,1.45,8.18,23.67,23.67,0,0,1-.13,3.65,20.93,20.93,0,0,1-5.47,12.08A36.27,36.27,0,0,1,85.34,153a43.08,43.08,0,0,1-14.39,4,33.2,33.2,0,0,1-14.1-1.43,24.53,24.53,0,0,1-7.24-4,31.16,31.16,0,0,1-5.68-5.89,7.84,7.84,0,0,1-1.38-2.79,8.38,8.38,0,0,1-.28-3.28,7.54,7.54,0,0,1,1-3,5.47,5.47,0,0,1,2.59-2.18,13.5,13.5,0,0,1,2.55-.69,10.19,10.19,0,0,1,2.89-.1,8,8,0,0,1,2.76.82,6.15,6.15,0,0,1,2.26,2,15.23,15.23,0,0,0,4.41,3.8,23.23,23.23,0,0,0,5.59,2.4,20.5,20.5,0,0,0,7.85-.32,19.23,19.23,0,0,0,6.72-3,13.78,13.78,0,0,0,4.4-5,9.73,9.73,0,0,0,.91-6.28,11.31,11.31,0,0,0-1.61-4.41,8.48,8.48,0,0,0-2.78-2.6A12.83,12.83,0,0,0,78,119.68a32.79,32.79,0,0,0-4.68-.6,46.74,46.74,0,0,0-5.73.18q-2.87.27-5.81,0.43t-5.81.08a28.15,28.15,0,0,1-5.72-.77A16.85,16.85,0,0,1,41,113.74a22.87,22.87,0,0,1-5-9.1,24.75,24.75,0,0,1-.61-10.53,22.15,22.15,0,0,1,4-9.8,22,22,0,0,1,8-6.34A49.46,49.46,0,0,1,58.42,74.3a54.09,54.09,0,0,1,7-1,49.45,49.45,0,0,1,7,0,36.3,36.3,0,0,1,6.48,1,21.47,21.47,0,0,1,5.43,2.13,17.83,17.83,0,0,1,3.54,2.52,15.49,15.49,0,0,1,3,3.63,8.26,8.26,0,0,1,1.24,4,4.91,4.91,0,0,1-1.89,3.78,5.62,5.62,0,0,1-3.34,1.6,8,8,0,0,1-3.35-.48,20.65,20.65,0,0,1-3.24-1.51q-1.59-.91-2.9-1.63a18.28,18.28,0,0,0-8.27-1.75,30.77,30.77,0,0,0-8.71,1.18,22.85,22.85,0,0,0-4.52,2,11.81,11.81,0,0,0-3.36,2.85,9.63,9.63,0,0,0-1.82,3.83,9.41,9.41,0,0,0,.17,4.66A5.59,5.59,0,0,0,52.55,104a7.94,7.94,0,0,0,2.79,1.65,13.76,13.76,0,0,0,3.39.71,27.77,27.77,0,0,0,3.58.08q5.31-.23,10.56-0.8a34.07,34.07,0,0,1,10.55.51A26.86,26.86,0,0,1,93,109.9,18.83,18.83,0,0,1,99.49,117.08Z" transform="translate(361.91 -36.78)"/><path d="M-183.83,233.62a6.77,6.77,0,0,1,1.84,3q0.12,0.69.18,1.34a12.14,12.14,0,0,1,0,1.24,3.72,3.72,0,0,1-1.07,2.68,12.52,12.52,0,0,1-1.87,1.52,6,6,0,0,1-1.39.54c-0.49.13-1,.28-1.64,0.47a4.76,4.76,0,0,1-1.46.5l-1.61.29-5.19.92-24.07,4.37,0.06,0.35,3.21,18.81,2-.36q1.09-.19,2.69-0.59l8.24-1.46q3.63-.64,8-1.3l0.69-.12q1.27-.22,2.6-0.4c0.89-.12,1.8-0.26,2.72-0.42s1.72-.13,2.59-0.16a12.56,12.56,0,0,1,2.65.19,5.42,5.42,0,0,1,3.38,1.66,4.86,4.86,0,0,1,1.82,2.89l0.23,1.33a4.26,4.26,0,0,1,0,1.37,4.66,4.66,0,0,1-1.09,2.57,4.54,4.54,0,0,1-2,1.42,9,9,0,0,1-1.25.64q-0.72.31-1.51,0.56t-1.53.45c-0.49.13-1,.24-1.66,0.35l-5.3.94L-214.67,283l4.38,26.8,0.16,0.92a10.09,10.09,0,0,1,.14,1.11c0,0.35,0,.73,0,1.12a11.32,11.32,0,0,0-.19,1.28,11.34,11.34,0,0,1-.19,1.28,7.1,7.1,0,0,1-1.11,2.45,7.7,7.7,0,0,1-2.89,1.82,8.73,8.73,0,0,1-6,.35,5.72,5.72,0,0,1-1.25-.67,4.21,4.21,0,0,1-1.1-1.17,1.75,1.75,0,0,1-.35-0.65l-0.47-.63a3.6,3.6,0,0,1-.67-1.13l-0.44-1.17c-0.07-.38-0.16-0.76-0.26-1.14s-0.23-.75-0.38-1.12a7.47,7.47,0,0,1-.33-1.84l-0.33-1.84-1.47-9-2.82-16.62q-0.54-3.71-1.21-7.51l-1.39-7.84q-0.85-4.13-1.36-7.37t-1-7.08l-0.1-.58q-0.11-1.29-.3-2.38a11.55,11.55,0,0,1-.17-2.29,13.5,13.5,0,0,1,.36-4.7,5.33,5.33,0,0,1,1.82-3.17,7.16,7.16,0,0,1,3.51-1.69,8.22,8.22,0,0,1,1.52-.15l0-.11,3.34-.59,2.42-.43q1.15-.2,2.53-0.51t3.68-.71q9.2-1.74,18.21-3.22l0.58-.1q1.29-.11,2.61-0.34c0.88-.16,1.79-0.28,2.73-0.36a11.68,11.68,0,0,1,2.59-.16,21.72,21.72,0,0,1,2.67.3A5.67,5.67,0,0,1-183.83,233.62Z" transform="translate(361.91 -36.78)"/><path d="M-159.73,297.35l-1.49-9.13-2.88-17q-0.54-3.71-1.23-7.63l-1.43-8.07-1.3-7.38q-0.57-3.23-1.05-7.3l-0.08-.46q-0.09-1.17-.24-2.39c-0.11-.81-0.23-1.64-0.38-2.49a12.26,12.26,0,0,1,.47-4.72,7.62,7.62,0,0,1,1.93-3.19,8.11,8.11,0,0,1,3.41-1.55q0.92-.16,1.68-0.24t1.47-.08a4.78,4.78,0,0,1,2.89.91,5.24,5.24,0,0,1,1.59,1.62c0.23,0.43.45,0.85,0.64,1.25a13.73,13.73,0,0,1,.52,1.27q0.26,0.79.44,1.47c0.12,0.45.22,0.91,0.3,1.37s0.16,1,.2,1.45,0.09,0.87.18,1.34l0.35,2,9.88,59.94,0.2,1.15a8.44,8.44,0,0,1,.09.87q0,0.53,0,1.24a11.09,11.09,0,0,0-.19,1.28q-0.06.66-.17,1.4a11.1,11.1,0,0,1-.56,1.23,6.08,6.08,0,0,1-.81,1.15,5.53,5.53,0,0,1-2.77,1.8,9.18,9.18,0,0,1-6,.46,5.19,5.19,0,0,1-2.37-2,1,1,0,0,1-.47-0.63,1.41,1.41,0,0,0-.29-0.3,1.26,1.26,0,0,1-.29-0.3,6.18,6.18,0,0,1-.56-1.15,7.46,7.46,0,0,1-.35-1.31,11.62,11.62,0,0,1-.38-1.12c-0.11-.38-0.23-0.75-0.38-1.12a8.41,8.41,0,0,1-.35-2Z" transform="translate(361.91 -36.78)"/><path d="M-67.73,284.65a34.71,34.71,0,0,1,.22,4.24,5.7,5.7,0,0,1-1.62,4A6.11,6.11,0,0,1-72,294.79a9.38,9.38,0,0,1-3.43.43,12.09,12.09,0,0,1-3.39-.71,7.8,7.8,0,0,1-2.8-1.7,112.55,112.55,0,0,1-9-8.7L-99,275-111.3,262q-2.51-2.76-5.38-6.24t-5.77-6.41l7.44,44.09,0.18,1a11,11,0,0,1,0,3.74,7.14,7.14,0,0,1-1.59,3.43,6.8,6.8,0,0,1-2.77,1.8,7.6,7.6,0,0,1-4.84.5,7.57,7.57,0,0,1-3.44-2,10,10,0,0,1-2.16-3.48,14.25,14.25,0,0,1-.92-4.18l-0.35-2-1.36-9-2.84-16.73q-0.54-3.71-1.22-7.57l-1.4-7.89q-1-4.93-1.8-10.5t-1.43-10.44a11.21,11.21,0,0,1,.47-4.72,4.94,4.94,0,0,1,1.93-3.19,7.88,7.88,0,0,1,3.1-1.62,10.69,10.69,0,0,1,3.54-.51c0.41,0.09.82,0.19,1.24,0.32s0.84,0.27,1.26.43,0.86,0.48,1.26.73a8.65,8.65,0,0,1,1.16.86,10.5,10.5,0,0,1,1.25,1q0.57,0.55,1.14,1t0.92,1.15a10.28,10.28,0,0,0,1,1l1.59,1.62,34,37.24L-88.37,258q-0.65-3.69-1.39-7.54t-1.59-8q-0.86-4.84-1.78-10.38t-1.55-10.42a11.26,11.26,0,0,1,.36-4.7,5.11,5.11,0,0,1,1.53-2.77,8.71,8.71,0,0,1,2.89-1.82,8.89,8.89,0,0,1,3.46-.61,6.82,6.82,0,0,1,3.24.85,7.66,7.66,0,0,1,.83.68,4.68,4.68,0,0,1,.76.93,10.7,10.7,0,0,1,1.16,2.53,14.19,14.19,0,0,1,.85,2.82Q-77,234-74.33,249T-69,278.33q0.29,1.62.68,3.15A22.46,22.46,0,0,1-67.73,284.65Z" transform="translate(361.91 -36.78)"/><path d="M-50.73,220.79l3,18.13,4.61-.81q4.7-.95,8.39-1.6t8.2-1.33l0.58-.1q1.38-.24,2.72-0.42t2.6-.4a19.59,19.59,0,0,1,2.72-.07q1.32,0.06,2.65.19a7.93,7.93,0,0,1,3.59,1.5A5.44,5.44,0,0,1-10,239l0.23,1.33a3.6,3.6,0,0,1,0,1.36,4,4,0,0,1-1.09,2.57,3.54,3.54,0,0,1-2,1.54,13.83,13.83,0,0,1-2.89,1.11,15.65,15.65,0,0,1-3.17.92l-5.42,1-21.3,3.88,3.76,22.63,23-3.82,5.42-1,1.73-.31a9.3,9.3,0,0,1,1.52-.15,10.1,10.1,0,0,0,1.72,0,6.15,6.15,0,0,1,1.49,0,6.79,6.79,0,0,1,2.53.86,5.6,5.6,0,0,1,1.93,2.16,12.14,12.14,0,0,1,.39,1.18,5.32,5.32,0,0,1,.18,1.34,5.43,5.43,0,0,1-.56,3.55,6.27,6.27,0,0,1-2.86,2.64,13.54,13.54,0,0,1-5.12,2q-1.25.34-2.63,0.58t-2.63.58l-0.69.12q-8.95,1.82-18.67,3.3-2.31.41-3.7,0.59t-2.49.38l-2.25.4-3,.53a6.76,6.76,0,0,1-4.54-.15,5.47,5.47,0,0,1-2.35-1.84,1,1,0,0,1-.47-0.63,1.44,1.44,0,0,0-.29-0.3,1.27,1.27,0,0,1-.29-0.3,6.23,6.23,0,0,1-.56-1.15,6.81,6.81,0,0,1-.33-1.19c-0.15-.37-0.27-0.74-0.38-1.12s-0.23-.75-0.38-1.12l-0.33-1.84a7.29,7.29,0,0,1-.11-0.93,7.66,7.66,0,0,0-.1-0.93l-1.59-9-2.7-16.64-2.71-15.33q-0.73-4.15-1.25-7.39T-66,223.36l-0.1-.58c-0.07-.86-0.16-1.66-0.25-2.39s-0.2-1.49-.34-2.26a10.87,10.87,0,0,1,.47-4.72,10.62,10.62,0,0,1,.69-1.79,4,4,0,0,1,1.24-1.41,7,7,0,0,1,3.39-1.67,6.26,6.26,0,0,1,1.4-.13l0-.12,3.34-.59,2.48-.44c0.81-.14,1.67-0.31,2.58-0.52s2.18-.44,3.79-0.73q4.59-.93,8.74-1.66T-30,203l0.46-.08q1.29-.11,2.67-0.35t2.67-.35A11.68,11.68,0,0,1-21.6,202a21.72,21.72,0,0,1,2.67.3,7.05,7.05,0,0,1,3.57,1.39,6,6,0,0,1,1.61,3l0.23,1.33a3.28,3.28,0,0,1,0,1.25,4.25,4.25,0,0,1-1,2.66,9.66,9.66,0,0,0-.88.75,5.13,5.13,0,0,1-1.11.79,6,6,0,0,1-1.39.54c-0.49.13-1,.27-1.41,0.43a7,7,0,0,1-1.63.53l-1.67.3-5.19.92-23,4.19Z" transform="translate(361.91 -36.78)"/><path d="M15.33,193.55a5.49,5.49,0,0,1,2.15-2.64,8,8,0,0,1,3-1.24q1.27-.22,2.49-0.38a16.5,16.5,0,0,1,2.41-.13,5.26,5.26,0,0,1,4,2.44,17.82,17.82,0,0,1,2.28,5.18,40.63,40.63,0,0,1,1.18,6q0.36,3,.68,4.87l6,34,0.81,4.61a12.19,12.19,0,0,1,0,4.52,5.35,5.35,0,0,1-2.49,3.41,11.19,11.19,0,0,1-4.46,1.68,12,12,0,0,1-4.79-.22,5.63,5.63,0,0,1-3.49-2.29,13,13,0,0,1-1-2.5c-0.3-1-.56-1.94-0.79-2.77q-0.46-1.94-.78-4.08t-0.71-4.33L15,201.1a24.26,24.26,0,0,1-.29-3.63A10.1,10.1,0,0,1,15.33,193.55Zm26.35,71.76q0.45,0.52.83,1a7.45,7.45,0,0,1,.73,1.12,15,15,0,0,1,.93,2.57,8.17,8.17,0,0,1,.25,2.75,7.79,7.79,0,0,1-.71,2.68,5,5,0,0,1-1.88,2.12,8.79,8.79,0,0,1-2.87,1.22,12.28,12.28,0,0,1-3.38.36,8.72,8.72,0,0,1-3.22-.74A5.08,5.08,0,0,1,30,276.3a12.22,12.22,0,0,1-1.3-3.63,10.39,10.39,0,0,1-.14-3.84,4.11,4.11,0,0,1,1.77-2.75,8.35,8.35,0,0,1,3.12-1.2,27.65,27.65,0,0,1,4.34-.65A6,6,0,0,1,41.68,265.32Z" transform="translate(361.91 -36.78)"/><path d="M49.33,187.54a5.49,5.49,0,0,1,2.15-2.64,8,8,0,0,1,3-1.24q1.27-.22,2.49-0.38a16.5,16.5,0,0,1,2.41-.13,5.26,5.26,0,0,1,4,2.44,17.82,17.82,0,0,1,2.28,5.18,40.63,40.63,0,0,1,1.18,6q0.36,3,.68,4.87l6,34,0.81,4.61a12.19,12.19,0,0,1,0,4.52,5.35,5.35,0,0,1-2.49,3.41,11.19,11.19,0,0,1-4.46,1.68,12,12,0,0,1-4.79-.22,5.63,5.63,0,0,1-3.49-2.29,13,13,0,0,1-1-2.5c-0.3-1-.56-1.94-0.79-2.77q-0.46-1.94-.78-4.08t-0.71-4.33L49,195.09a24.26,24.26,0,0,1-.29-3.63A10.1,10.1,0,0,1,49.33,187.54Zm26.35,71.76q0.45,0.52.83,1a7.45,7.45,0,0,1,.73,1.12,15,15,0,0,1,.93,2.57,8.17,8.17,0,0,1,.25,2.75,7.79,7.79,0,0,1-.71,2.68,5,5,0,0,1-1.88,2.12,8.79,8.79,0,0,1-2.87,1.22,12.28,12.28,0,0,1-3.38.36,8.72,8.72,0,0,1-3.22-.74A5.08,5.08,0,0,1,64,270.29a12.22,12.22,0,0,1-1.3-3.63,10.39,10.39,0,0,1-.14-3.84,4.11,4.11,0,0,1,1.77-2.75,8.35,8.35,0,0,1,3.12-1.2,27.65,27.65,0,0,1,4.34-.65A6,6,0,0,1,75.68,259.31Z" transform="translate(361.91 -36.78)"/><path d="M-170,350.35q0.19,0.89.44,2t0.5,2.29l0.5,2.34q0.25,1.15.42,2.14,0.07,0.48.12,1a4.06,4.06,0,0,1,0,1.08,1.83,1.83,0,0,1-.42.9,1.61,1.61,0,0,1-1,.49,1.64,1.64,0,0,1-1.59-.55,5.32,5.32,0,0,1-1-2.11q-0.16-.73-0.37-1.67l-0.44-1.92q-0.22-1-.42-1.91l-0.36-1.69q-0.09-.44-0.25-1.07t-0.26-1.3a8.44,8.44,0,0,1-.12-1.31,2.82,2.82,0,0,1,.19-1.11,1.48,1.48,0,0,1,.55-0.53,2.7,2.7,0,0,1,.84-0.33,2.59,2.59,0,0,1,.92,0,1.25,1.25,0,0,1,.71.31,1.49,1.49,0,0,1,.3.5q0.14,0.33.28,0.75t0.25,0.87Q-170.11,350-170,350.35Zm-2.56-6.13a1.93,1.93,0,0,1-1.67.14,2.06,2.06,0,0,1-1.1-1.2,2,2,0,0,1-.15-1.19,1.69,1.69,0,0,1,.5-0.92,1.76,1.76,0,0,1,1-.45,2.2,2.2,0,0,1,1.23.2,2.32,2.32,0,0,1,1,.72,1.68,1.68,0,0,1,.37.95,1.77,1.77,0,0,1-.24,1A2.1,2.1,0,0,1-172.59,344.23Z" transform="translate(361.91 -36.78)"/><path d="M-166.72,350.38q-0.16-.73-0.35-1.55a3.63,3.63,0,0,1,0-1.54,1.65,1.65,0,0,1,.65-1,1.68,1.68,0,0,1,1.13-.36,1.94,1.94,0,0,1,1,.16,1.55,1.55,0,0,1,.58.49,2.42,2.42,0,0,1,.34.72l0.24,0.82a2.86,2.86,0,0,1,.59-1.09,5.25,5.25,0,0,1,.86-0.78,5,5,0,0,1,.9-0.52,3.87,3.87,0,0,1,.69-0.25,6,6,0,0,1,2.5,0,5.44,5.44,0,0,1,2.29,1,4.76,4.76,0,0,1,.93,1,6.74,6.74,0,0,1,.62,1.21,11.72,11.72,0,0,1,.43,1.31l0.36,1.36a26.13,26.13,0,0,1,.86,4q0.06,0.42.17,1a7.27,7.27,0,0,1,.15,1.08,3,3,0,0,1-.09,1,1,1,0,0,1-.57.63,2.79,2.79,0,0,1-1.07.31,1.42,1.42,0,0,1-.74-0.16,1.37,1.37,0,0,1-.5-0.49,6.05,6.05,0,0,1-.39-0.74q-0.14-.33-0.28-0.78t-0.26-.92l-0.23-.93q-0.11-.45-0.19-0.83-0.13-.6-0.31-1.32t-0.29-1.36a3.13,3.13,0,0,0-1.26-2.09,2.54,2.54,0,0,0-2.24-.2,3.26,3.26,0,0,0-1.6,1.18,2.2,2.2,0,0,0-.35,1.91l0.16,0.76q0.07,0.35.13,0.7t0.15,0.76l0.2,0.92,0.47,2.2a5.35,5.35,0,0,1,.12,1.94,1.7,1.7,0,0,1-.63,1.23,1.57,1.57,0,0,1-1.46.15,1.49,1.49,0,0,1-.66-0.4,2.91,2.91,0,0,1-.47-0.64,3.89,3.89,0,0,1-.31-0.74l-0.22-.73q-0.32-1-.53-1.92t-0.43-1.94Z" transform="translate(361.91 -36.78)"/><path d="M-136.31,353.44a5.17,5.17,0,0,1-3.06-1.73,6.42,6.42,0,0,1-1.39-3,8,8,0,0,1,.07-3,8,8,0,0,1,1.12-2.75,7.64,7.64,0,0,1,.74-1,4.93,4.93,0,0,1,.88-0.77q0.35-.24.92-0.58t1.27-.68q0.7-.35,1.5-0.65a10.72,10.72,0,0,1,1.55-.46,5.56,5.56,0,0,1,2-.15,1.8,1.8,0,0,1,1.37.85l0.35,0.72a1.59,1.59,0,0,1,.15.41l0.08,0.39,3.76,17.6a2.79,2.79,0,0,1,0,.3q0,0.15,0,.31a5.07,5.07,0,0,0-.07.77,1.58,1.58,0,0,1-.31.69,1.21,1.21,0,0,1-.72.48,1.92,1.92,0,0,1-1.58.17,1.92,1.92,0,0,1-.71-0.54,0.28,0.28,0,0,1-.14-0.17,0.2,0.2,0,0,1-.06-0.07l-0.07-.1-0.19-.34a1.4,1.4,0,0,1-.12-0.35,7.27,7.27,0,0,1-.26-0.82c-0.07-.28-0.14-0.57-0.2-0.87l-1-4.74a1.16,1.16,0,0,0-.32,0q-0.65,0-1.54.15a10.11,10.11,0,0,1-1.55.08A11.94,11.94,0,0,1-136.31,353.44Zm3-9.7a15.6,15.6,0,0,0-1.46.59,4.69,4.69,0,0,0-1.24.83,2.58,2.58,0,0,0-.72,1.18,3,3,0,0,0,.12,1.71,2.08,2.08,0,0,0,.85,1.14,3.73,3.73,0,0,0,1.36.5,7.11,7.11,0,0,0,1.6.09,14,14,0,0,0,1.6-.18q-0.36-1.51-.69-3.06t-0.61-3l-0.47.1A1.56,1.56,0,0,0-133.29,343.74Z" transform="translate(361.91 -36.78)"/><path d="M-112.17,342.67l0.32,2.13a10.19,10.19,0,0,1,.1,2.11,5.82,5.82,0,0,1-.44,1.95,3.94,3.94,0,0,1-1.29,1.6,6.94,6.94,0,0,1-1.76,1,10.33,10.33,0,0,1-2,.57,8.28,8.28,0,0,1-2,.12,6.72,6.72,0,0,1-1.87-.38,3.91,3.91,0,0,1-1.5-1,7,7,0,0,1-1.09-1.49,9.77,9.77,0,0,1-.75-1.76q-0.3-.93-0.5-1.74a37.31,37.31,0,0,1-.92-4.3l-0.2-.93a6.79,6.79,0,0,1-.14-1,3.76,3.76,0,0,1,.07-1,1.33,1.33,0,0,1,.49-0.78,1.79,1.79,0,0,1,1.74-.44,2.26,2.26,0,0,1,1.36,1.63,11.3,11.3,0,0,1,.42,1.6,15.68,15.68,0,0,0,.39,1.6l0.56,2.31a7.68,7.68,0,0,0,.84,2.15,2.75,2.75,0,0,0,1.42,1.23,3,3,0,0,0,2.33-.45,1.46,1.46,0,0,0,.73-1.31,11.1,11.1,0,0,0-.32-2.67q-0.16-.76-0.39-1.67T-117,340q-0.19-.9-0.31-1.69a5.49,5.49,0,0,1-.08-1.22,1.39,1.39,0,0,1,.48-1,2.34,2.34,0,0,1,1-.53,2.28,2.28,0,0,1,1.13,0,1.39,1.39,0,0,1,.87.67,5.35,5.35,0,0,1,.54,1.22q0.24,0.76.47,1.65t0.41,1.83Q-112.32,341.84-112.17,342.67Z" transform="translate(361.91 -36.78)"/><path d="M-107.12,335.54a8,8,0,0,1,1.85-1.1,7,7,0,0,1,2.05-.54,6.63,6.63,0,0,1,2.09.12,6.4,6.4,0,0,1,2,.84,6.24,6.24,0,0,1,1.65,1.53,8.69,8.69,0,0,1,1.1,2,6.79,6.79,0,0,0,.73,1.43q0.43,0.63.91,1.26t0.93,1.26a9.68,9.68,0,0,1,.8,1.35,2.43,2.43,0,0,1,.19,1.43,1.38,1.38,0,0,1-.91,1.07,1.58,1.58,0,0,1-.92.11A2.51,2.51,0,0,1-95.5,346a4.56,4.56,0,0,1-.77-0.6l-0.65-.64a6,6,0,0,1-1.27,1.81,5.31,5.31,0,0,1-1.91,1.12,10.19,10.19,0,0,1-1.91.47,10.35,10.35,0,0,1-2,.07,4.84,4.84,0,0,1-2.49-.74,6,6,0,0,1-1.76-1.74,7.28,7.28,0,0,1-1-2.38,9.42,9.42,0,0,1-.24-2.69,7.29,7.29,0,0,1,.73-3.06A6.25,6.25,0,0,1-107.12,335.54Zm1.58,3.53a3.3,3.3,0,0,0-.47,1.19,4,4,0,0,0,0,1.33,4.45,4.45,0,0,0,.39,1.3,3.52,3.52,0,0,0,.76,1.06,2.38,2.38,0,0,0,1.23.51,5.49,5.49,0,0,0,1.66,0,2.37,2.37,0,0,0,1.55-.86,3.65,3.65,0,0,0,.77-1.67,4.52,4.52,0,0,0-.07-1.94,3.71,3.71,0,0,0-.93-1.7,2.35,2.35,0,0,0-1.18-.67,3.35,3.35,0,0,0-1.38,0,4,4,0,0,0-1.33.52A3,3,0,0,0-105.54,339.07Z" transform="translate(361.91 -36.78)"/><path d="M-92.16,334.56l-0.19-.87q-0.1-.49-0.18-1a10.38,10.38,0,0,1-.11-1,3.9,3.9,0,0,1,.05-0.92,1.42,1.42,0,0,1,.62-0.94,2.91,2.91,0,0,1,1.13-.42,2.13,2.13,0,0,1,1.09,0,1.48,1.48,0,0,1,.69.46,2.32,2.32,0,0,1,.41.77,9.62,9.62,0,0,1,.25,1,2.36,2.36,0,0,1,.6-1,5.34,5.34,0,0,1,.89-0.72,5.89,5.89,0,0,1,.86-0.46l0.46-.18a11.64,11.64,0,0,1,1.43-.34,5.83,5.83,0,0,1,1.5,0,6.19,6.19,0,0,1,1.15.3,4.66,4.66,0,0,1,1.11.57,2.35,2.35,0,0,1,.76.85,1.53,1.53,0,0,1,.09,1.12,1.21,1.21,0,0,1-.81,1,5.61,5.61,0,0,1-1.21.08,3.53,3.53,0,0,1-.88-0.11,3.6,3.6,0,0,0-.88-0.11,3.81,3.81,0,0,0-1.86.56,6.17,6.17,0,0,0-1.26,1.06,6.18,6.18,0,0,0-.94,1.49l1,4.55q0.18,0.85.36,1.77a5.9,5.9,0,0,1,.1,1.71,2.56,2.56,0,0,1-.53,1.37,2.27,2.27,0,0,1-1.51.74,1.44,1.44,0,0,1-1.13-.34,2.31,2.31,0,0,1-.76-0.91q-0.16-.46-0.34-1.12T-90.55,342q-0.17-.72-0.33-1.47l-0.29-1.37Z" transform="translate(361.91 -36.78)"/><path d="M-75.42,328.78a8,8,0,0,1,1.85-1.1,7,7,0,0,1,2.05-.54,6.63,6.63,0,0,1,2.09.12,6.4,6.4,0,0,1,2,.84,6.24,6.24,0,0,1,1.65,1.53,8.69,8.69,0,0,1,1.1,2,6.79,6.79,0,0,0,.73,1.43q0.43,0.63.91,1.26t0.93,1.26a9.68,9.68,0,0,1,.8,1.35,2.43,2.43,0,0,1,.19,1.43,1.38,1.38,0,0,1-.91,1.07,1.58,1.58,0,0,1-.92.11,2.51,2.51,0,0,1-.88-0.34,4.56,4.56,0,0,1-.77-0.6l-0.65-.64a6,6,0,0,1-1.27,1.81,5.31,5.31,0,0,1-1.91,1.12,10.19,10.19,0,0,1-1.91.47,10.35,10.35,0,0,1-2,.07,4.84,4.84,0,0,1-2.49-.74A6,6,0,0,1-76.59,339a7.28,7.28,0,0,1-1-2.38,9.42,9.42,0,0,1-.24-2.69,7.29,7.29,0,0,1,.73-3.06A6.25,6.25,0,0,1-75.42,328.78Zm1.58,3.53a3.3,3.3,0,0,0-.47,1.19,4,4,0,0,0,0,1.33,4.45,4.45,0,0,0,.39,1.3,3.52,3.52,0,0,0,.76,1.06,2.38,2.38,0,0,0,1.23.51,5.49,5.49,0,0,0,1.66,0,2.37,2.37,0,0,0,1.55-.86A3.65,3.65,0,0,0-68,335.2a4.52,4.52,0,0,0-.07-1.94,3.71,3.71,0,0,0-.93-1.7,2.35,2.35,0,0,0-1.18-.67,3.35,3.35,0,0,0-1.38,0,4,4,0,0,0-1.33.52A3,3,0,0,0-73.84,332.31Z" transform="translate(361.91 -36.78)"/><path d="M-60.48,327.7q-0.16-.73-0.35-1.55a3.63,3.63,0,0,1,0-1.54,1.65,1.65,0,0,1,.65-1,1.68,1.68,0,0,1,1.13-.36,1.94,1.94,0,0,1,1,.16,1.55,1.55,0,0,1,.58.49,2.42,2.42,0,0,1,.34.72L-57,325.4a2.86,2.86,0,0,1,.59-1.09,5.25,5.25,0,0,1,.86-0.78,5,5,0,0,1,.9-0.52,3.87,3.87,0,0,1,.69-0.25,6,6,0,0,1,2.5,0,5.44,5.44,0,0,1,2.29,1,4.76,4.76,0,0,1,.93,1,6.74,6.74,0,0,1,.62,1.21,11.72,11.72,0,0,1,.43,1.31l0.36,1.36a26.13,26.13,0,0,1,.86,4q0.06,0.42.17,1a7.27,7.27,0,0,1,.15,1.08,3,3,0,0,1-.09,1,1,1,0,0,1-.57.63,2.79,2.79,0,0,1-1.07.31,1.42,1.42,0,0,1-.74-0.16,1.37,1.37,0,0,1-.5-0.49,6.05,6.05,0,0,1-.39-0.74q-0.14-.33-0.28-0.78t-0.26-.92l-0.23-.93q-0.11-.45-0.19-0.83-0.13-.6-0.31-1.32t-0.29-1.36a3.13,3.13,0,0,0-1.26-2.09,2.54,2.54,0,0,0-2.24-.2,3.26,3.26,0,0,0-1.6,1.18A2.2,2.2,0,0,0-56,330l0.16,0.76q0.07,0.35.13,0.7t0.15,0.76l0.2,0.92,0.47,2.2a5.35,5.35,0,0,1,.12,1.94,1.7,1.7,0,0,1-.63,1.23,1.57,1.57,0,0,1-1.46.15,1.49,1.49,0,0,1-.66-0.4,2.91,2.91,0,0,1-.47-0.64,3.89,3.89,0,0,1-.31-0.74l-0.22-.73q-0.32-1-.53-1.92t-0.43-1.94Z" transform="translate(361.91 -36.78)"/><path d="M-33.33,319.13a2,2,0,0,1,.33,1.32,1.36,1.36,0,0,1-.54,1.11,3.28,3.28,0,0,1-.71.37l-1,.36q-0.54.18-1.07,0.33l-0.91.23,0.48,1.93,0.48,1.93q0.23,0.94.42,1.81t0.3,1.57l0.23,1.09a8.83,8.83,0,0,1,.17,1.2,4.89,4.89,0,0,1,0,1,0.9,0.9,0,0,1-.36.65,3,3,0,0,1-1.74.62,1.82,1.82,0,0,1-1.3-.43,3.23,3.23,0,0,1-.58-0.88,8.12,8.12,0,0,1-.42-1.1,10.56,10.56,0,0,1-.27-1.13q-0.1-.56-0.19-1-0.25-1.33-.6-3t-0.71-3.4l-0.47.1-1,.19a11.09,11.09,0,0,1-1.19.15,8.08,8.08,0,0,1-1.14,0,1.38,1.38,0,0,1-.82-0.27,1.86,1.86,0,0,1-.62-0.79,1.89,1.89,0,0,1-.13-0.91,2.06,2.06,0,0,1,.3-0.86,1.47,1.47,0,0,1,.64-0.58,6.91,6.91,0,0,1,1.57-.52q1-.24,2-0.4a6.27,6.27,0,0,1-.16-0.61,5.54,5.54,0,0,0-.16-0.58q-0.11-.37-0.24-1a8.88,8.88,0,0,1-.17-1.19,5.4,5.4,0,0,1,0-1.16,1.85,1.85,0,0,1,.37-0.92,1.87,1.87,0,0,1,.87-0.63,1.84,1.84,0,0,1,.95-0.05,2,2,0,0,1,.85.4,2.27,2.27,0,0,1,.6.71,7.71,7.71,0,0,1,.35.87q0.17,0.51.31,1.07t0.26,1.13l0.22,1,0.32-.07,1.1-.27a8.47,8.47,0,0,1,1.25-.24,3.55,3.55,0,0,1,1.19.06A1.58,1.58,0,0,1-33.33,319.13Z" transform="translate(361.91 -36.78)"/><path d="M-26.24,319.67q0.19,0.89.44,2t0.5,2.29l0.5,2.34q0.25,1.15.42,2.14,0.07,0.48.12,1a4.06,4.06,0,0,1,0,1.08,1.83,1.83,0,0,1-.42.9,1.61,1.61,0,0,1-1,.49,1.64,1.64,0,0,1-1.59-.55,5.32,5.32,0,0,1-1-2.11q-0.16-.73-0.37-1.67l-0.44-1.92q-0.22-1-.42-1.91l-0.36-1.69Q-30,321.65-30.1,321t-0.26-1.3a8.44,8.44,0,0,1-.12-1.31,2.82,2.82,0,0,1,.19-1.11,1.48,1.48,0,0,1,.55-0.53,2.7,2.7,0,0,1,.84-0.33,2.59,2.59,0,0,1,.92,0,1.25,1.25,0,0,1,.71.31,1.49,1.49,0,0,1,.3.5q0.14,0.33.28,0.75t0.25,0.87Q-26.32,319.29-26.24,319.67Zm-2.56-6.13a1.93,1.93,0,0,1-1.67.14,2.06,2.06,0,0,1-1.1-1.2,2,2,0,0,1-.15-1.19,1.69,1.69,0,0,1,.5-0.92,1.76,1.76,0,0,1,1-.45,2.2,2.2,0,0,1,1.23.2,2.32,2.32,0,0,1,1,.72,1.68,1.68,0,0,1,.37.95,1.77,1.77,0,0,1-.24,1A2.1,2.1,0,0,1-28.81,313.54Z" transform="translate(361.91 -36.78)"/><path d="M-22.93,319.69q-0.16-.73-0.35-1.55a3.63,3.63,0,0,1,0-1.54,1.65,1.65,0,0,1,.65-1,1.68,1.68,0,0,1,1.13-.36,1.94,1.94,0,0,1,1,.16,1.55,1.55,0,0,1,.58.49,2.42,2.42,0,0,1,.34.72l0.24,0.82a2.86,2.86,0,0,1,.59-1.09,5.25,5.25,0,0,1,.86-0.78,5,5,0,0,1,.9-0.52,3.87,3.87,0,0,1,.69-0.25,6,6,0,0,1,2.5,0,5.44,5.44,0,0,1,2.29,1,4.76,4.76,0,0,1,.93,1,6.74,6.74,0,0,1,.62,1.21,11.72,11.72,0,0,1,.43,1.31l0.36,1.36a26.13,26.13,0,0,1,.86,4q0.06,0.42.17,1a7.27,7.27,0,0,1,.15,1.08,3,3,0,0,1-.09,1,1,1,0,0,1-.57.63,2.79,2.79,0,0,1-1.07.31,1.42,1.42,0,0,1-.74-0.16,1.37,1.37,0,0,1-.5-0.49,6.05,6.05,0,0,1-.39-0.74q-0.14-.33-0.28-0.78t-0.26-.92l-0.23-.93q-0.11-.45-0.19-0.83-0.13-.6-0.31-1.32T-13,321.18a3.13,3.13,0,0,0-1.26-2.09,2.54,2.54,0,0,0-2.24-.2,3.26,3.26,0,0,0-1.6,1.18,2.2,2.2,0,0,0-.35,1.91l0.16,0.76q0.07,0.35.13,0.7T-18,324.2l0.2,0.92,0.47,2.2a5.35,5.35,0,0,1,.12,1.94,1.7,1.7,0,0,1-.63,1.23,1.57,1.57,0,0,1-1.46.15,1.49,1.49,0,0,1-.66-0.4,2.91,2.91,0,0,1-.47-0.64,3.89,3.89,0,0,1-.31-0.74L-21,328.1q-0.32-1-.53-1.92T-22,324.24Z" transform="translate(361.91 -36.78)"/><path d="M5,321a4.91,4.91,0,0,1,.75-0.29,1.7,1.7,0,0,1,.75-0.06,1.24,1.24,0,0,1,.64.31,1.42,1.42,0,0,1,.4.79,1.53,1.53,0,0,1,0,.77,2.8,2.8,0,0,1-.34.73,3.24,3.24,0,0,1-.53.62,5,5,0,0,1-.59.47,9.51,9.51,0,0,1-2,1.08,10.66,10.66,0,0,1-2.42.68,10.08,10.08,0,0,1-3.42,0,5.06,5.06,0,0,1-2.88-1.52,7.49,7.49,0,0,1-1.64-2.89,11.07,11.07,0,0,1-.53-3.26,7.53,7.53,0,0,1,.55-3.24A6.85,6.85,0,0,1-4.68,313a6.65,6.65,0,0,1,3-1.53,8,8,0,0,1,3.53,0,6.91,6.91,0,0,1,2.2.87,5.38,5.38,0,0,1,1.71,1.67,3.32,3.32,0,0,1,.35.65,7.48,7.48,0,0,1,.3.85,6.66,6.66,0,0,1,.19.9,3,3,0,0,1,0,.82,2.54,2.54,0,0,1-.29,1,1.78,1.78,0,0,1-.63.63,4.18,4.18,0,0,1-1,.43q-0.61.18-1.45,0.39t-1.42.34l-1.36.27-1.44.28-1.67.31a1.66,1.66,0,0,0,.41,1.05,2.27,2.27,0,0,0,.9.6,3.89,3.89,0,0,0,1.17.23A6,6,0,0,0,1,322.6a7.11,7.11,0,0,0,2-.61Q4,321.54,5,321ZM2.3,315.16a4,4,0,0,0-1.48-.74,2.49,2.49,0,0,0-1.1,0,4,4,0,0,0-1,.4,3,3,0,0,0-1.35,1.28,2.47,2.47,0,0,0-.16.35c-0.07.18-.14,0.37-0.2,0.55a2.29,2.29,0,0,0-.1.52q0,0.23.11,0.21l6.19-1.32a2.43,2.43,0,0,0-.32-0.71A2.44,2.44,0,0,0,2.3,315.16Z" transform="translate(361.91 -36.78)"/><path d="M33.79,304.81a2,2,0,0,1,.33,1.32,1.36,1.36,0,0,1-.54,1.11,3.28,3.28,0,0,1-.71.37l-1,.36q-0.54.18-1.07,0.33l-0.91.23,0.48,1.93,0.48,1.93q0.23,0.94.42,1.81t0.3,1.57l0.23,1.09a8.83,8.83,0,0,1,.17,1.2,4.89,4.89,0,0,1,0,1,0.9,0.9,0,0,1-.36.65,3,3,0,0,1-1.74.62,1.82,1.82,0,0,1-1.3-.43,3.23,3.23,0,0,1-.58-0.88,8.12,8.12,0,0,1-.42-1.1,10.56,10.56,0,0,1-.27-1.13q-0.1-.56-0.19-1-0.25-1.33-.6-3t-0.71-3.4l-0.47.1-1,.19a11.09,11.09,0,0,1-1.19.15,8.08,8.08,0,0,1-1.14,0,1.38,1.38,0,0,1-.82-0.27,1.86,1.86,0,0,1-.62-0.79,1.89,1.89,0,0,1-.13-0.91,2.06,2.06,0,0,1,.3-0.86,1.47,1.47,0,0,1,.64-0.58,6.91,6.91,0,0,1,1.57-.52q1-.24,2-0.4a6.27,6.27,0,0,1-.16-0.61,5.54,5.54,0,0,0-.16-0.58q-0.11-.37-0.24-1a8.88,8.88,0,0,1-.17-1.19,5.4,5.4,0,0,1,0-1.16,1.82,1.82,0,0,1,2.19-1.61,2,2,0,0,1,.85.4,2.27,2.27,0,0,1,.6.71,7.71,7.71,0,0,1,.35.87q0.17,0.51.31,1.07t0.26,1.13l0.22,1,0.32-.07,1.1-.27a8.47,8.47,0,0,1,1.25-.24,3.55,3.55,0,0,1,1.19.06A1.58,1.58,0,0,1,33.79,304.81Z" transform="translate(361.91 -36.78)"/><path d="M39,304.37a8,8,0,0,1,1.85-1.1,7,7,0,0,1,2.05-.54,6.63,6.63,0,0,1,2.09.12,6.4,6.4,0,0,1,2,.84,6.24,6.24,0,0,1,1.65,1.53,8.69,8.69,0,0,1,1.1,2,6.79,6.79,0,0,0,.73,1.43q0.43,0.63.91,1.26t0.93,1.26a9.68,9.68,0,0,1,.8,1.35,2.43,2.43,0,0,1,.19,1.43,1.38,1.38,0,0,1-.91,1.07,1.58,1.58,0,0,1-.92.11,2.51,2.51,0,0,1-.88-0.34,4.56,4.56,0,0,1-.77-0.6l-0.65-.64a6,6,0,0,1-1.27,1.81A5.31,5.31,0,0,1,46,316.52a10.19,10.19,0,0,1-1.91.47,10.35,10.35,0,0,1-2,.07,4.84,4.84,0,0,1-2.49-.74,6,6,0,0,1-1.76-1.74,7.28,7.28,0,0,1-1-2.38,9.42,9.42,0,0,1-.24-2.69,7.29,7.29,0,0,1,.73-3.06A6.25,6.25,0,0,1,39,304.37Zm1.58,3.53a3.3,3.3,0,0,0-.47,1.19,4,4,0,0,0,0,1.33,4.45,4.45,0,0,0,.39,1.3,3.52,3.52,0,0,0,.76,1.06,2.38,2.38,0,0,0,1.23.51,5.49,5.49,0,0,0,1.66,0,2.37,2.37,0,0,0,1.55-.86,3.65,3.65,0,0,0,.77-1.67,4.52,4.52,0,0,0-.07-1.94,3.71,3.71,0,0,0-.93-1.7,2.35,2.35,0,0,0-1.18-.67,3.35,3.35,0,0,0-1.38,0,4,4,0,0,0-1.33.52A3,3,0,0,0,40.53,307.9Z" transform="translate(361.91 -36.78)"/><path d="M59.93,311.16q0,0.16,0,.31a2.69,2.69,0,0,0,0,.3l0,0.7a0.77,0.77,0,0,1-.06.18l-0.05.21a1.27,1.27,0,0,1-.45.69,2.41,2.41,0,0,1-1.57.53,1.68,1.68,0,0,1-.92-0.13,1.22,1.22,0,0,1-.56-0.44,3.63,3.63,0,0,1-.32-0.59,2,2,0,0,1-.22-0.55L52,294.67c0-.15-0.05-0.28-0.07-0.4a3.12,3.12,0,0,1,0-.34,2.64,2.64,0,0,1,0-.4c0-.11,0-0.24,0-0.37a1,1,0,0,1,.24-0.58,1.48,1.48,0,0,1,.66-0.47,2.23,2.23,0,0,1,.39-0.17l0.44-.11a2.6,2.6,0,0,1,1.07,0,1.48,1.48,0,0,1,.78.56,2.7,2.7,0,0,1,.57,1.1q0.1,0.31.25,0.94t0.22,0.94l0,0.13q0.28,1,.48,1.93t0.4,2q0.23,1.07.43,2.07t0.41,2l1.42,6.64a1.66,1.66,0,0,0,.07.23,1.76,1.76,0,0,1,.07.23A2.71,2.71,0,0,1,59.93,311.16Z" transform="translate(361.91 -36.78)"/><path d="M68.5,304.38l1.25,0.84,0.58,0.39a0.93,0.93,0,0,0,.25.15,1.21,1.21,0,0,1,.26.14l0.61,0.38q0.42,0.26,1.27.84a5,5,0,0,1,1.21,1.11,1.73,1.73,0,0,1,.26,1.61,1.59,1.59,0,0,1-.44.74,1.19,1.19,0,0,1-.65.29,2.23,2.23,0,0,1-.81-0.06,4.75,4.75,0,0,1-.88-0.31,10.4,10.4,0,0,1-1.66-1q-0.82-.57-1.31-0.86a3.51,3.51,0,0,1-.43-0.31l-0.15-.08-0.15-.08-0.57-.34-0.61-.37,0.26,1.23a2.91,2.91,0,0,0,.14.5,2.7,2.7,0,0,1,.07.48,2.59,2.59,0,0,0,0,.68c0,0.11,0,.21,0,0.31a2,2,0,0,1,0,.32l0,0.11a0.22,0.22,0,0,0,0,.1l0,0.1,0,0.1a1.92,1.92,0,0,1-.38.71,2.19,2.19,0,0,1-1.45.51,1.41,1.41,0,0,1-.8-0.19,0.93,0.93,0,0,1-.49-0.46,3.08,3.08,0,0,1-.18-0.31,3.16,3.16,0,0,0-.18-0.31,0.82,0.82,0,0,1-.13-0.29l-0.05-.24-3.84-18-0.08-.38a2.33,2.33,0,0,1,0-.39,3.64,3.64,0,0,1,0-.38,3.11,3.11,0,0,1,0-.36,1.52,1.52,0,0,1,.21-0.57,1.16,1.16,0,0,1,.28-0.31l0.3-.21,0.35-.12,0.39-.1a1.82,1.82,0,0,1,.94.06,1.71,1.71,0,0,1,.76.6,3.07,3.07,0,0,1,.5,1.12q0.1,0.31.27,1t0.24,1l0,0.13q0.25,1,.46,2l0.44,2.05Q64.74,299,65,300l0.42,2,0.07,0.35q0.2-.31.4-0.58a5.14,5.14,0,0,0,.37-0.58,2.48,2.48,0,0,0,.21-0.28l0.27-.42q0.32-.5.83-1.35a10.43,10.43,0,0,1,1.12-1.55,3.81,3.81,0,0,1,1.38-1,1.22,1.22,0,0,1,1.41.49,1.73,1.73,0,0,1,.42,1.58,6.11,6.11,0,0,1-.64,1.57q-0.54.88-.82,1.28l-0.4.58a1.34,1.34,0,0,1-.18.22,1.06,1.06,0,0,0-.17.22l-0.37.58Z" transform="translate(361.91 -36.78)"/><path d="M78.58,297.3q0.19,0.89.44,2t0.5,2.29l0.5,2.34q0.25,1.15.42,2.14,0.07,0.48.12,1a4.06,4.06,0,0,1,0,1.08,1.83,1.83,0,0,1-.42.9,1.61,1.61,0,0,1-1,.49,1.64,1.64,0,0,1-1.59-.55,5.32,5.32,0,0,1-1-2.11q-0.16-.73-0.37-1.67l-0.44-1.92q-0.22-1-.42-1.91L75,299.72q-0.09-.44-0.25-1.07t-0.26-1.3a8.44,8.44,0,0,1-.12-1.31,2.82,2.82,0,0,1,.19-1.11,1.48,1.48,0,0,1,.55-0.53,2.7,2.7,0,0,1,.84-0.33,2.59,2.59,0,0,1,.92,0,1.25,1.25,0,0,1,.71.31,1.49,1.49,0,0,1,.3.5q0.14,0.33.28,0.75t0.25,0.87Q78.5,296.92,78.58,297.3ZM76,291.17a1.93,1.93,0,0,1-1.67.14,2.06,2.06,0,0,1-1.1-1.2,2,2,0,0,1-.15-1.19,1.69,1.69,0,0,1,.5-0.92,1.76,1.76,0,0,1,1-.45,2.2,2.2,0,0,1,1.23.2,2.32,2.32,0,0,1,1,.72,1.68,1.68,0,0,1,.37.95,1.77,1.77,0,0,1-.24,1A2.1,2.1,0,0,1,76,291.17Z" transform="translate(361.91 -36.78)"/><path d="M81.89,297.32q-0.16-.73-0.35-1.55a3.63,3.63,0,0,1,0-1.54,1.65,1.65,0,0,1,.65-1,1.68,1.68,0,0,1,1.13-.36,1.94,1.94,0,0,1,1,.16,1.55,1.55,0,0,1,.58.49,2.42,2.42,0,0,1,.34.72L85.4,295a2.86,2.86,0,0,1,.59-1.09,5.25,5.25,0,0,1,.86-0.78,5,5,0,0,1,.9-0.52,3.87,3.87,0,0,1,.69-0.25,6,6,0,0,1,2.5,0,5.44,5.44,0,0,1,2.29,1,4.76,4.76,0,0,1,.93,1,6.74,6.74,0,0,1,.62,1.21,11.72,11.72,0,0,1,.43,1.31l0.36,1.36a26.13,26.13,0,0,1,.86,4q0.06,0.42.17,1a7.27,7.27,0,0,1,.15,1.08,3,3,0,0,1-.09,1,1,1,0,0,1-.57.63,2.79,2.79,0,0,1-1.07.31,1.42,1.42,0,0,1-.74-0.16,1.37,1.37,0,0,1-.5-0.49,6.05,6.05,0,0,1-.39-0.74q-0.14-.33-0.28-0.78t-0.26-.92l-0.23-.93q-0.11-.45-0.19-0.83-0.13-.6-0.31-1.32t-0.29-1.36a3.13,3.13,0,0,0-1.26-2.09,2.54,2.54,0,0,0-2.24-.2,3.26,3.26,0,0,0-1.6,1.18,2.2,2.2,0,0,0-.35,1.91l0.16,0.76q0.07,0.35.13,0.7t0.15,0.76l0.2,0.92,0.47,2.2a5.35,5.35,0,0,1,.12,1.94,1.7,1.7,0,0,1-.63,1.23,1.57,1.57,0,0,1-1.46.15,1.49,1.49,0,0,1-.66-0.4,2.91,2.91,0,0,1-.47-0.64,3.89,3.89,0,0,1-.31-0.74l-0.22-.73q-0.32-1-.53-1.92t-0.43-1.94Z" transform="translate(361.91 -36.78)"/><path d="M111.63,296.53q0.22,1,.42,2.19t0.35,2.2q0.2,0.95.31,1.92a15.86,15.86,0,0,1,.13,1.84,9.28,9.28,0,0,1-.16,1.9,5.86,5.86,0,0,1-.81,2.11,4.49,4.49,0,0,1-1.72,1.54,12.71,12.71,0,0,1-1.83.74,9.12,9.12,0,0,1-1.91.36,7.65,7.65,0,0,1-1.5-.06,7.55,7.55,0,0,1-1.57-.38,5.64,5.64,0,0,1-1.38-.71,3.07,3.07,0,0,1-1-1.1,2.69,2.69,0,0,1-.33-1.48,1.68,1.68,0,0,1,.45-1.06,1.21,1.21,0,0,1,1-.32,2.36,2.36,0,0,1,1.35.74,2.73,2.73,0,0,0,1.3.68,4.43,4.43,0,0,0,1.64.08,4,4,0,0,0,1.55-.55,2.4,2.4,0,0,0,1-1.19,3.55,3.55,0,0,0,.17-1.46,14.66,14.66,0,0,0-.2-1.78,6.9,6.9,0,0,1-3.2,1.19,7.15,7.15,0,0,1-3.29-.39,6.7,6.7,0,0,1-2.71-1.87,5.92,5.92,0,0,1-1.42-3.18,9.57,9.57,0,0,1,0-3.18,5.45,5.45,0,0,1,1.44-2.79,6.33,6.33,0,0,1,2.28-1.53,16.32,16.32,0,0,1,2.64-.81l1.5-.32a4.88,4.88,0,0,1,1.42-.1,3.11,3.11,0,0,1,1.27.39,2.75,2.75,0,0,1,1,1.13,10.33,10.33,0,0,1,1,2.53Q111.33,295.1,111.63,296.53Zm-5.54,3.93a3,3,0,0,0,.6-0.19,5.45,5.45,0,0,0,.55-0.28,1.87,1.87,0,0,0,.7-0.68,1.74,1.74,0,0,0,.21-0.79,3.33,3.33,0,0,0-.11-0.89q-0.12-.47-0.22-1t-0.21-.91a9.51,9.51,0,0,0-.28-0.95A4.08,4.08,0,0,0,107,294a0.7,0.7,0,0,0-.47-0.36,5.42,5.42,0,0,0-1,0,7,7,0,0,0-1.14.24,4.76,4.76,0,0,0-1,.45,2.49,2.49,0,0,0-1.28,1.81,4,4,0,0,0,0,1.33,4.53,4.53,0,0,0,.37,1.28,3,3,0,0,0,.76,1,2.55,2.55,0,0,0,1.4.66A4.47,4.47,0,0,0,106.09,300.45Z" transform="translate(361.91 -36.78)"/><path d="M-131.33,379.7A2,2,0,0,1-131,381a1.36,1.36,0,0,1-.54,1.11,3.28,3.28,0,0,1-.71.37l-1,.36q-0.54.18-1.07,0.33l-0.91.23,0.48,1.93,0.48,1.93q0.23,0.94.42,1.81t0.3,1.57l0.23,1.09a8.83,8.83,0,0,1,.17,1.2,4.89,4.89,0,0,1,0,1,0.9,0.9,0,0,1-.36.65,3,3,0,0,1-1.74.62,1.82,1.82,0,0,1-1.3-.43,3.23,3.23,0,0,1-.58-0.88,8.12,8.12,0,0,1-.42-1.1,10.56,10.56,0,0,1-.27-1.13q-0.1-.56-0.19-1-0.25-1.33-.6-3t-0.71-3.4l-0.47.1-1,.19a11.09,11.09,0,0,1-1.19.15,8.08,8.08,0,0,1-1.14,0,1.38,1.38,0,0,1-.82-0.27,1.86,1.86,0,0,1-.62-0.79,1.89,1.89,0,0,1-.13-0.91,2.06,2.06,0,0,1,.3-0.86,1.47,1.47,0,0,1,.64-0.58,6.91,6.91,0,0,1,1.57-.52q1-.24,2-0.4a6.27,6.27,0,0,1-.16-0.61,5.54,5.54,0,0,0-.16-0.58q-0.11-.37-0.24-1a8.88,8.88,0,0,1-.17-1.19,5.4,5.4,0,0,1,0-1.16,1.85,1.85,0,0,1,.37-0.92,1.87,1.87,0,0,1,.87-0.63,1.84,1.84,0,0,1,.95-0.05,2,2,0,0,1,.85.4,2.27,2.27,0,0,1,.6.71,7.71,7.71,0,0,1,.35.87q0.17,0.51.31,1.07t0.26,1.13l0.22,1,0.32-.07,1.1-.27a8.47,8.47,0,0,1,1.25-.24,3.55,3.55,0,0,1,1.19.06A1.58,1.58,0,0,1-131.33,379.7Z" transform="translate(361.91 -36.78)"/><path d="M-126.35,378.27a9.07,9.07,0,0,1,2-1.19,7.61,7.61,0,0,1,2.24-.58,7.49,7.49,0,0,1,2.31.14,6.94,6.94,0,0,1,2.23.91,7.33,7.33,0,0,1,1.64,1.48,9.68,9.68,0,0,1,1.22,1.84,7,7,0,0,1,.91,3.47,10.85,10.85,0,0,1-.59,3.56,5.71,5.71,0,0,1-.82,1.48,6.44,6.44,0,0,1-1.18,1.19,7.8,7.8,0,0,1-1.92,1.05,8.93,8.93,0,0,1-2.13.54,7.28,7.28,0,0,1-3.54-.24,7.1,7.1,0,0,1-2.77-1.69,7.78,7.78,0,0,1-1.78-2.78,8.43,8.43,0,0,1-.53-3.5,8.33,8.33,0,0,1,.81-3.4A6.72,6.72,0,0,1-126.35,378.27Zm1.85,4a3,3,0,0,0-.49,1.26,5.21,5.21,0,0,0,0,1.44,4.42,4.42,0,0,0,.41,1.4,4.08,4.08,0,0,0,.83,1.16,2.36,2.36,0,0,0,1.31.55,6,6,0,0,0,1.79,0,2.52,2.52,0,0,0,1.65-.93,4.06,4.06,0,0,0,.83-1.78,4.74,4.74,0,0,0-.06-2.07,4,4,0,0,0-1-1.84,2.33,2.33,0,0,0-1.26-.71,3.77,3.77,0,0,0-1.49,0,4.5,4.5,0,0,0-1.42.53A3.31,3.31,0,0,0-124.5,382.31Z" transform="translate(361.91 -36.78)"/><path d="M-98.88,373.44a8,8,0,0,1,1.85-1.1A7,7,0,0,1-95,371.8a6.63,6.63,0,0,1,2.09.12,6.4,6.4,0,0,1,2,.84,6.24,6.24,0,0,1,1.65,1.53,8.69,8.69,0,0,1,1.1,2,6.79,6.79,0,0,0,.73,1.43q0.43,0.63.91,1.26t0.93,1.26a9.68,9.68,0,0,1,.8,1.35,2.43,2.43,0,0,1,.19,1.43,1.38,1.38,0,0,1-.91,1.07,1.58,1.58,0,0,1-.92.11,2.51,2.51,0,0,1-.88-0.34,4.56,4.56,0,0,1-.77-0.6l-0.65-.64A6,6,0,0,1-90,384.47a5.31,5.31,0,0,1-1.91,1.12,10.19,10.19,0,0,1-1.91.47,10.35,10.35,0,0,1-2,.07,4.84,4.84,0,0,1-2.49-.74,6,6,0,0,1-1.76-1.74,7.28,7.28,0,0,1-1-2.38,9.42,9.42,0,0,1-.24-2.69,7.29,7.29,0,0,1,.73-3.06A6.25,6.25,0,0,1-98.88,373.44ZM-97.3,377a3.3,3.3,0,0,0-.47,1.19,4,4,0,0,0,0,1.33,4.45,4.45,0,0,0,.39,1.3,3.52,3.52,0,0,0,.76,1.06,2.38,2.38,0,0,0,1.23.51,5.49,5.49,0,0,0,1.66,0,2.37,2.37,0,0,0,1.55-.86,3.65,3.65,0,0,0,.77-1.67,4.52,4.52,0,0,0-.07-1.94,3.71,3.71,0,0,0-.93-1.7,2.35,2.35,0,0,0-1.18-.67,3.35,3.35,0,0,0-1.38,0,4,4,0,0,0-1.33.52A3,3,0,0,0-97.3,377Z" transform="translate(361.91 -36.78)"/><path d="M-59.07,364a5.65,5.65,0,0,1,1.91.73,7.79,7.79,0,0,1,1.66,1.35,8.29,8.29,0,0,1,1.27,1.79,8,8,0,0,1,.76,2.07,6.14,6.14,0,0,1-.1,3.19,5.13,5.13,0,0,1-2,2.72,14.84,14.84,0,0,1-2.56,1.39,23.89,23.89,0,0,1-2.85,1l1.23,5.78a1.24,1.24,0,0,1,0,.36,1.11,1.11,0,0,0,0,.33,6,6,0,0,1,0,.6,5.27,5.27,0,0,1-.09.58c-0.06.14-.12,0.28-0.18,0.4a4.14,4.14,0,0,1-.22.38,2.21,2.21,0,0,1-1.55.5,1.34,1.34,0,0,1-.89-0.14,1.84,1.84,0,0,1-.54-0.51,5.1,5.1,0,0,1-.38-0.68c0-.1-0.08-0.2-0.11-0.29a2.69,2.69,0,0,1-.08-0.3l-3.76-17.6c0-.13-0.05-0.26-0.07-0.4s0-.28,0-0.44a2.55,2.55,0,0,1,0-.8,1.76,1.76,0,0,1,.94-1.32,6.08,6.08,0,0,1,1.94-.68,14.27,14.27,0,0,1,1.6-.18q0.83,0,1.61,0t1.42,0.08Q-59.49,363.91-59.07,364Zm1.52,6.81a2.45,2.45,0,0,0-.53-1.46,2.83,2.83,0,0,0-1.15-.81,5.08,5.08,0,0,0-1.51-.32,10.44,10.44,0,0,0-1.6,0,1.07,1.07,0,0,0-.31,0l-0.46.1q0.22,1,.43,1.94t0.41,2l0.45,2.12a13.92,13.92,0,0,0,1.5-.48,6.81,6.81,0,0,0,1.41-.73,3.78,3.78,0,0,0,1-1A2.08,2.08,0,0,0-57.55,370.8Z" transform="translate(361.91 -36.78)"/><path d="M-39.33,370.11a4.91,4.91,0,0,1,.75-0.29,1.7,1.7,0,0,1,.75-0.06,1.24,1.24,0,0,1,.64.31,1.42,1.42,0,0,1,.4.79,1.53,1.53,0,0,1,0,.77,2.8,2.8,0,0,1-.34.73,3.24,3.24,0,0,1-.53.62,5,5,0,0,1-.59.47,9.51,9.51,0,0,1-2,1.08,10.66,10.66,0,0,1-2.42.68,10.08,10.08,0,0,1-3.42,0A5.06,5.06,0,0,1-49,373.72a7.49,7.49,0,0,1-1.64-2.89,11.07,11.07,0,0,1-.53-3.26,7.53,7.53,0,0,1,.55-3.24A6.85,6.85,0,0,1-49,362.06a6.65,6.65,0,0,1,3-1.53,8,8,0,0,1,3.53,0,6.91,6.91,0,0,1,2.2.87A5.38,5.38,0,0,1-38.52,363a3.32,3.32,0,0,1,.35.65,7.48,7.48,0,0,1,.3.85,6.66,6.66,0,0,1,.19.9,3,3,0,0,1,0,.82,2.54,2.54,0,0,1-.29,1,1.78,1.78,0,0,1-.63.63,4.18,4.18,0,0,1-1,.43q-0.61.18-1.45,0.39t-1.42.34l-1.36.27-1.44.28-1.67.31a1.66,1.66,0,0,0,.41,1.05,2.27,2.27,0,0,0,.9.6,3.89,3.89,0,0,0,1.17.23,6,6,0,0,0,1.21-.06,7.11,7.11,0,0,0,2-.61Q-40.3,370.65-39.33,370.11ZM-42,364.27a4,4,0,0,0-1.48-.74,2.49,2.49,0,0,0-1.1,0,4,4,0,0,0-1,.4,3,3,0,0,0-1.35,1.28,2.47,2.47,0,0,0-.16.35c-0.07.18-.14,0.37-0.2,0.55a2.29,2.29,0,0,0-.1.52q0,0.23.11,0.21l6.19-1.32a2.43,2.43,0,0,0-.32-0.71A2.44,2.44,0,0,0-42,364.27Z" transform="translate(361.91 -36.78)"/><path d="M-24.06,356.81a2,2,0,0,1,.33,1.32,1.36,1.36,0,0,1-.54,1.11,3.28,3.28,0,0,1-.71.37l-1,.36q-0.54.18-1.07,0.33l-0.91.23,0.48,1.93,0.48,1.93q0.23,0.94.42,1.81t0.3,1.57l0.23,1.09a8.83,8.83,0,0,1,.17,1.2,4.89,4.89,0,0,1,0,1,0.9,0.9,0,0,1-.36.65,3,3,0,0,1-1.74.62,1.82,1.82,0,0,1-1.3-.43,3.23,3.23,0,0,1-.58-0.88,8.12,8.12,0,0,1-.42-1.1,10.56,10.56,0,0,1-.27-1.13q-0.1-.56-0.19-1-0.25-1.33-.6-3t-0.71-3.4l-0.47.1-1,.19a11.09,11.09,0,0,1-1.19.15,8.08,8.08,0,0,1-1.14,0,1.38,1.38,0,0,1-.82-0.27,1.86,1.86,0,0,1-.62-0.79,1.89,1.89,0,0,1-.13-0.91,2.06,2.06,0,0,1,.3-0.86,1.47,1.47,0,0,1,.64-0.58,6.91,6.91,0,0,1,1.57-.52q1-.24,2-0.4a6.27,6.27,0,0,1-.16-0.61,5.54,5.54,0,0,0-.16-0.58q-0.11-.37-0.24-1a8.88,8.88,0,0,1-.17-1.19,5.4,5.4,0,0,1,0-1.16,1.85,1.85,0,0,1,.37-0.92,1.87,1.87,0,0,1,.87-0.63,1.84,1.84,0,0,1,.95-0.05,2,2,0,0,1,.85.4,2.27,2.27,0,0,1,.6.71,7.71,7.71,0,0,1,.35.87q0.17,0.51.31,1.07t0.26,1.13l0.22,1,0.32-.07,1.1-.27a8.47,8.47,0,0,1,1.25-.24,3.55,3.55,0,0,1,1.19.06A1.58,1.58,0,0,1-24.06,356.81Z" transform="translate(361.91 -36.78)"/><path d="M-0.56,354.67l-0.19-.87q-0.1-.49-0.18-1a10.38,10.38,0,0,1-.11-1A3.9,3.9,0,0,1-1,350.83a1.42,1.42,0,0,1,.62-0.94,2.91,2.91,0,0,1,1.13-.42,2.13,2.13,0,0,1,1.09,0,1.48,1.48,0,0,1,.69.46,2.32,2.32,0,0,1,.41.77,9.62,9.62,0,0,1,.25,1,2.36,2.36,0,0,1,.6-1,5.34,5.34,0,0,1,.89-0.72,5.89,5.89,0,0,1,.86-0.46L6,349.3A11.64,11.64,0,0,1,7.46,349a5.83,5.83,0,0,1,1.5,0,6.19,6.19,0,0,1,1.15.3,4.66,4.66,0,0,1,1.11.57,2.35,2.35,0,0,1,.76.85,1.53,1.53,0,0,1,.09,1.12,1.21,1.21,0,0,1-.81,1,5.61,5.61,0,0,1-1.21.08,3.53,3.53,0,0,1-.88-0.11,3.6,3.6,0,0,0-.88-0.11,3.81,3.81,0,0,0-1.86.56,6.17,6.17,0,0,0-1.26,1.06,6.18,6.18,0,0,0-.94,1.49l1,4.55q0.18,0.85.36,1.77a5.9,5.9,0,0,1,.1,1.71,2.56,2.56,0,0,1-.53,1.37,2.27,2.27,0,0,1-1.51.74,1.44,1.44,0,0,1-1.13-.34,2.31,2.31,0,0,1-.76-0.91q-0.16-.46-0.34-1.12T1,362.12q-0.17-.72-0.33-1.47l-0.29-1.37Z" transform="translate(361.91 -36.78)"/><path d="M16.89,347.71a9.07,9.07,0,0,1,2-1.19,7.61,7.61,0,0,1,2.24-.58,7.49,7.49,0,0,1,2.31.14,6.94,6.94,0,0,1,2.23.91,7.33,7.33,0,0,1,1.64,1.48,9.68,9.68,0,0,1,1.22,1.84,7,7,0,0,1,.91,3.47,10.85,10.85,0,0,1-.59,3.56,5.71,5.71,0,0,1-.82,1.48A6.44,6.44,0,0,1,26.85,360a7.8,7.8,0,0,1-1.92,1.05,8.93,8.93,0,0,1-2.13.54,7.28,7.28,0,0,1-3.54-.24,7.1,7.1,0,0,1-2.77-1.69,7.78,7.78,0,0,1-1.78-2.78,8.43,8.43,0,0,1-.53-3.5A8.33,8.33,0,0,1,15,350,6.72,6.72,0,0,1,16.89,347.71Zm1.85,4a3,3,0,0,0-.49,1.26,5.21,5.21,0,0,0,0,1.44,4.42,4.42,0,0,0,.41,1.4,4.08,4.08,0,0,0,.83,1.16,2.36,2.36,0,0,0,1.31.55,6,6,0,0,0,1.79,0,2.52,2.52,0,0,0,1.65-.93,4.06,4.06,0,0,0,.83-1.78,4.74,4.74,0,0,0-.06-2.07A4,4,0,0,0,24,351a2.33,2.33,0,0,0-1.26-.71,3.77,3.77,0,0,0-1.49,0,4.5,4.5,0,0,0-1.42.53A3.31,3.31,0,0,0,18.74,351.74Z" transform="translate(361.91 -36.78)"/><path d="M42.56,344.44a2.06,2.06,0,0,1,.47.89,1.8,1.8,0,0,1,0,1,1.55,1.55,0,0,1-.64.95,1.89,1.89,0,0,1-1.14.29,1.39,1.39,0,0,1-.55-0.11l-0.53-.23a4.48,4.48,0,0,0-.61-0.22A2.4,2.4,0,0,0,38.7,347a4.29,4.29,0,0,0-1,.22,3.62,3.62,0,0,0-.94.47,2.67,2.67,0,0,0-.88,1.29,4.44,4.44,0,0,0-.21,1.63,4.55,4.55,0,0,0,.39,1.62,3,3,0,0,0,1,1.25,2.93,2.93,0,0,0,1.15.51,3.93,3.93,0,0,0,1.26.09,4.14,4.14,0,0,0,1.07-.25,6.87,6.87,0,0,0,1-.46,8.12,8.12,0,0,0,.76-0.61,2.69,2.69,0,0,1,.85-0.53,1.26,1.26,0,0,1,.95.11,1.66,1.66,0,0,1,.6.63,2,2,0,0,1,.24.89,1.76,1.76,0,0,1-.19.9,4.21,4.21,0,0,1-.88,1.13,5.83,5.83,0,0,1-1.2.9,6.09,6.09,0,0,1-1.63.65,12.06,12.06,0,0,1-1.77.31H38.39q-0.43,0-.84-0.05a6.38,6.38,0,0,1-2.63-.94,6.65,6.65,0,0,1-1.87-1.8A7.46,7.46,0,0,1,32,352.55a8.11,8.11,0,0,1-.24-2.69,8.52,8.52,0,0,1,.42-2.27,5.3,5.3,0,0,1,.93-1.67,6.17,6.17,0,0,1,1.41-1.23,16.49,16.49,0,0,1,1.83-1,6.39,6.39,0,0,1,2.34-.5,6.48,6.48,0,0,1,2.39.35A3.61,3.61,0,0,1,42.56,344.44Z" transform="translate(361.91 -36.78)"/><path d="M52.74,347.39L54,348.23l0.58,0.39a0.93,0.93,0,0,0,.25.15,1.21,1.21,0,0,1,.26.14l0.61,0.38q0.42,0.26,1.27.84a5,5,0,0,1,1.21,1.11,1.73,1.73,0,0,1,.26,1.61,1.59,1.59,0,0,1-.44.74,1.19,1.19,0,0,1-.65.29,2.23,2.23,0,0,1-.81-0.06,4.75,4.75,0,0,1-.88-0.31,10.4,10.4,0,0,1-1.66-1q-0.82-.57-1.31-0.86a3.51,3.51,0,0,1-.43-0.31l-0.15-.08L52,351.22l-0.57-.34-0.61-.37,0.26,1.23a2.91,2.91,0,0,0,.14.5,2.7,2.7,0,0,1,.07.48,2.59,2.59,0,0,0,0,.68c0,0.11,0,.21,0,0.31a2,2,0,0,1,0,.32l0,0.11a0.22,0.22,0,0,0,0,.1l0,0.1,0,0.1a1.92,1.92,0,0,1-.38.71,2.19,2.19,0,0,1-1.45.51,1.41,1.41,0,0,1-.8-0.19,0.93,0.93,0,0,1-.49-0.46,3.08,3.08,0,0,1-.18-0.31,3.16,3.16,0,0,0-.18-0.31,0.82,0.82,0,0,1-.13-0.29l-0.05-.24-3.84-18-0.08-.38a2.33,2.33,0,0,1,0-.39,3.64,3.64,0,0,1,0-.38,3.11,3.11,0,0,1,0-.36,1.52,1.52,0,0,1,.21-0.57,1.16,1.16,0,0,1,.28-0.31l0.3-.21,0.35-.12,0.39-.1a1.82,1.82,0,0,1,.94.06,1.71,1.71,0,0,1,.76.6,3.07,3.07,0,0,1,.5,1.12q0.1,0.31.27,1t0.24,1l0,0.13q0.25,1,.46,2l0.44,2.05Q49,342,49.2,343l0.42,2,0.07,0.35q0.2-.31.4-0.58a5.14,5.14,0,0,0,.37-0.58,2.48,2.48,0,0,0,.21-0.28l0.27-.42q0.32-.5.83-1.35a10.43,10.43,0,0,1,1.12-1.55,3.81,3.81,0,0,1,1.38-1,1.22,1.22,0,0,1,1.41.49,1.73,1.73,0,0,1,.42,1.58,6.11,6.11,0,0,1-.64,1.57q-0.54.88-.82,1.28l-0.4.58a1.34,1.34,0,0,1-.18.22,1.06,1.06,0,0,0-.17.22l-0.37.58Z" transform="translate(361.91 -36.78)"/><path d="M-9.42,358.3a2,2,0,0,1,1.1-.17,2.93,2.93,0,0,1,1.16.41,1.45,1.45,0,0,1,.45.47,2,2,0,0,1,.25.64,3.3,3.3,0,0,1,.06.83,1.65,1.65,0,0,1-.16.71,1.71,1.71,0,0,1-.57.58,3.43,3.43,0,0,1-.75.37,5.53,5.53,0,0,1-.64.19l-0.3.06L-15,363.75l-0.76.21a4.79,4.79,0,0,1-.78.13,2.67,2.67,0,0,1-.75,0,2.31,2.31,0,0,1-.7-0.26,3.34,3.34,0,0,1-.68-0.56A1.57,1.57,0,0,1-19,362.5a2.15,2.15,0,0,1,.07-1.12,1.57,1.57,0,0,1,.69-0.89,3.34,3.34,0,0,1,1.32-.56q0.71-.14,1.43-0.32Z" transform="translate(361.91 -36.78)"/><path d="M-174.11,365.21a1.32,1.32,0,0,1-.72.73,1.75,1.75,0,0,1-1.07.18,2.65,2.65,0,0,1-.95-0.33,6,6,0,0,1-.91-0.63q-0.44-.37-0.84-0.76t-0.7-.73q-0.57-.67-1.07-1.37a16.27,16.27,0,0,1-.93-1.47q-0.42-.74-0.78-1.5a14.11,14.11,0,0,1-.65-1.63,15.08,15.08,0,0,1-.53-1.72q-0.23-.92-0.43-1.84-0.16-.73-0.27-1.59t-0.16-1.85q-0.06-1,0-2t0.1-2q0.11-1,.26-2.05a17.24,17.24,0,0,1,.43-2q0.19-.8.48-1.69a4.09,4.09,0,0,1,.91-1.55,3.11,3.11,0,0,1,.85-0.53,3.1,3.1,0,0,1,1-.26,0.85,0.85,0,0,1,.76.17,0.8,0.8,0,0,1,.14.6,3.33,3.33,0,0,1-.19.8,4.56,4.56,0,0,0-.22.77q-0.19,1.26-.33,2.47a22.33,22.33,0,0,0-.15,2.39,33.59,33.59,0,0,0,.73,7.44,32.46,32.46,0,0,0,.94,3.47l0.59,1.51a12.17,12.17,0,0,0,.72,1.51q0.35,0.72.76,1.46a13.84,13.84,0,0,0,.88,1.4,7.85,7.85,0,0,0,.81,1.07,2.13,2.13,0,0,1,.57,1.18,1.13,1.13,0,0,1,0,.21C-174.11,365-174.11,365.12-174.11,365.21Z" transform="translate(361.91 -36.78)"/><path d="M62.76,355l-0.09-.2a1.08,1.08,0,0,1-.06-0.2,2.13,2.13,0,0,1,0-1.31,7.87,7.87,0,0,0,.3-1.3,13.93,13.93,0,0,0,.23-1.64q0.07-.84.1-1.64a12.33,12.33,0,0,0,0-1.68q0-.8-0.08-1.62a32.51,32.51,0,0,0-.56-3.55,33.63,33.63,0,0,0-2.37-7.09,22.44,22.44,0,0,0-1.11-2.12q-0.62-1-1.31-2.12-0.23-.28-0.53-0.61a3.71,3.71,0,0,1-.49-0.66,0.79,0.79,0,0,1-.11-0.6,0.85,0.85,0,0,1,.63-0.46,3.4,3.4,0,0,1,2,0,4.1,4.1,0,0,1,1.46,1q0.63,0.69,1.13,1.35a17.29,17.29,0,0,1,1.22,1.67q0.55,0.86,1.07,1.77t0.91,1.8q0.42,0.89.79,1.86t0.61,1.75q0.24,0.84.4,1.57,0.2,0.92.36,1.86a15.32,15.32,0,0,1,.22,1.79,14.15,14.15,0,0,1,.08,1.75q0,0.85-.1,1.69a16.38,16.38,0,0,1-.24,1.72q-0.17.85-.42,1.69-0.17.43-.36,1a10.26,10.26,0,0,1-.44,1,6.1,6.1,0,0,1-.57.95,2.65,2.65,0,0,1-.73.68,1.75,1.75,0,0,1-1,.27A1.31,1.31,0,0,1,62.76,355Z" transform="translate(361.91 -36.78)"/></svg>