<svg id="Capa_1" data-name="Capa 1" xmlns="http://www.w3.org/2000/svg" viewBox="0 0 181.64 218.04"><defs><style>.cls-1{fill:#ea5467;}.cls-2{fill:#fabe89;}.cls-3{fill:#fce58c;}</style></defs><title>fire</title><path d="M1032.17,1117.21a63.54,63.54,0,0,0,14-20.33c5.68-12.49,8.65-25.73,10.67-39.22,0.53-3.53.89-7.08,1.39-10.61,0.93-6.54,7.69-9.19,13-5.06a142.43,142.43,0,0,1,29.4,30.92,106.75,106.75,0,0,1,14.2,27.51,13.15,13.15,0,0,0,.7,1.44c2.06-5.14,3.39-10.31,5.07-15.37a23.55,23.55,0,0,1,1.3-3.39c2.92-5.65,9.4-6.36,13.6-1.58,12.68,14.44,23,30.31,29.15,48.64,8.81,26.29,8.31,52.17-4.53,77.1-14.39,28-37.26,44.73-68.37,49.71-18.45,3-36.13-.37-53-8.27-12.69-6-24.12-13.61-33-24.61-10.66-13.12-15.68-28.33-16.58-45-1-19.25,3-37.69,9-55.81,2.52-7.6,5.49-15,8.62-22.41,1.81-4.26,5.36-5.06,9-2.16a69.46,69.46,0,0,1,15.69,17.47C1031.61,1116.49,1031.87,1116.79,1032.17,1117.21Z" transform="translate(-988.96 -1040)"/><path class="cls-1" d="M1015.19,1120.52a51.65,51.65,0,0,1,7.14,13.08c1.93,4.79,4.78,5.64,9.24,3,15.79-9.35,25.09-23.75,31.51-40.38a165.22,165.22,0,0,0,8.44-32.17c0.06-.38.15-0.75,0.23-1.19,1.23,0.2,1.74,1.11,2.4,1.76,12.83,12.69,22.4,27.41,27.8,44.73a52.09,52.09,0,0,0,2,5.27c3.53,8.09,12.1,10,18.56,4.1,5.09-4.65,8-10.65,10.18-17.38a117.12,117.12,0,0,1,10.44,16.19c8.81,16.38,13.65,33.72,12.43,52.48-2.06,31.55-24.82,65.39-63.67,71.81-27.79,4.59-51.49-4.49-71.35-23.78-10.39-10.09-15.08-23.13-16.31-37.42-1.56-18.05,2.48-35.27,8-52.24,0.79-2.4,1.69-4.77,2.55-7.15A4.41,4.41,0,0,1,1015.19,1120.52Z" transform="translate(-988.96 -1040)"/><path class="cls-2" d="M1024.7,1133.89a44,44,0,0,1,6.09,11.15c1.65,4.09,4.08,4.81,7.88,2.55,13.47-8,21.4-20.25,26.87-34.43a140.9,140.9,0,0,0,7.19-27.44c0.05-.32.12-0.64,0.2-1a3.68,3.68,0,0,1,2,1.5c10.94,10.82,19.1,23.38,23.71,38.14a44.42,44.42,0,0,0,1.68,4.5c3,6.9,10.32,8.53,15.83,3.5,4.34-4,6.81-9.09,8.68-14.82a99.88,99.88,0,0,1,8.9,13.8c7.52,14,11.64,28.75,10.6,44.76-1.76,26.91-21.17,55.76-54.3,61.24-23.7,3.92-43.91-3.83-60.85-20.28-8.86-8.61-12.86-19.72-13.91-31.91-1.33-15.4,2.11-30.07,6.84-44.55,0.67-2,1.44-4.07,2.17-6.09A3.76,3.76,0,0,1,1024.7,1133.89Z" transform="translate(-988.96 -1040)"/><path class="cls-3" d="M1033.33,1142.84a37.21,37.21,0,0,1,5.14,9.42c1.39,3.45,3.44,4.06,6.66,2.16,11.38-6.73,18.07-17.11,22.7-29.09a119,119,0,0,0,6.08-23.18c0-.27.11-0.54,0.17-0.85a3.11,3.11,0,0,1,1.73,1.27,77.3,77.3,0,0,1,20,32.22,37.52,37.52,0,0,0,1.42,3.8c2.54,5.83,8.72,7.2,13.37,3,3.67-3.35,5.76-7.67,7.33-12.52a84.37,84.37,0,0,1,7.52,11.66c6.35,11.8,9.84,24.29,9,37.81-1.49,22.73-17.88,47.11-45.87,51.73-20,3.31-37.09-3.23-51.4-17.13-7.48-7.27-10.86-16.66-11.75-27-1.12-13,1.78-25.4,5.78-37.63,0.57-1.73,1.21-3.43,1.83-5.15A3.17,3.17,0,0,1,1033.33,1142.84Z" transform="translate(-988.96 -1040)"/><path d="M1069.94,1191.69c0.89,0,1.79,0,2.68,0a5.42,5.42,0,0,1,5.34,3.46,6.84,6.84,0,0,0,6.47,4.33c3.1,0.13,5.69-1.07,7-3.88,1.43-3,3.64-4.11,6.8-3.94,1.94,0.1,3.9,0,5.84,0,2.77,0.1,4.12,1.82,3.64,4.5a23.27,23.27,0,0,1-45,3.51c-1.81-5.28.13-8.58,5.71-8C1069,1191.73,1069.46,1191.69,1069.94,1191.69Z" transform="translate(-988.96 -1040)"/><path d="M1064.13,1163.35c0,2.43,0,4.86,0,7.29-0.07,3.38-2.08,5.38-5.47,5.46-1.7,0-3.41.06-5.1,0a4.94,4.94,0,0,1-5-4.93c-0.09-5.27-.08-10.53,0-15.8a5,5,0,0,1,5.07-5.12c1.78-.08,3.57-0.08,5.35,0a5.09,5.09,0,0,1,5.12,5.1C1064.2,1158,1064.13,1160.68,1064.13,1163.35Z" transform="translate(-988.96 -1040)"/><path d="M1121.14,1163.3c0,2.51,0,5,0,7.53a5,5,0,0,1-5.14,5.26c-1.78.06-3.57,0.07-5.35,0a5,5,0,0,1-5-4.89q-0.17-8,0-16a5,5,0,0,1,5-4.93c1.86-.08,3.73-0.1,5.59,0a5,5,0,0,1,4.89,5C1121.21,1158,1121.14,1160.63,1121.14,1163.3Z" transform="translate(-988.96 -1040)"/></svg>