<svg id="Capa_1" data-name="Capa 1" xmlns="http://www.w3.org/2000/svg" viewBox="0 0 647.49 981.86"><defs><style>.cls-1{fill:#fefefe;}.cls-2{fill:#040205;}.cls-3{fill:#fff;}.cls-4{fill:#010002;}.cls-5{fill:none;stroke:#fdfbef;stroke-linecap:round;stroke-linejoin:round;stroke-width:0.5px;}</style></defs><title>gigantrabbit</title><polyline class="cls-1" points="493.13 267.28 493.25 266.09 493.91 264.03 495.15 261.61 497.34 257.5 501.69 249.29 506.23 240.68 513.33 227.2 523.12 208.68 533.81 188.69 540.86 175.73 541.93 173.61 543.93 169.06 544.23 168.28 544.96 166.31 545.86 163.56 546.48 161.46 547.25 158.45 547.67 156.47 547.92 155.21 548.18 153.78 548.56 151.28 548.89 148.54 549.04 146.92 549.14 145.53 549.24 143.68 549.3 141.71 549.31 140.15 549.26 137.45 549.17 135.46 549.08 134.15 548.93 132.5 548.76 130.91 548.56 129.34 548.29 127.59 547.91 125.5 547.14 122.01 546.81 120.7 546.21 118.61 545.5 116.43 544.98 114.98 544.28 113.18 543.59 111.55 542.84 109.94 541.67 107.64 540.77 106.05 539.98 104.76 538.52 102.57 537.33 100.95 535.8 99.06 534.73 97.85 533.6 96.64 532.26 95.33 531.04 94.23 529.66 93.08 528.81 92.42 527.54 91.51 527.12 91.22 526.29 90.68 525.68 90.29 525.1 89.94 524.48 89.58 523.78 89.2 522.27 88.43 520.02 87.44 517.75 86.61 516.26 86.16 514.23 85.65 512.01 85.23 510.71 85.04 507.96 84.81 505.6 84.76 503.14 84.87 501.72 85 500.56 85.15 498.41 85.5 497.41 85.71 496 86.04 494.32 86.51 492.99 86.92 491.62 87.4 489.12 88.41 486.51 89.64 484.5 90.72 482.32 92.03 480.34 93.35 478.5 94.69 476.71 96.13 475.38 97.27 473.57 98.94 471.46 101.08 469.93 102.76 467.69 105.48 466.24 107.41 464.76 109.54 462.97 112.36 462.2 113.68 461.16 115.56 460 117.82 458.46 121.14 457.35 123.84 456.24 126.83 454.98 130.27 454.23 132.31 452.4 137.31 450.56 142.35 448.29 148.56 446.1 154.58 443.61 161.41 441.87 166.22 438.77 174.76 435.66 183.39 432.73 191.48 432.18 192.5 431.62 193.06 431.2 193.24 430.73 193.26"/><path class="cls-2" d="M21.28,716c1.09-57.22,11.86-111.32,27.92-164.46C73.13,472.39,105.38,397,153.06,328.94c26.88-38.38,57.37-73.32,97.07-99.14C282.28,208.89,317.22,197.17,356,200c38,2.75,71,18.28,100.84,41.26,44.26,34.14,77,78,105,125.73,47.6,81.11,80,168.07,97.84,260.33,6.6,34,10.72,68.48,8.58,103.19-6.62,107.6-54.92,191.36-145.66,249.91-43.89,28.32-92.53,44.46-144.4,48.62C269,1037.75,174.88,1004.63,100,923.22c-41.51-45.15-65.87-99-74.94-159.76C22.66,747.22,21.87,730.91,21.28,716Z" transform="translate(-21.28 -48.51)"/><path class="cls-3" d="M649.09,712c0.33,139.52-89.34,255.61-224,289.11-99,24.61-191.15,7.45-272.55-55.41C93.18,899.9,57.74,838.83,44.82,764.8c-7.31-41.87-4.33-83.49,3.31-124.8,17-92.16,48.61-179.19,95.32-260.51,23.87-41.55,51.92-80,88.22-111.79,25.25-22.11,53.16-39.36,86.7-46,39.79-7.92,75.9,1.81,109.52,22.88,36.09,22.63,64.12,53.61,88.47,88,49.4,69.74,83.24,146.89,107.3,228.56A657.11,657.11,0,0,1,647.2,676.75C648.54,689.29,649.66,701.9,649.09,712Z" transform="translate(-21.28 -48.51)"/><polyline class="cls-1" points="129.62 294.06 129.56 292.19 128.59 288.96 126.51 285.17 122.81 278.72 115.47 265.87 107.79 252.37 95.81 231.26 79.28 202.23 61.18 170.91 49.22 150.62 47.42 147.29 44.17 140.16 43.69 138.95 42.57 135.86 41.21 131.54 40.34 128.25 39.28 123.53 38.76 120.43 38.48 118.45 38.2 116.19 37.85 112.28 37.65 107.99 37.62 105.44 37.64 103.26 37.75 100.36 37.96 97.27 38.19 94.82 38.74 90.58 39.26 87.45 39.66 85.4 40.22 82.83 40.83 80.31 41.5 77.85 42.33 75.11 43.42 71.83 45.55 66.36 46.45 64.29 47.99 61.01 49.77 57.59 51.05 55.3 52.75 52.48 54.4 49.93 56.17 47.39 58.91 43.78 60.98 41.28 62.76 39.26 66.06 35.82 68.72 33.26 72.1 30.28 74.42 28.38 76.9 26.49 79.81 24.42 82.43 22.69 85.38 20.89 87.19 19.85 89.88 18.41 90.78 17.95 92.52 17.09 93.81 16.49 95.04 15.94 96.34 15.38 97.8 14.77 100.96 13.55 105.63 11.99 110.31 10.68 113.37 9.96 117.53 9.15 122.04 8.48 124.68 8.19 130.22 7.81 134.96 7.73 139.87 7.88 142.69 8.08 145 8.3 149.23 8.86 151.21 9.18 153.98 9.7 157.26 10.41 159.85 11.06 162.52 11.81 167.37 13.38 172.4 15.3 176.25 16.98 180.38 19.02 184.13 21.09 187.59 23.19 190.94 25.43 193.42 27.22 196.76 29.83 200.64 33.18 203.42 35.81 207.46 40.06 210.05 43.09 212.66 46.43 215.77 50.85 217.1 52.91 218.86 55.85 220.81 59.4 223.33 64.61 225.11 68.84 226.85 73.51 228.8 78.91 229.97 82.11 232.8 89.94 235.66 97.85 239.16 107.58 242.56 117.01 246.4 127.72 249.1 135.26 253.88 148.65 258.68 162.17 263.21 174.86 264.13 176.45 265.15 177.33 265.97 177.61 266.91 177.64"/><polygon class="cls-4" points="122.17 294.42 122.12 294.26 121.89 294.27 121.87 293.43 121.43 291.97 119.77 288.94 101.08 256.19 72.56 206.05 54.49 174.78 42.42 154.29 40.39 150.49 36.43 141.58 35.2 138.17 33.75 133.53 32.8 129.94 31.66 124.8 30.81 119.39 30.51 116.89 30.13 112.64 29.92 108.09 29.89 105.45 30.04 99.85 30.53 93.83 31.12 89.31 32.11 83.76 33.38 78.29 34.1 75.63 35 72.66 36.22 69.04 38.47 63.27 39.46 61 41.13 57.46 43.03 53.81 44.43 51.32 46.27 48.28 48.06 45.52 50.02 42.72 52.96 38.85 55.19 36.17 57.18 33.92 60.71 30.24 63.61 27.47 67.21 24.3 69.73 22.25 72.42 20.19 75.55 17.97 78.4 16.1 83.53 13.04 87.28 11.06 91.87 8.89 95.03 7.56 98.5 6.23 103.56 4.55 108.54 3.16 111.89 2.38 116.39 1.51 121.18 0.81 124.15 0.48 130.09 0.08 135.02 0 140.42 0.18 145.99 0.65 152.63 1.58 155.64 2.15 159.13 2.92 161.94 3.62 164.89 4.46 170.13 6.16 175.5 8.22 179.66 10.06 184.11 12.26 188.14 14.49 191.87 16.77 195.46 19.17 198.18 21.13 201.81 23.98 205.96 27.58 209.02 30.49 213.33 35.04 216.13 38.33 218.98 41.98 222.27 46.67 223.72 48.93 225.64 52.13 227.76 56.03 230.45 61.61 232.35 66.15 240.06 87.31 261.15 146.06 270.25 171.6 270.82 172.58 267.69 174.39 266.99 175.2 266.64 185.36 264.57 185.29 261.25 184.16 258.1 181.45 256.17 178.12 217.93 71.68 216.29 67.79 213.94 62.94 212.16 59.7 209.36 55.16 206.46 51.03 204.07 47.98 201.72 45.24 197.96 41.28 195.46 38.91 191.86 35.8 188.78 33.4 186.54 31.78 183.43 29.71 180.26 27.77 176.81 25.87 172.98 23.99 169.47 22.45 164.81 20.66 160.29 19.21 155.5 17.93 152.45 17.27 148.12 16.5 144.13 15.98 139.47 15.6 134.9 15.45 130.55 15.53 125.38 15.88 123.03 16.14 118.83 16.77 115 17.52 112.23 18.17 107.9 19.38 103.57 20.83 96.98 23.54 93.46 25.25 89.31 27.54 86.57 29.21 84.17 30.79 81.49 32.7 79.22 34.44 77.1 36.17 73.95 38.95 71.53 41.27 68.45 44.49 66.85 46.3 64.97 48.57 62.42 51.93 60.82 54.24 59.3 56.58 57.73 59.19 56.57 61.26 54.92 64.44 52.7 69.29 50.69 74.46 49.69 77.45 48.31 82.25 47.23 86.96 46.86 88.82 46.38 91.72 45.87 95.68 45.66 97.9 45.47 100.77 45.34 105.44 45.37 107.76 45.56 111.75 46.14 117.43 46.86 122.05 47.84 126.41 48.63 129.39 49.89 133.38 51.28 137.13 54.34 143.84 55.95 146.82 67.83 166.99 85.96 198.36 133.28 281.45 135.75 285.96 137.26 290.94 137.34 293.85 122.75 294.25 122.17 294.42"/><polyline class="cls-1" points="520.16 295.2 520.3 293.33 521.42 290.15 523.67 286.45 527.66 280.19 535.58 267.68 543.86 254.54 556.78 233.99 574.61 205.74 594.11 175.27 606.97 155.54 608.92 152.3 612.49 145.32 613.02 144.13 614.28 141.1 615.83 136.85 616.86 133.6 618.13 128.93 618.78 125.86 619.15 123.89 619.53 121.65 620.06 117.76 620.46 113.48 620.61 110.94 620.68 108.76 620.7 105.86 620.63 102.76 620.51 100.3 620.16 96.05 619.78 92.89 619.47 90.83 619.03 88.23 618.53 85.69 617.97 83.2 617.27 80.43 616.32 77.1 614.45 71.53 613.65 69.43 612.25 66.08 610.63 62.58 609.46 60.24 607.89 57.35 606.35 54.72 604.7 52.1 602.12 48.37 600.17 45.79 598.48 43.69 595.34 40.1 592.8 37.43 589.56 34.3 587.32 32.29 584.93 30.29 582.12 28.09 579.58 26.24 576.72 24.31 574.96 23.19 572.33 21.63 571.45 21.13 569.75 20.2 568.5 19.54 567.29 18.93 566.02 18.31 564.59 17.64 561.49 16.28 556.89 14.5 552.27 12.99 549.25 12.13 545.13 11.13 540.65 10.26 538.03 9.84 532.52 9.21 527.78 8.92 522.87 8.85 520.04 8.92 517.73 9.04 513.47 9.4 511.49 9.63 508.69 10.02 505.38 10.59 502.76 11.13 500.07 11.75 495.15 13.1 490.04 14.79 486.12 16.3 481.9 18.15 478.06 20.04 474.51 21.99 471.06 24.07 468.5 25.74 465.05 28.2 461.02 31.37 458.12 33.88 453.89 37.94 451.17 40.85 448.41 44.06 445.1 48.34 443.68 50.34 441.79 53.2 439.68 56.65 436.93 61.74 434.96 65.89 433.01 70.48 430.81 75.78 429.51 78.93 426.33 86.62 423.11 94.39 419.17 103.95 415.35 113.22 411.03 123.75 407.99 131.15 402.61 144.32 397.2 157.6 392.1 170.08 391.11 171.63 390.05 172.46 389.22 172.7 388.28 172.69"/><polygon class="cls-4" points="527.59 295.9 527.01 295.69 512.46 294.64 512.67 291.74 514.4 286.83 517.15 282.31 537.32 250.42 568.08 201.62 587.6 171.11 600.42 151.44 602.16 148.54 605.93 141.07 607.08 138.29 608.51 134.36 609.44 131.42 610.62 127.11 611.55 122.53 611.9 120.49 612.39 116.88 612.76 112.91 612.96 108.6 612.98 105.92 612.8 100.82 612.47 96.83 611.84 92.04 610.97 87.28 610.46 84.99 609.81 82.43 608.94 79.39 607.18 74.15 606.47 72.3 605.18 69.19 603.67 65.94 602.61 63.82 601.16 61.14 599.75 58.74 598.25 56.36 595.86 52.89 594.08 50.54 592.56 48.65 589.63 45.3 587.32 42.87 584.3 39.95 582.26 38.13 580.07 36.29 577.47 34.26 575.15 32.57 570.91 29.77 566.04 26.97 561.41 24.68 558.54 23.43 554.29 21.78 550.01 20.38 547.28 19.6 543.48 18.68 539.31 17.86 536.99 17.5 531.84 16.91 527.49 16.64 522.91 16.58 518.25 16.75 512.47 17.29 509.88 17.66 506.81 18.18 501.96 19.24 497.38 20.49 492.65 22.06 489.06 23.44 485.16 25.15 481.63 26.9 478.36 28.68 475.17 30.61 472.86 32.13 469.67 34.39 465.94 37.33 463.33 39.59 459.39 43.37 456.92 46.01 454.4 48.94 451.31 52.94 450.05 54.71 448.31 57.34 446.38 60.5 443.81 65.24 442 69.05 433.46 89.57 409.76 147.24 398.98 173.65 396.9 176.9 393.64 179.46 390.27 180.44 388.19 180.41 388.31 170.25 387.66 169.42 384.61 167.46 385.22 166.5 427.98 62.57 430.13 58.06 433.09 52.63 435.35 48.92 437.38 45.87 438.99 43.61 442.55 39.03 445.54 35.56 448.54 32.37 453.06 28.04 456.24 25.3 460.57 21.9 464.27 19.28 467.07 17.46 470.8 15.21 474.64 13.12 478.8 11.07 483.34 9.09 487.61 7.45 493.11 5.64 498.32 4.22 501.23 3.55 504.07 2.98 507.62 2.37 512.82 1.7 517.34 1.33 519.85 1.2 522.82 1.13 528.26 1.21 533.4 1.54 539.23 2.21 542.13 2.67 546.96 3.63 551.36 4.7 554.69 5.65 559.67 7.3 564.58 9.2 570.68 11.98 576.29 14.99 581.04 17.91 584.12 19.99 586.88 22 589.9 24.37 592.47 26.53 594.93 28.74 598.39 32.1 601.16 35.01 604.49 38.84 606.34 41.13 608.48 43.99 611.23 47.98 613.01 50.82 614.68 53.67 616.36 56.77 617.64 59.34 619.38 63.12 621.77 69.07 623.75 74.98 624.76 78.54 626.11 84.2 627.12 89.7 627.45 91.97 627.85 95.4 628.23 99.92 628.36 102.59 628.43 105.81 628.32 111.38 628.15 114.2 627.72 118.8 627.15 122.94 626.34 127.46 625.58 130.97 624.22 135.92 623.09 139.49 621.41 144.06 619.36 148.84 615.54 156.27 613.44 159.76 600.58 179.49 581.12 209.91 528.44 293.48 527.93 294.92 527.87 295.76 527.64 295.74 527.59 295.9"/><polyline class="cls-1" points="162.69 267.28 162.56 266.09 161.91 264.03 160.67 261.61 158.48 257.5 154.13 249.29 149.59 240.68 142.49 227.2 132.7 208.68 122 188.69 114.96 175.73 113.88 173.61 111.89 169.06 111.58 168.28 110.86 166.31 109.95 163.56 109.34 161.46 108.56 158.45 108.14 156.47 107.9 155.21 107.64 153.78 107.26 151.28 106.93 148.54 106.78 146.92 106.67 145.53 106.58 143.68 106.52 141.71 106.5 140.15 106.55 137.45 106.65 135.46 106.74 134.15 106.88 132.5 107.06 130.91 107.26 129.34 107.53 127.59 107.9 125.5 108.67 122.01 109.01 120.7 109.61 118.61 110.31 116.43 110.83 114.98 111.53 113.18 112.22 111.55 112.97 109.94 114.15 107.64 115.05 106.05 115.83 104.76 117.3 102.57 118.49 100.95 120.02 99.06 121.08 97.85 122.22 96.64 123.56 95.33 124.78 94.23 126.16 93.08 127.01 92.42 128.27 91.51 128.7 91.22 129.52 90.68 130.13 90.29 130.72 89.94 131.34 89.58 132.03 89.2 133.55 88.43 135.8 87.44 138.06 86.61 139.56 86.16 141.59 85.65 143.81 85.23 145.11 85.04 147.85 84.81 150.22 84.76 152.68 84.87 154.1 85 155.26 85.15 157.4 85.5 158.41 85.71 159.82 86.04 161.49 86.51 162.82 86.92 164.19 87.4 166.7 88.41 169.31 89.64 171.32 90.72 173.49 92.03 175.47 93.35 177.31 94.69 179.11 96.13 180.44 97.27 182.25 98.94 184.36 101.08 185.89 102.76 188.13 105.48 189.58 107.41 191.06 109.54 192.85 112.36 193.62 113.68 194.66 115.56 195.82 117.82 197.35 121.14 198.46 123.84 199.58 126.83 200.84 130.27 201.59 132.31 203.42 137.31 205.26 142.35 207.53 148.56 209.72 154.58 212.21 161.41 213.95 166.22 217.05 174.76 220.16 183.39 223.09 191.48 223.64 192.5 224.19 193.06 224.62 193.24 225.09 193.26"/><polygon class="cls-4" points="525.63 283.37 531.77 287.11 526.58 298.71 520.75 292.06 525.63 283.37"/><polygon class="cls-1" points="135.11 285.25 137.06 289.89 140.7 300.78 153.41 304.04 181.24 256.94 175.87 252.3 135.11 285.25"/><polygon class="cls-1" points="215.8 197.64 228.36 189.27 252.21 182.16 260.58 183.21 264.58 183.46 270.16 181.12 274.67 179.41 281.71 194.92 233.17 212.29 215.8 197.64"/><path class="cls-1" d="M420.47,222l-7.06,8.39a5,5,0,0,0-.5.82l-5.68,9.59c-0.53,1.28,1.61,3.45,2.75,4.24l48.56,33.69a3,3,0,0,0,1.68.53h21.08a3,3,0,0,0,2.44-4.63L464.13,246a3,3,0,0,0-3.81-.95l-0.58.3a3,3,0,0,1-2.92-.1l0.12-.52c-0.2-.12-1.49-0.35-1.66-0.52L449.81,238c-0.19-.19-0.68.15-0.91,0l-26.67-14.86C420.93,222.43,421.36,220.77,420.47,222Z" transform="translate(-21.28 -48.51)"/><path class="cls-5" d="M431.65,232.61" transform="translate(-21.28 -48.51)"/><path d="M345.23,564.59c4.21,0,8.42-.12,12.63,0,7.81,0.28,14.17,5.06,16.33,12.06s0.09,15.24-6.53,19.18c-5.33,3.17-3.66,5.83-1.08,9.09,5.13,6.47,11.95,8.85,19.94,7.25a19.19,19.19,0,0,0,14.9-15.85c0.31-1.84.39-3.72,0.69-5.57,1.63-10.06,9.41-16.13,19.3-15.11,9.33,1,15.72,8.34,15.38,18.44-0.74,21.45-10.71,37.68-29.62,47.46-19.2,9.93-38.47,8.52-56.29-3.89-4.48-3.12-6.85-3.54-11.61-.16-17.18,12.2-36,13.93-55,4.74-19.23-9.29-29.59-25.13-31-46.52-0.77-11.29,5.69-19.33,15.8-20.12,10.34-.81,18.47,5.65,18.85,17C288.41,608,304.8,618,318,609.7a22.81,22.81,0,0,0,5.64-5.15c2.39-3,3.81-5.57-1.15-8.55-6.88-4.13-9-12.46-6.57-19.75,2.37-7,8.65-11.42,16.64-11.64C336.81,564.49,341,564.59,345.23,564.59Z" transform="translate(-21.28 -48.51)"/><path d="M503.79,487.1a32.78,32.78,0,1,1-33.73,31.37C470.64,500.69,485.72,486.67,503.79,487.1Z" transform="translate(-21.28 -48.51)"/><path d="M187.12,487.08a32.79,32.79,0,1,1-33,32.93A32.76,32.76,0,0,1,187.12,487.08Z" transform="translate(-21.28 -48.51)"/><polygon class="cls-4" points="497.32 267.72 488.94 266.85 489.11 265.22 490.16 262.11 491.4 259.69 530.1 186.7 538.12 171.81 540.31 166.75 540.98 164.93 541.84 162.31 542.43 160.28 543.15 157.49 544.03 153.03 544.4 150.64 544.94 145.22 545.1 140.11 544.88 134.44 544.38 129.88 543.78 126.33 542.73 121.75 542.18 119.84 541.01 116.39 539.72 113.2 539.06 111.78 537.96 109.64 536.43 107.04 535.07 104.99 533.99 103.52 531.62 100.68 529.37 98.4 527.02 96.37 524.74 94.7 521.81 92.93 520.46 92.24 518.45 91.35 516.42 90.61 515.13 90.22 513.32 89.76 510.23 89.23 507.74 89.02 505.65 88.98 502.11 89.2 501.17 89.31 498.26 89.83 495.52 90.55 493.11 91.35 490.8 92.27 488.4 93.4 486.58 94.39 484.58 95.59 482.76 96.8 481.06 98.04 478.18 100.42 476.5 101.97 474.52 103.97 473.12 105.52 471 108.09 469.65 109.88 468.27 111.87 465.83 115.81 464.85 117.59 463.79 119.66 462.33 122.83 461.28 125.38 445.83 167.65 436.44 193.47 435.6 195.03 434.03 196.62 432.14 197.41 430.92 197.47 430.68 192.13 429.74 191.19 428.47 190.51 428.67 190.13 428.63 190.09 428.87 189.76 453.46 122.24 454.64 119.38 456.25 115.9 458.51 111.64 459.41 110.11 461.3 107.14 462.87 104.88 464.44 102.8 466.81 99.93 468.46 98.12 470.71 95.84 474.08 92.83 476.02 91.3 478 89.84 480.15 88.41 482.5 87.01 484.71 85.83 487.55 84.5 491.6 82.95 495.03 81.94 497.72 81.35 501.2 80.82 502.96 80.66 505.55 80.55 508.32 80.61 511.29 80.87 512.8 81.09 515.26 81.56 517.49 82.13 519.2 82.66 521.72 83.58 524.18 84.67 527.86 86.68 529.92 88.03 532.36 89.84 535.2 92.32 537.9 95.06 539.08 96.41 540.72 98.45 542.02 100.23 544.36 103.86 545.42 105.72 546.67 108.17 548.16 111.53 549.47 115.01 550.26 117.45 551.26 121.11 552.06 124.76 552.72 128.7 553.12 132.05 553.37 135.16 553.47 137.25 553.53 140.07 553.45 143.81 553.08 148.93 552.74 151.78 551.81 157.28 551.33 159.51 549.87 164.88 548.91 167.77 547.79 170.75 545.69 175.51 544.62 177.63 537.51 190.7 526.84 210.66 497.82 265.64 497.4 266.96 497.32 267.72"/><polygon class="cls-1" points="428.39 247.57 454.25 223.94 490.02 264.68 499.38 265.9 515.45 283.37 506.4 312.78 428.39 247.57"/><polygon class="cls-4" points="158.5 267.72 158.42 266.96 158 265.64 156.91 263.53 118.29 190.67 111.26 177.75 110.03 175.3 107.66 169.82 106.86 167.63 105.91 164.74 105.3 162.64 104.44 159.33 103.49 154.52 103.09 151.92 102.47 145.84 102.31 141.84 102.29 140.18 102.53 133.86 103.08 128.79 103.79 124.6 104.93 119.65 105.6 117.31 106.86 113.56 108.35 109.9 109.22 108.02 110.48 105.56 112.33 102.42 113.9 100.08 115.21 98.31 118.02 94.95 119.27 93.63 122.09 90.99 124.43 89.09 128.55 86.33 130.13 85.44 131.85 84.58 134.36 83.48 136.84 82.58 138.53 82.07 140.8 81.51 144.75 80.84 147.78 80.59 150.27 80.55 153.07 80.67 155.95 80.99 159.26 81.58 162.76 82.49 165.76 83.49 168.5 84.6 171.31 85.93 173.49 87.11 175.83 88.52 177.96 89.95 179.94 91.4 183.3 94.17 185.24 95.97 187.48 98.25 189.13 100.08 191.5 102.94 193.04 105 194.62 107.29 197.25 111.55 198.34 113.52 199.64 116.05 201.25 119.54 202.41 122.37 217.91 164.78 227.06 189.97 227.19 190.09 227.15 190.13 227.35 190.51 226.08 191.19 225.13 192.13 224.9 197.47 223.67 197.41 221.78 196.61 220.21 195.03 219.13 192.92 194.54 125.38 193.49 122.83 192.03 119.66 189.93 115.72 189.25 114.56 187.55 111.87 186.16 109.88 184.82 108.09 182.7 105.52 181.3 103.97 179.31 101.97 176.42 99.37 174.75 98.04 173.06 96.8 171.24 95.59 169.24 94.39 167.41 93.4 165.02 92.27 161.43 90.9 158.77 90.13 156.64 89.65 153.57 89.18 152.4 89.07 150.17 88.98 148.07 89.02 144.49 89.39 142.5 89.76 139.4 90.61 137.37 91.35 135.35 92.24 131.76 94.25 128.8 96.37 126.45 98.4 124.2 100.68 123.25 101.77 121.83 103.52 120.75 104.99 118.68 108.19 117.86 109.64 116.05 113.32 114.76 116.51 113.64 119.84 112.77 122.99 112.03 126.33 111.42 129.97 110.94 134.51 110.76 137.65 110.72 140.23 110.79 143.56 111.12 148.16 111.44 150.78 112.28 155.66 112.67 157.49 113.98 162.31 115.78 167.44 117.7 171.81 118.72 173.83 125.71 186.67 136.41 206.69 165.92 262.75 166.71 265.22 166.88 266.85 158.5 267.72"/></svg>