<svg id="Capa_1" data-name="Capa 1" xmlns="http://www.w3.org/2000/svg" viewBox="0 0 708.53 264.25"><defs><style>.cls-1{fill:#af98b6;}.cls-2{fill:#a1eeba;}.cls-3{fill:#fce58c;}.cls-4{fill:#f1a5cb;}.cls-5{fill:#828487;}.cls-6{fill:#ef5476;}.cls-7{fill:#818386;}</style></defs><title>tittle</title><path class="cls-1" d="M-275.4,756.62L-275.77,785h7.24q7.42-.18,13.21-0.18t12.85,0.18h0.91c1.45,0,2.86,0,4.25.09s2.74,0.09,4.07.09a30.25,30.25,0,0,1,4.16.63q2,0.45,4,1a12.28,12.28,0,0,1,5.07,3.26,8.42,8.42,0,0,1,1.81,5.25v2.08a5.57,5.57,0,0,1-.36,2.08,6.13,6.13,0,0,1-2.35,3.62,5.46,5.46,0,0,1-3.44,1.81,21.46,21.46,0,0,1-4.71.91,24.19,24.19,0,0,1-5.07.54h-8.5l-33.49.18-0.36,35.48,36,0.36h11.22a14.45,14.45,0,0,1,2.36.18,15.56,15.56,0,0,0,2.62.45,9.47,9.47,0,0,1,2.26.45,10.5,10.5,0,0,1,3.62,2,8.66,8.66,0,0,1,2.36,3.8c0.12,0.6.21,1.24,0.27,1.9a8.12,8.12,0,0,1-.09,2.08,8.41,8.41,0,0,1-1.81,5.25,9.71,9.71,0,0,1-5.07,3.26,20.94,20.94,0,0,1-8.33,1.63c-1.33.12-2.72,0.18-4.16,0.18s-2.84.06-4.16,0.18h-1.09q-14.12.36-29.32,0-3.62,0-5.79-.09t-3.89-.09h-8.24a10.45,10.45,0,0,1-6.87-1.45,8.45,8.45,0,0,1-3.08-3.44,1.57,1.57,0,0,1-.55-1.09,2.15,2.15,0,0,0-.36-0.54,1.92,1.92,0,0,1-.36-0.54,9.4,9.4,0,0,1-.55-1.9,10.43,10.43,0,0,1-.18-1.9c-0.12-.6-0.21-1.21-0.27-1.81s-0.15-1.21-.27-1.81v-2.9a12,12,0,0,1,.09-1.45,11.85,11.85,0,0,0,.09-1.45V829.21l0.36-26.07V779.06q0-6.51.09-11.58t0.27-11v-0.9c0.12-1.33.21-2.56,0.27-3.71s0.09-2.32.09-3.53a16.78,16.78,0,0,1,2-7.06,16.33,16.33,0,0,1,1.54-2.53,6.23,6.23,0,0,1,2.26-1.81,10.74,10.74,0,0,1,5.61-1.63,9.7,9.7,0,0,1,2.18.18v-0.18h9.14c1.27,0,2.63,0,4.08-.09s3.44-.09,6-0.09q7.24-.18,13.76-0.18t13.4,0.18h0.72q2,0.18,4.16.18c1.45,0,2.83.06,4.16,0.18a18.08,18.08,0,0,1,4,.45,33.74,33.74,0,0,1,4,1.18,10.88,10.88,0,0,1,5.07,3.08,9.32,9.32,0,0,1,1.63,5.07v2.08a5.07,5.07,0,0,1-.36,1.9,6.54,6.54,0,0,1-2.17,3.8,14.3,14.3,0,0,0-1.54.91,8,8,0,0,1-1.9.91,9.33,9.33,0,0,1-2.26.45c-0.79.06-1.54,0.15-2.26,0.27a10.85,10.85,0,0,1-2.63.36H-239.2l-36.2.18v0.54Z" transform="translate(300.2 -734.9)"/><path class="cls-1" d="M-125.71,828.84q0,5.8-.27,12.49t-0.63,12.49a108.74,108.74,0,0,1-.55,10.86,88.79,88.79,0,0,1-1.44,10.23,52.25,52.25,0,0,1-3.08,10.23,32.89,32.89,0,0,1-6.88,10.59,25.15,25.15,0,0,1-11.23,6.43,71.14,71.14,0,0,1-10.86,1.9,51.11,51.11,0,0,1-10.86-.27,42.87,42.87,0,0,1-8.15-2.08,42.3,42.3,0,0,1-8.15-3.89,31.58,31.58,0,0,1-6.7-5.52,17.18,17.18,0,0,1-4-7.15,15.06,15.06,0,0,1-.09-8.51,9.38,9.38,0,0,1,3.71-5.25,6.79,6.79,0,0,1,6-.54q3.43,1.09,6.52,5.61A15.33,15.33,0,0,0-176,881.7a24.83,24.83,0,0,0,8.87,2.35,22.4,22.4,0,0,0,9.14-1.18,13.43,13.43,0,0,0,7-5.34,19.87,19.87,0,0,0,2.63-7.78,81.86,81.86,0,0,0,1-10,38.66,38.66,0,0,1-18.92,2.81,40,40,0,0,1-17.55-6,37.55,37.55,0,0,1-12.67-13.4,33.17,33.17,0,0,1-4.07-19.1,53.5,53.5,0,0,1,3.89-17.38,30.56,30.56,0,0,1,11.13-13.58,35.46,35.46,0,0,1,14.3-5.7,91.41,91.41,0,0,1,15.38-1.36h8.6a27.33,27.33,0,0,1,7.88,1.09,17.44,17.44,0,0,1,6.52,3.62,15.4,15.4,0,0,1,4.35,7.42,58,58,0,0,1,2.62,15Q-125.7,820.7-125.71,828.84Zm-34.93,15a16.94,16.94,0,0,0,3.53-.36,30.23,30.23,0,0,0,3.35-.9,10.47,10.47,0,0,0,4.62-2.9,9.65,9.65,0,0,0,2.08-4.07,18.63,18.63,0,0,0,.46-5q-0.1-2.72-.09-5.61,0-2.35-.09-5.25a53.63,53.63,0,0,0-.45-5.52,23,23,0,0,0-1.09-4.62,3.9,3.9,0,0,0-2.17-2.53,30.31,30.31,0,0,0-5.79-1,39,39,0,0,0-6.52,0,26.68,26.68,0,0,0-6.25,1.27,15.48,15.48,0,0,0-5,2.62,15.47,15.47,0,0,0-4.16,5.79,22.53,22.53,0,0,0-1.72,7.24,25.47,25.47,0,0,0,.54,7.42,17,17,0,0,0,3,6.52,14.27,14.27,0,0,0,6.88,5.25A25,25,0,0,0-160.64,843.87Z" transform="translate(300.2 -734.9)"/><path class="cls-1" d="M-35.93,828.84q0,5.8-.27,12.49t-0.63,12.49a108.74,108.74,0,0,1-.55,10.86,88.79,88.79,0,0,1-1.44,10.23,52.25,52.25,0,0,1-3.08,10.23,32.89,32.89,0,0,1-6.88,10.59A25.15,25.15,0,0,1-60,902.15a71.14,71.14,0,0,1-10.86,1.9,51.11,51.11,0,0,1-10.86-.27,42.87,42.87,0,0,1-8.15-2.08A42.3,42.3,0,0,1-98,897.81a31.58,31.58,0,0,1-6.7-5.52,17.18,17.18,0,0,1-4-7.15,15.06,15.06,0,0,1-.09-8.51,9.38,9.38,0,0,1,3.71-5.25,6.79,6.79,0,0,1,6-.54q3.43,1.09,6.52,5.61a15.33,15.33,0,0,0,6.33,5.25,24.83,24.83,0,0,0,8.87,2.35,22.4,22.4,0,0,0,9.14-1.18,13.43,13.43,0,0,0,7-5.34,19.87,19.87,0,0,0,2.63-7.78,81.86,81.86,0,0,0,1-10,38.66,38.66,0,0,1-18.92,2.81,40,40,0,0,1-17.55-6,37.55,37.55,0,0,1-12.67-13.4,33.17,33.17,0,0,1-4.07-19.1A53.5,53.5,0,0,1-107,806.76a30.56,30.56,0,0,1,11.13-13.58,35.46,35.46,0,0,1,14.3-5.7,91.41,91.41,0,0,1,15.38-1.36h8.6a27.33,27.33,0,0,1,7.88,1.09,17.44,17.44,0,0,1,6.52,3.62,15.4,15.4,0,0,1,4.35,7.42,58,58,0,0,1,2.62,15Q-35.92,820.7-35.93,828.84Zm-34.93,15a16.94,16.94,0,0,0,3.53-.36,30.23,30.23,0,0,0,3.35-.9,10.47,10.47,0,0,0,4.62-2.9,9.65,9.65,0,0,0,2.08-4.07,18.63,18.63,0,0,0,.46-5q-0.1-2.72-.09-5.61,0-2.35-.09-5.25a53.63,53.63,0,0,0-.45-5.52,23,23,0,0,0-1.09-4.62,3.9,3.9,0,0,0-2.17-2.53,30.31,30.31,0,0,0-5.79-1,39,39,0,0,0-6.52,0,26.68,26.68,0,0,0-6.25,1.27,15.48,15.48,0,0,0-5,2.62,15.47,15.47,0,0,0-4.16,5.79,22.53,22.53,0,0,0-1.72,7.24,25.47,25.47,0,0,0,.54,7.42,17,17,0,0,0,3,6.52,14.27,14.27,0,0,0,6.88,5.25A25,25,0,0,0-70.86,843.87Z" transform="translate(300.2 -734.9)"/><path class="cls-1" d="M112.17,815.85a17.15,17.15,0,0,1,.18,2.35v9.59l-1.09,93.95v1.81a15,15,0,0,1-.54,3.26,13.43,13.43,0,0,1-.55,1.9c-0.25.66-.48,1.36-0.72,2.08a7,7,0,0,1-2.54,3.26,8.54,8.54,0,0,1-4.7,2,14,14,0,0,1-9.23-.91,7.77,7.77,0,0,1-3.26-3.62,4.13,4.13,0,0,1-.72-1.09,2.81,2.81,0,0,0-.36-1.09,9.72,9.72,0,0,1-.54-1.9c-0.12-.66-0.25-1.36-0.36-2.08a17.26,17.26,0,0,0-.09-1.81c-0.06-.6-0.15-1.2-0.27-1.81a4.3,4.3,0,0,1-.36-1.54v-1.54a6.86,6.86,0,0,0,.36-2.72l0.18-14.3,0.18-22.81H78L41.21,879l-0.36,42.72v1.81a14.82,14.82,0,0,1-.55,3.26,12.76,12.76,0,0,1-.54,1.9c-0.25.66-.49,1.36-0.73,2.08a7,7,0,0,1-2.53,3.26,8.54,8.54,0,0,1-4.7,2,14,14,0,0,1-9.23-.91,11.11,11.11,0,0,1-3.44-3.62,2.74,2.74,0,0,1-.36-1.09l-0.55-1.09a10.08,10.08,0,0,1-.55-1.9c-0.12-.66-0.24-1.36-0.36-2.08a9.47,9.47,0,0,0-.18-1.81c-0.12-.6-0.25-1.2-0.36-1.81a12.88,12.88,0,0,1,0-3.08V916L17,901.65,17.32,875q0.18-5.79.18-11.95V850.42q-0.18-6.51-.09-11.58t0.45-11.4v-0.72A36.63,36.63,0,0,0,18,823c0-1.27.06-2.56,0.18-3.89a22.15,22.15,0,0,1,.63-3.53,17.93,17.93,0,0,1,1.36-3.53,7.34,7.34,0,0,1,1.45-2.44,13.61,13.61,0,0,1,2.17-1.9,12.88,12.88,0,0,1,5.79-1.45q1.44,0,2.53.09c0.72,0.06,1.45.15,2.17,0.27a6.74,6.74,0,0,1,4.16,2.17,6.59,6.59,0,0,1,2,2.9,16.48,16.48,0,0,1,1.09,4.16,17.15,17.15,0,0,1,.18,2.35v9.59l-0.36,29.87h3.35c1.27,0,2.74-.06,4.43-0.18q9.41,0,18.73.18t19.64,0.18h0.18q0-8.15.09-15.57t0.45-15.57q0-1.81.09-3.71c0.06-1.27.15-2.56,0.27-3.89a22.72,22.72,0,0,1,.63-3.53,17.93,17.93,0,0,1,1.36-3.53A5.14,5.14,0,0,1,92,809.61a13.83,13.83,0,0,1,2.45-1.9,11.13,11.13,0,0,1,5.61-1.45q1.44,0,2.62.09a18.45,18.45,0,0,1,2.08.27,6.7,6.7,0,0,1,4.16,2.17,4.69,4.69,0,0,1,2,2.9c0.24,0.72.46,1.42,0.63,2.08S111.93,815.13,112.17,815.85Z" transform="translate(300.2 -734.9)"/><path class="cls-1" d="M201.23,892.06q-0.36,6-.72,12a57.39,57.39,0,0,1-1.9,11.67,32.51,32.51,0,0,1-4.71,10.14,22,22,0,0,1-9,7.24,38.92,38.92,0,0,1-10.86,3.53,57.88,57.88,0,0,1-11.58.81,46.38,46.38,0,0,1-11.23-1.72,37.66,37.66,0,0,1-9.78-4.25,21.85,21.85,0,0,1-7.06-7.06,39,39,0,0,1-4.26-9.41,54.83,54.83,0,0,1-2.08-10.5q-0.54-5.43-.72-10.14a208,208,0,0,1,0-24.62v-5.34a37.72,37.72,0,0,1,.45-5.88,21.14,21.14,0,0,1,1.54-5.34,7.46,7.46,0,0,1,3.62-3.71q5.43-2.89,10-.36t5.52,10.5a63.11,63.11,0,0,1,.45,9.23,88.16,88.16,0,0,0,.27,9.23q0.18,6.15.36,13.3a43,43,0,0,0,2.08,12.76,15.39,15.39,0,0,0,6.33,8.42q4.43,2.81,13.31.27,4.16-1.26,5.52-6.33t1.36-15q0-4.35-.18-9.59t-0.18-10.41q0-5.16.27-9.59a31,31,0,0,1,1-6.79,7.77,7.77,0,0,1,3.8-4.89,13.12,13.12,0,0,1,6.16-1.72,12.79,12.79,0,0,1,6.15,1.36,7.78,7.78,0,0,1,4,4.71,29.87,29.87,0,0,1,1.54,7.33q0.45,4.44.63,9.59T201.5,882Q201.41,887.35,201.23,892.06Z" transform="translate(300.2 -734.9)"/><path class="cls-1" d="M220.05,870.52q0-4.16-.09-8.87a20.34,20.34,0,0,1,1.54-8.51,9.24,9.24,0,0,1,4.8-5,9.4,9.4,0,0,1,6.61-.63,10.89,10.89,0,0,1,5.07,2,8.66,8.66,0,0,1,2.62,3.35,13.51,13.51,0,0,1,1,4.34q0.18,2.45.36,4.8a16,16,0,0,1,4.52-5.25,29.48,29.48,0,0,1,5.61-3.26,28.11,28.11,0,0,1,5.52-1.81,21.68,21.68,0,0,1,4.08-.54,33.65,33.65,0,0,1,13.67,3,30.42,30.42,0,0,1,11.31,8.42,26.73,26.73,0,0,1,3.89,6.79,37.66,37.66,0,0,1,2,7.33,65.65,65.65,0,0,1,.82,7.69q0.18,3.9.36,7.87a146.08,146.08,0,0,1,0,23q-0.18,2.35-.18,5.43a40.7,40.7,0,0,1-.45,6.06,16.78,16.78,0,0,1-1.63,5.25,5.3,5.3,0,0,1-3.89,2.81,15.61,15.61,0,0,1-6.24.45,8,8,0,0,1-3.89-1.72,7.68,7.68,0,0,1-2.17-3.26,33.17,33.17,0,0,1-1.27-4.52q-0.37-2-.63-4.62T273,915.77q-0.1-2.71-.18-5.34c-0.06-1.75-.09-3.35-0.09-4.8q0-3.44-.18-7.6t0-7.79q0-8.5-4.43-12.94t-12-3.71a18.24,18.24,0,0,0-10.13,4.62,12.34,12.34,0,0,0-4.16,10v4.35q0,2-.09,4t-0.09,4.34v17.83A30,30,0,0,1,240,929.53a9.53,9.53,0,0,1-4.89,6q-3.44,1.63-8.15-.9a8.33,8.33,0,0,1-3.17-3,16.4,16.4,0,0,1-1.81-4.07,22.19,22.19,0,0,1-.82-4.43c-0.12-1.51-.24-2.92-0.36-4.25q-0.55-6-.63-11.13t-0.09-11.13V870.52Z" transform="translate(300.2 -734.9)"/><path class="cls-1" d="M378.8,855.31a11.25,11.25,0,0,1,.27,7.6q-1.18,4.17-4.25,5.43a18.34,18.34,0,0,1-4.35,1.18q-2.72.45-5.88,0.81t-6.25.55q-3.08.18-5.25,0.18,0.18,5.43.36,11.13t0.36,11.13q0.18,5.43.18,10.41t-0.18,9v6.24a49.65,49.65,0,0,1-.46,6.79,27.15,27.15,0,0,1-1.36,5.7,5,5,0,0,1-2.72,3.17A17.06,17.06,0,0,1,339.07,936q-4.62-1-6.6-3.89a18.12,18.12,0,0,1-2.18-5.52,46,46,0,0,1-1-6.52,59.73,59.73,0,0,1-.18-6.52q0.09-3.17.09-5.52,0.18-7.6.27-17.29t0.09-19.46h-2.72q-2.17,0-5.52-.09a62.17,62.17,0,0,1-6.7-.54,45.12,45.12,0,0,1-6.24-1.27,7.71,7.71,0,0,1-4.16-2.44,10.41,10.41,0,0,1-2.45-5.07,10.52,10.52,0,0,1,.36-5.16,11.47,11.47,0,0,1,2.62-4.35,8.26,8.26,0,0,1,4.16-2.44,38.7,38.7,0,0,1,9.23-1q6-.09,11.23.09a34.77,34.77,0,0,1-.18-3.53,31,31,0,0,0-.18-3.35q-0.18-2.17-.18-5.52a50.35,50.35,0,0,1,.45-6.7,30.1,30.1,0,0,1,1.54-6.33,10.36,10.36,0,0,1,3.07-4.62,10.48,10.48,0,0,1,5.52-2.45,10.29,10.29,0,0,1,5.25.82,11.32,11.32,0,0,1,4.16,3.17,12.67,12.67,0,0,1,2.44,4.62,43.36,43.36,0,0,1,.91,5.16q0.36,3,.45,6.24t0.09,6.52v6h1.81c1.81,0,3.92-.06,6.33-0.18A47.43,47.43,0,0,1,368,849a19.84,19.84,0,0,1,6.43,1.72A8.82,8.82,0,0,1,378.8,855.31Z" transform="translate(300.2 -734.9)"/><path class="cls-2" d="M-271.24,761.86l-0.36,28.42h7.24q7.42-.18,13.21-0.18t12.85,0.18h0.91c1.45,0,2.86,0,4.25.09s2.74,0.09,4.07.09a30.25,30.25,0,0,1,4.16.63q2,0.45,4,1a12.28,12.28,0,0,1,5.07,3.26A8.42,8.42,0,0,1-214,800.6v2.08a5.57,5.57,0,0,1-.36,2.08,6.13,6.13,0,0,1-2.35,3.62,5.46,5.46,0,0,1-3.44,1.81,21.46,21.46,0,0,1-4.71.91,24.19,24.19,0,0,1-5.07.54h-8.5l-33.49.18-0.36,35.48,36,0.36h11.22a14.45,14.45,0,0,1,2.36.18,15.56,15.56,0,0,0,2.62.45,9.47,9.47,0,0,1,2.26.45,10.5,10.5,0,0,1,3.62,2,8.66,8.66,0,0,1,2.36,3.8c0.12,0.6.21,1.24,0.27,1.9a8.12,8.12,0,0,1-.09,2.08,8.41,8.41,0,0,1-1.81,5.25,9.71,9.71,0,0,1-5.07,3.26,20.94,20.94,0,0,1-8.33,1.63c-1.33.12-2.72,0.18-4.16,0.18s-2.84.06-4.16,0.18h-1.09q-14.12.36-29.32,0-3.62,0-5.79-.09t-3.89-.09h-8.24a10.45,10.45,0,0,1-6.87-1.45A8.45,8.45,0,0,1-293.5,864a1.57,1.57,0,0,1-.55-1.09,2.15,2.15,0,0,0-.36-0.54,1.92,1.92,0,0,1-.36-0.54,9.4,9.4,0,0,1-.55-1.9,10.43,10.43,0,0,1-.18-1.9c-0.12-.6-0.21-1.21-0.27-1.81s-0.15-1.21-.27-1.81v-2.9a12,12,0,0,1,.09-1.45,11.85,11.85,0,0,0,.09-1.45V834.45l0.36-26.07V784.3q0-6.51.09-11.58t0.27-11v-0.9c0.12-1.33.21-2.56,0.27-3.71s0.09-2.32.09-3.53a16.78,16.78,0,0,1,2-7.06,16.33,16.33,0,0,1,1.54-2.53,6.23,6.23,0,0,1,2.26-1.81,10.74,10.74,0,0,1,5.61-1.63,9.7,9.7,0,0,1,2.18.18V740.5h9.14c1.27,0,2.63,0,4.08-.09s3.44-.09,6-0.09q7.24-.18,13.76-0.18t13.4,0.18h0.72q2,0.18,4.16.18c1.45,0,2.83.06,4.16,0.18a18.08,18.08,0,0,1,4,.45,33.74,33.74,0,0,1,4,1.18,10.88,10.88,0,0,1,5.07,3.08,9.32,9.32,0,0,1,1.63,5.07v2.08a5.07,5.07,0,0,1-.36,1.9,6.54,6.54,0,0,1-2.17,3.8,14.3,14.3,0,0,0-1.54.91,8,8,0,0,1-1.9.91,9.33,9.33,0,0,1-2.26.45c-0.79.06-1.54,0.15-2.26,0.27a10.85,10.85,0,0,1-2.63.36H-235l-36.2.18v0.54Z" transform="translate(300.2 -734.9)"/><path class="cls-2" d="M-121.54,834.08q0,5.8-.27,12.49t-0.63,12.49a108.74,108.74,0,0,1-.55,10.86,88.79,88.79,0,0,1-1.44,10.23,52.25,52.25,0,0,1-3.08,10.23A32.89,32.89,0,0,1-134.39,901a25.15,25.15,0,0,1-11.23,6.43,71.14,71.14,0,0,1-10.86,1.9,51.11,51.11,0,0,1-10.86-.27,42.87,42.87,0,0,1-8.15-2.08,42.3,42.3,0,0,1-8.15-3.89,31.58,31.58,0,0,1-6.7-5.52,17.18,17.18,0,0,1-4-7.15,15.06,15.06,0,0,1-.09-8.51,9.38,9.38,0,0,1,3.71-5.25,6.79,6.79,0,0,1,6-.54q3.43,1.09,6.52,5.61a15.33,15.33,0,0,0,6.33,5.25,24.83,24.83,0,0,0,8.87,2.35,22.4,22.4,0,0,0,9.14-1.18,13.43,13.43,0,0,0,7-5.34,19.87,19.87,0,0,0,2.63-7.78,81.86,81.86,0,0,0,1-10,38.66,38.66,0,0,1-18.92,2.81,40,40,0,0,1-17.55-6,37.55,37.55,0,0,1-12.67-13.4,33.17,33.17,0,0,1-4.07-19.1A53.5,53.5,0,0,1-192.59,812a30.56,30.56,0,0,1,11.13-13.58,35.46,35.46,0,0,1,14.3-5.7,91.41,91.41,0,0,1,15.38-1.36h8.6a27.33,27.33,0,0,1,7.88,1.09,17.44,17.44,0,0,1,6.52,3.62,15.4,15.4,0,0,1,4.35,7.42,58,58,0,0,1,2.62,15Q-121.54,825.94-121.54,834.08Zm-34.93,15a16.94,16.94,0,0,0,3.53-.36,30.23,30.23,0,0,0,3.35-.9,10.47,10.47,0,0,0,4.62-2.9,9.65,9.65,0,0,0,2.08-4.07,18.63,18.63,0,0,0,.46-5q-0.1-2.72-.09-5.61,0-2.35-.09-5.25a53.63,53.63,0,0,0-.45-5.52,23,23,0,0,0-1.09-4.62,3.9,3.9,0,0,0-2.17-2.53,30.31,30.31,0,0,0-5.79-1,39,39,0,0,0-6.52,0,26.68,26.68,0,0,0-6.25,1.27,15.48,15.48,0,0,0-5,2.62,15.47,15.47,0,0,0-4.16,5.79,22.53,22.53,0,0,0-1.72,7.24,25.47,25.47,0,0,0,.54,7.42,17,17,0,0,0,3,6.52,14.27,14.27,0,0,0,6.88,5.25A25,25,0,0,0-156.48,849.11Z" transform="translate(300.2 -734.9)"/><path class="cls-2" d="M-31.76,834.08q0,5.8-.27,12.49t-0.63,12.49a108.74,108.74,0,0,1-.55,10.86,88.79,88.79,0,0,1-1.44,10.23,52.25,52.25,0,0,1-3.08,10.23A32.89,32.89,0,0,1-44.61,901a25.15,25.15,0,0,1-11.23,6.43,71.14,71.14,0,0,1-10.86,1.9A51.11,51.11,0,0,1-77.56,909a42.87,42.87,0,0,1-8.15-2.08,42.3,42.3,0,0,1-8.15-3.89,31.58,31.58,0,0,1-6.7-5.52,17.18,17.18,0,0,1-4-7.15,15.06,15.06,0,0,1-.09-8.51,9.38,9.38,0,0,1,3.71-5.25,6.79,6.79,0,0,1,6-.54q3.43,1.09,6.52,5.61a15.33,15.33,0,0,0,6.33,5.25,24.83,24.83,0,0,0,8.87,2.35,22.4,22.4,0,0,0,9.14-1.18,13.43,13.43,0,0,0,7-5.34A19.87,19.87,0,0,0-54.48,875a81.86,81.86,0,0,0,1-10,38.66,38.66,0,0,1-18.92,2.81,40,40,0,0,1-17.55-6,37.55,37.55,0,0,1-12.67-13.4,33.17,33.17,0,0,1-4.07-19.1A53.5,53.5,0,0,1-102.81,812a30.56,30.56,0,0,1,11.13-13.58,35.46,35.46,0,0,1,14.3-5.7A91.41,91.41,0,0,1-62,791.37h8.6a27.33,27.33,0,0,1,7.88,1.09A17.44,17.44,0,0,1-39,796.07a15.4,15.4,0,0,1,4.35,7.42,58,58,0,0,1,2.62,15Q-31.76,825.94-31.76,834.08Zm-34.93,15a16.94,16.94,0,0,0,3.53-.36,30.23,30.23,0,0,0,3.35-.9,10.47,10.47,0,0,0,4.62-2.9,9.65,9.65,0,0,0,2.08-4.07,18.63,18.63,0,0,0,.46-5q-0.1-2.72-.09-5.61,0-2.35-.09-5.25a53.63,53.63,0,0,0-.45-5.52,23,23,0,0,0-1.09-4.62,3.9,3.9,0,0,0-2.17-2.53,30.31,30.31,0,0,0-5.79-1,39,39,0,0,0-6.52,0,26.68,26.68,0,0,0-6.25,1.27,15.48,15.48,0,0,0-5,2.62,15.47,15.47,0,0,0-4.16,5.79A22.53,22.53,0,0,0-86,828.29a25.47,25.47,0,0,0,.54,7.42,17,17,0,0,0,3,6.52,14.27,14.27,0,0,0,6.88,5.25A25,25,0,0,0-66.69,849.11Z" transform="translate(300.2 -734.9)"/><path class="cls-2" d="M116.34,821.09a17.15,17.15,0,0,1,.18,2.35V833L115.43,927v1.81a15,15,0,0,1-.54,3.26,13.43,13.43,0,0,1-.55,1.9c-0.25.66-.48,1.36-0.72,2.08a7,7,0,0,1-2.54,3.26,8.54,8.54,0,0,1-4.7,2,14,14,0,0,1-9.23-.91,7.77,7.77,0,0,1-3.26-3.62,4.13,4.13,0,0,1-.72-1.09,2.81,2.81,0,0,0-.36-1.09,9.72,9.72,0,0,1-.54-1.9c-0.12-.66-0.25-1.36-0.36-2.08a17.26,17.26,0,0,0-.09-1.81c-0.06-.6-0.15-1.2-0.27-1.81a4.3,4.3,0,0,1-.36-1.54v-1.54a6.86,6.86,0,0,0,.36-2.72l0.18-14.3,0.18-22.81H82.12l-36.74.18L45,927v1.81a14.82,14.82,0,0,1-.55,3.26,12.76,12.76,0,0,1-.54,1.9c-0.25.66-.49,1.36-0.73,2.08a7,7,0,0,1-2.53,3.26,8.54,8.54,0,0,1-4.7,2,14,14,0,0,1-9.23-.91,11.11,11.11,0,0,1-3.44-3.62,2.74,2.74,0,0,1-.36-1.09l-0.55-1.09a10.08,10.08,0,0,1-.55-1.9c-0.12-.66-0.24-1.36-0.36-2.08a9.47,9.47,0,0,0-.18-1.81c-0.12-.6-0.25-1.2-0.36-1.81a12.88,12.88,0,0,1,0-3.08v-2.72l0.18-14.3,0.36-26.61q0.18-5.79.18-11.95V855.67q-0.18-6.51-.09-11.58T22,832.68V832a36.63,36.63,0,0,0,.18-3.71c0-1.27.06-2.56,0.18-3.89a22.15,22.15,0,0,1,.63-3.53,17.93,17.93,0,0,1,1.36-3.53,7.34,7.34,0,0,1,1.45-2.44,13.61,13.61,0,0,1,2.17-1.9,12.88,12.88,0,0,1,5.79-1.45q1.44,0,2.53.09c0.72,0.06,1.45.15,2.17,0.27A6.74,6.74,0,0,1,42.66,814a6.59,6.59,0,0,1,2,2.9,16.48,16.48,0,0,1,1.09,4.16,17.15,17.15,0,0,1,.18,2.35V833l-0.36,29.87h3.35c1.27,0,2.74-.06,4.43-0.18q9.41,0,18.73.18t19.64,0.18H91.9q0-8.15.09-15.57T92.44,832q0-1.81.09-3.71c0.06-1.27.15-2.56,0.27-3.89a22.72,22.72,0,0,1,.63-3.53,17.93,17.93,0,0,1,1.36-3.53,5.14,5.14,0,0,1,1.36-2.44,13.83,13.83,0,0,1,2.45-1.9,11.13,11.13,0,0,1,5.61-1.45q1.44,0,2.62.09a18.45,18.45,0,0,1,2.08.27,6.7,6.7,0,0,1,4.16,2.17,4.69,4.69,0,0,1,2,2.9c0.24,0.72.46,1.42,0.63,2.08S116.09,820.37,116.34,821.09Z" transform="translate(300.2 -734.9)"/><path class="cls-2" d="M205.39,897.3q-0.36,6-.72,12a57.39,57.39,0,0,1-1.9,11.67,32.51,32.51,0,0,1-4.71,10.14,22,22,0,0,1-9,7.24,38.92,38.92,0,0,1-10.86,3.53,57.88,57.88,0,0,1-11.58.81A46.38,46.38,0,0,1,155.43,941a37.66,37.66,0,0,1-9.78-4.25,21.85,21.85,0,0,1-7.06-7.06,39,39,0,0,1-4.26-9.41,54.83,54.83,0,0,1-2.08-10.5q-0.54-5.43-.72-10.14a208,208,0,0,1,0-24.62v-5.34a37.72,37.72,0,0,1,.45-5.88,21.14,21.14,0,0,1,1.54-5.34,7.46,7.46,0,0,1,3.62-3.71q5.43-2.89,10-.36t5.52,10.5a63.11,63.11,0,0,1,.45,9.23,88.16,88.16,0,0,0,.27,9.23q0.18,6.15.36,13.3a43,43,0,0,0,2.08,12.76,15.39,15.39,0,0,0,6.33,8.42q4.43,2.81,13.31.27,4.16-1.26,5.52-6.33t1.36-15q0-4.35-.18-9.59T182,876.76q0-5.16.27-9.59a31,31,0,0,1,1-6.79,7.77,7.77,0,0,1,3.8-4.89,13.12,13.12,0,0,1,6.16-1.72,12.79,12.79,0,0,1,6.15,1.36,7.78,7.78,0,0,1,4,4.71,29.87,29.87,0,0,1,1.54,7.33q0.45,4.44.63,9.59t0.09,10.5Q205.57,892.59,205.39,897.3Z" transform="translate(300.2 -734.9)"/><path class="cls-2" d="M224.22,875.76q0-4.16-.09-8.87a20.34,20.34,0,0,1,1.54-8.51,9.24,9.24,0,0,1,4.8-5,9.4,9.4,0,0,1,6.61-.63,10.89,10.89,0,0,1,5.07,2,8.66,8.66,0,0,1,2.62,3.35,13.51,13.51,0,0,1,1,4.34q0.18,2.45.36,4.8a16,16,0,0,1,4.52-5.25,29.48,29.48,0,0,1,5.61-3.26,28.11,28.11,0,0,1,5.52-1.81,21.68,21.68,0,0,1,4.08-.54,33.65,33.65,0,0,1,13.67,3,30.42,30.42,0,0,1,11.31,8.42,26.73,26.73,0,0,1,3.89,6.79,37.66,37.66,0,0,1,2,7.33,65.65,65.65,0,0,1,.82,7.69q0.18,3.9.36,7.87a146.08,146.08,0,0,1,0,23q-0.18,2.35-.18,5.43a40.7,40.7,0,0,1-.45,6.06,16.78,16.78,0,0,1-1.63,5.25,5.3,5.3,0,0,1-3.89,2.81,15.61,15.61,0,0,1-6.24.45,8,8,0,0,1-3.89-1.72,7.68,7.68,0,0,1-2.17-3.26,33.17,33.17,0,0,1-1.27-4.52q-0.37-2-.63-4.62T277.17,921q-0.1-2.71-.18-5.34c-0.06-1.75-.09-3.35-0.09-4.8q0-3.44-.18-7.6t0-7.79q0-8.5-4.43-12.94t-12-3.71a18.24,18.24,0,0,0-10.13,4.62,12.34,12.34,0,0,0-4.16,10v4.35q0,2-.09,4t-0.09,4.34V924a30,30,0,0,1-1.63,10.77,9.53,9.53,0,0,1-4.89,6q-3.44,1.63-8.15-.9a8.33,8.33,0,0,1-3.17-3,16.4,16.4,0,0,1-1.81-4.07,22.19,22.19,0,0,1-.82-4.43c-0.12-1.51-.24-2.92-0.36-4.25q-0.55-6-.63-11.13t-0.09-11.13V875.76Z" transform="translate(300.2 -734.9)"/><path class="cls-2" d="M383,860.55a11.25,11.25,0,0,1,.27,7.6q-1.18,4.17-4.25,5.43a18.34,18.34,0,0,1-4.35,1.18q-2.72.45-5.88,0.81t-6.25.55q-3.08.18-5.25,0.18,0.18,5.43.36,11.13T358,898.57q0.18,5.43.18,10.41t-0.18,9v6.24a49.65,49.65,0,0,1-.46,6.79,27.15,27.15,0,0,1-1.36,5.7,5,5,0,0,1-2.72,3.17,17.06,17.06,0,0,1-10.23,1.36q-4.62-1-6.6-3.89a18.12,18.12,0,0,1-2.18-5.52,46,46,0,0,1-1-6.52,59.73,59.73,0,0,1-.18-6.52q0.09-3.17.09-5.52,0.18-7.6.27-17.29t0.09-19.46H331q-2.17,0-5.52-.09a62.17,62.17,0,0,1-6.7-.54,45.12,45.12,0,0,1-6.24-1.27,7.71,7.71,0,0,1-4.16-2.44,10.41,10.41,0,0,1-2.45-5.07,10.52,10.52,0,0,1,.36-5.16,11.47,11.47,0,0,1,2.62-4.35,8.26,8.26,0,0,1,4.16-2.44,38.7,38.7,0,0,1,9.23-1q6-.09,11.23.09a34.77,34.77,0,0,1-.18-3.53,31,31,0,0,0-.18-3.35q-0.18-2.17-.18-5.52a50.35,50.35,0,0,1,.45-6.7,30.1,30.1,0,0,1,1.54-6.33,10.36,10.36,0,0,1,3.07-4.62,10.48,10.48,0,0,1,5.52-2.45,10.29,10.29,0,0,1,5.25.82,11.32,11.32,0,0,1,4.16,3.17,12.67,12.67,0,0,1,2.44,4.62,43.36,43.36,0,0,1,.91,5.16q0.36,3,.45,6.24t0.09,6.52v6h1.81c1.81,0,3.92-.06,6.33-0.18a47.43,47.43,0,0,1,7.15.18,19.84,19.84,0,0,1,6.43,1.72A8.82,8.82,0,0,1,383,860.55Z" transform="translate(300.2 -734.9)"/><path class="cls-3" d="M-268.08,766.79l-0.36,28.42h7.24Q-253.78,795-248,795t12.85,0.18h0.91c1.45,0,2.86,0,4.25.09s2.74,0.09,4.07.09a30.25,30.25,0,0,1,4.16.63q2,0.45,4,1a12.28,12.28,0,0,1,5.07,3.26,8.42,8.42,0,0,1,1.81,5.25v2.08a5.57,5.57,0,0,1-.36,2.08,6.13,6.13,0,0,1-2.35,3.62,5.46,5.46,0,0,1-3.44,1.81,21.46,21.46,0,0,1-4.71.91,24.19,24.19,0,0,1-5.07.54h-8.5l-33.49.18-0.36,35.48,36,0.36h11.22a14.45,14.45,0,0,1,2.36.18,15.56,15.56,0,0,0,2.62.45,9.47,9.47,0,0,1,2.26.45,10.5,10.5,0,0,1,3.62,2,8.66,8.66,0,0,1,2.36,3.8c0.12,0.6.21,1.24,0.27,1.9a8.12,8.12,0,0,1-.09,2.08,8.41,8.41,0,0,1-1.81,5.25A9.71,9.71,0,0,1-215.4,872a20.94,20.94,0,0,1-8.33,1.63c-1.33.12-2.72,0.18-4.16,0.18s-2.84.06-4.16,0.18h-1.09q-14.12.36-29.32,0-3.62,0-5.79-.09t-3.89-.09h-8.24a10.45,10.45,0,0,1-6.87-1.45,8.45,8.45,0,0,1-3.08-3.44,1.57,1.57,0,0,1-.55-1.09,2.15,2.15,0,0,0-.36-0.54,1.92,1.92,0,0,1-.36-0.54,9.4,9.4,0,0,1-.55-1.9,10.43,10.43,0,0,1-.18-1.9c-0.12-.6-0.21-1.21-0.27-1.81s-0.15-1.21-.27-1.81v-2.9a12,12,0,0,1,.09-1.45,11.85,11.85,0,0,0,.09-1.45V839.38l0.36-26.07V789.24q0-6.51.09-11.58t0.27-11v-0.9c0.12-1.33.21-2.56,0.27-3.71s0.09-2.32.09-3.53a16.78,16.78,0,0,1,2-7.06,16.33,16.33,0,0,1,1.54-2.53,6.23,6.23,0,0,1,2.26-1.81,10.74,10.74,0,0,1,5.61-1.63,9.7,9.7,0,0,1,2.18.18v-0.18h9.14c1.27,0,2.63,0,4.08-.09s3.44-.09,6-0.09q7.24-.18,13.76-0.18t13.4,0.18H-231q2,0.18,4.16.18c1.45,0,2.83.06,4.16,0.18a18.08,18.08,0,0,1,4,.45,33.74,33.74,0,0,1,4,1.18,10.88,10.88,0,0,1,5.07,3.08,9.32,9.32,0,0,1,1.63,5.07v2.08a5.07,5.07,0,0,1-.36,1.9,6.54,6.54,0,0,1-2.17,3.8,14.3,14.3,0,0,0-1.54.91,8,8,0,0,1-1.9.91,9.33,9.33,0,0,1-2.26.45c-0.79.06-1.54,0.15-2.26,0.27a10.85,10.85,0,0,1-2.63.36h-10.77l-36.2.18v0.54Z" transform="translate(300.2 -734.9)"/><path class="cls-3" d="M-118.38,839q0,5.8-.27,12.49T-119.29,864a108.74,108.74,0,0,1-.55,10.86,88.79,88.79,0,0,1-1.44,10.23,52.25,52.25,0,0,1-3.08,10.23,32.89,32.89,0,0,1-6.88,10.59,25.15,25.15,0,0,1-11.23,6.43,71.14,71.14,0,0,1-10.86,1.9,51.11,51.11,0,0,1-10.86-.27,42.87,42.87,0,0,1-8.15-2.08,42.3,42.3,0,0,1-8.15-3.89,31.58,31.58,0,0,1-6.7-5.52,17.18,17.18,0,0,1-4-7.15,15.06,15.06,0,0,1-.09-8.51,9.38,9.38,0,0,1,3.71-5.25,6.79,6.79,0,0,1,6-.54q3.43,1.09,6.52,5.61a15.33,15.33,0,0,0,6.33,5.25,24.83,24.83,0,0,0,8.87,2.35,22.4,22.4,0,0,0,9.14-1.18,13.43,13.43,0,0,0,7-5.34,19.87,19.87,0,0,0,2.63-7.78,81.86,81.86,0,0,0,1-10A38.66,38.66,0,0,1-159,872.78a40,40,0,0,1-17.55-6,37.55,37.55,0,0,1-12.67-13.4,33.17,33.17,0,0,1-4.07-19.1,53.5,53.5,0,0,1,3.89-17.38,30.56,30.56,0,0,1,11.13-13.58,35.46,35.46,0,0,1,14.3-5.7,91.41,91.41,0,0,1,15.38-1.36h8.6a27.33,27.33,0,0,1,7.88,1.09,17.44,17.44,0,0,1,6.52,3.62,15.4,15.4,0,0,1,4.35,7.42,58,58,0,0,1,2.62,15Q-118.38,830.88-118.38,839Zm-34.93,15a16.94,16.94,0,0,0,3.53-.36,30.23,30.23,0,0,0,3.35-.9,10.47,10.47,0,0,0,4.62-2.9,9.65,9.65,0,0,0,2.08-4.07,18.63,18.63,0,0,0,.46-5q-0.1-2.72-.09-5.61,0-2.35-.09-5.25a53.63,53.63,0,0,0-.45-5.52,23,23,0,0,0-1.09-4.62,3.9,3.9,0,0,0-2.17-2.53,30.31,30.31,0,0,0-5.79-1,39,39,0,0,0-6.52,0,26.68,26.68,0,0,0-6.25,1.27,15.48,15.48,0,0,0-5,2.62,15.47,15.47,0,0,0-4.16,5.79,22.53,22.53,0,0,0-1.72,7.24,25.47,25.47,0,0,0,.54,7.42,17,17,0,0,0,3,6.52,14.27,14.27,0,0,0,6.88,5.25A25,25,0,0,0-153.32,854Z" transform="translate(300.2 -734.9)"/><path class="cls-3" d="M-28.6,839q0,5.8-.27,12.49T-29.51,864a108.74,108.74,0,0,1-.55,10.86,88.79,88.79,0,0,1-1.44,10.23,52.25,52.25,0,0,1-3.08,10.23,32.89,32.89,0,0,1-6.88,10.59,25.15,25.15,0,0,1-11.23,6.43,71.14,71.14,0,0,1-10.86,1.9A51.11,51.11,0,0,1-74.4,914a42.87,42.87,0,0,1-8.15-2.08A42.3,42.3,0,0,1-90.69,908a31.58,31.58,0,0,1-6.7-5.52,17.18,17.18,0,0,1-4-7.15,15.06,15.06,0,0,1-.09-8.51,9.38,9.38,0,0,1,3.71-5.25,6.79,6.79,0,0,1,6-.54q3.43,1.09,6.52,5.61a15.33,15.33,0,0,0,6.33,5.25,24.83,24.83,0,0,0,8.87,2.35A22.4,22.4,0,0,0-60.91,893a13.43,13.43,0,0,0,7-5.34,19.87,19.87,0,0,0,2.63-7.78,81.86,81.86,0,0,0,1-10,38.66,38.66,0,0,1-18.92,2.81,40,40,0,0,1-17.55-6,37.55,37.55,0,0,1-12.67-13.4,33.17,33.17,0,0,1-4.07-19.1,53.5,53.5,0,0,1,3.89-17.38,30.56,30.56,0,0,1,11.13-13.58,35.46,35.46,0,0,1,14.3-5.7,91.41,91.41,0,0,1,15.38-1.36h8.6a27.33,27.33,0,0,1,7.88,1.09A17.44,17.44,0,0,1-35.84,801a15.4,15.4,0,0,1,4.35,7.42,58,58,0,0,1,2.62,15Q-28.6,830.88-28.6,839Zm-34.93,15a16.94,16.94,0,0,0,3.53-.36,30.23,30.23,0,0,0,3.35-.9,10.47,10.47,0,0,0,4.62-2.9A9.65,9.65,0,0,0-50,845.8a18.63,18.63,0,0,0,.46-5q-0.1-2.72-.09-5.61,0-2.35-.09-5.25a53.63,53.63,0,0,0-.45-5.52,23,23,0,0,0-1.09-4.62,3.9,3.9,0,0,0-2.17-2.53,30.31,30.31,0,0,0-5.79-1,39,39,0,0,0-6.52,0A26.68,26.68,0,0,0-72,817.57a15.48,15.48,0,0,0-5,2.62A15.47,15.47,0,0,0-81.09,826a22.53,22.53,0,0,0-1.72,7.24,25.47,25.47,0,0,0,.54,7.42,17,17,0,0,0,3,6.52,14.27,14.27,0,0,0,6.88,5.25A25,25,0,0,0-63.53,854Z" transform="translate(300.2 -734.9)"/><path class="cls-3" d="M119.5,826a17.15,17.15,0,0,1,.18,2.35V838l-1.09,93.95v1.81A15,15,0,0,1,118,937a13.43,13.43,0,0,1-.55,1.9c-0.25.66-.48,1.36-0.72,2.08a7,7,0,0,1-2.54,3.26,8.54,8.54,0,0,1-4.7,2,14,14,0,0,1-9.23-.91A7.77,7.77,0,0,1,97,941.69a4.13,4.13,0,0,1-.72-1.09,2.81,2.81,0,0,0-.36-1.09,9.72,9.72,0,0,1-.54-1.9c-0.12-.66-0.25-1.36-0.36-2.08a17.26,17.26,0,0,0-.09-1.81c-0.06-.6-0.15-1.2-0.27-1.81a4.3,4.3,0,0,1-.36-1.54v-1.54a6.86,6.86,0,0,0,.36-2.72l0.18-14.3L95.06,889H85.28l-36.74.18-0.36,42.72v1.81a14.82,14.82,0,0,1-.55,3.26,12.76,12.76,0,0,1-.54,1.9c-0.25.66-.49,1.36-0.73,2.08a7,7,0,0,1-2.53,3.26,8.54,8.54,0,0,1-4.7,2,14,14,0,0,1-9.23-.91,11.11,11.11,0,0,1-3.44-3.62,2.74,2.74,0,0,1-.36-1.09l-0.55-1.09a10.08,10.08,0,0,1-.55-1.9c-0.12-.66-0.24-1.36-0.36-2.08a9.47,9.47,0,0,0-.18-1.81c-0.12-.6-0.25-1.2-0.36-1.81a12.88,12.88,0,0,1,0-3.08v-2.72l0.18-14.3,0.36-26.61q0.18-5.79.18-11.95V860.6q-0.18-6.51-.09-11.58t0.45-11.4v-0.72a36.63,36.63,0,0,0,.18-3.71c0-1.27.06-2.56,0.18-3.89a22.15,22.15,0,0,1,.63-3.53,17.93,17.93,0,0,1,1.36-3.53A7.34,7.34,0,0,1,29,819.78a13.61,13.61,0,0,1,2.17-1.9A12.88,12.88,0,0,1,37,816.43q1.44,0,2.53.09c0.72,0.06,1.45.15,2.17,0.27A6.74,6.74,0,0,1,45.82,819a6.59,6.59,0,0,1,2,2.9A16.48,16.48,0,0,1,48.9,826a17.15,17.15,0,0,1,.18,2.35V838l-0.36,29.87h3.35c1.27,0,2.74-.06,4.43-0.18q9.41,0,18.73.18T94.88,868h0.18q0-8.15.09-15.57t0.45-15.57q0-1.81.09-3.71c0.06-1.27.15-2.56,0.27-3.89a22.72,22.72,0,0,1,.63-3.53A17.93,17.93,0,0,1,98,822.22a5.14,5.14,0,0,1,1.36-2.44,13.83,13.83,0,0,1,2.45-1.9,11.13,11.13,0,0,1,5.61-1.45q1.44,0,2.62.09a18.45,18.45,0,0,1,2.08.27,6.7,6.7,0,0,1,4.16,2.17,4.69,4.69,0,0,1,2,2.9c0.24,0.72.46,1.42,0.63,2.08S119.25,825.3,119.5,826Z" transform="translate(300.2 -734.9)"/><path class="cls-3" d="M208.55,902.23q-0.36,6-.72,12a57.39,57.39,0,0,1-1.9,11.67,32.51,32.51,0,0,1-4.71,10.14,22,22,0,0,1-9,7.24,38.92,38.92,0,0,1-10.86,3.53,57.88,57.88,0,0,1-11.58.81,46.38,46.38,0,0,1-11.23-1.72,37.66,37.66,0,0,1-9.78-4.25,21.85,21.85,0,0,1-7.06-7.06,39,39,0,0,1-4.26-9.41,54.83,54.83,0,0,1-2.08-10.5q-0.54-5.43-.72-10.14a208,208,0,0,1,0-24.62v-5.34a37.72,37.72,0,0,1,.45-5.88,21.14,21.14,0,0,1,1.54-5.34,7.46,7.46,0,0,1,3.62-3.71q5.43-2.89,10-.36t5.52,10.5a63.11,63.11,0,0,1,.45,9.23,88.16,88.16,0,0,0,.27,9.23q0.18,6.15.36,13.3A43,43,0,0,0,159,914.36a15.39,15.39,0,0,0,6.33,8.42q4.43,2.81,13.31.27,4.16-1.26,5.52-6.33t1.36-15q0-4.35-.18-9.59t-0.18-10.41q0-5.16.27-9.59a31,31,0,0,1,1-6.79,7.77,7.77,0,0,1,3.8-4.89,13.12,13.12,0,0,1,6.16-1.72,12.79,12.79,0,0,1,6.15,1.36,7.78,7.78,0,0,1,4,4.71,29.87,29.87,0,0,1,1.54,7.33q0.45,4.44.63,9.59t0.09,10.5Q208.73,897.53,208.55,902.23Z" transform="translate(300.2 -734.9)"/><path class="cls-3" d="M227.38,880.69q0-4.16-.09-8.87a20.34,20.34,0,0,1,1.54-8.51,9.24,9.24,0,0,1,4.8-5,9.4,9.4,0,0,1,6.61-.63,10.89,10.89,0,0,1,5.07,2,8.66,8.66,0,0,1,2.62,3.35,13.51,13.51,0,0,1,1,4.34q0.18,2.45.36,4.8a16,16,0,0,1,4.52-5.25,29.48,29.48,0,0,1,5.61-3.26,28.11,28.11,0,0,1,5.52-1.81,21.68,21.68,0,0,1,4.08-.54,33.65,33.65,0,0,1,13.67,3A30.42,30.42,0,0,1,294,872.73a26.73,26.73,0,0,1,3.89,6.79,37.66,37.66,0,0,1,2,7.33,65.65,65.65,0,0,1,.82,7.69q0.18,3.9.36,7.87a146.08,146.08,0,0,1,0,23q-0.18,2.35-.18,5.43a40.7,40.7,0,0,1-.45,6.06,16.78,16.78,0,0,1-1.63,5.25,5.3,5.3,0,0,1-3.89,2.81,15.61,15.61,0,0,1-6.24.45,8,8,0,0,1-3.89-1.72,7.68,7.68,0,0,1-2.17-3.26,33.17,33.17,0,0,1-1.27-4.52q-0.37-2-.63-4.62t-0.36-5.34q-0.1-2.71-.18-5.34c-0.06-1.75-.09-3.35-0.09-4.8q0-3.44-.18-7.6t0-7.79q0-8.5-4.43-12.94t-12-3.71a18.24,18.24,0,0,0-10.13,4.62,12.34,12.34,0,0,0-4.16,10v4.35q0,2-.09,4t-0.09,4.34v17.83a30,30,0,0,1-1.63,10.77,9.53,9.53,0,0,1-4.89,6q-3.44,1.63-8.15-.9a8.33,8.33,0,0,1-3.17-3,16.4,16.4,0,0,1-1.81-4.07,22.19,22.19,0,0,1-.82-4.43c-0.12-1.51-.24-2.92-0.36-4.25q-0.55-6-.63-11.13t-0.09-11.13V880.69Z" transform="translate(300.2 -734.9)"/><path class="cls-3" d="M386.13,865.49a11.25,11.25,0,0,1,.27,7.6q-1.18,4.17-4.25,5.43a18.34,18.34,0,0,1-4.35,1.18q-2.72.45-5.88,0.81t-6.25.55q-3.08.18-5.25,0.18,0.18,5.43.36,11.13t0.36,11.13q0.18,5.43.18,10.41t-0.18,9v6.24a49.65,49.65,0,0,1-.46,6.79,27.15,27.15,0,0,1-1.36,5.7,5,5,0,0,1-2.72,3.17,17.06,17.06,0,0,1-10.23,1.36q-4.62-1-6.6-3.89a18.12,18.12,0,0,1-2.18-5.52,46,46,0,0,1-1-6.52,59.73,59.73,0,0,1-.18-6.52q0.09-3.17.09-5.52,0.18-7.6.27-17.29t0.09-19.46h-2.72q-2.17,0-5.52-.09a62.17,62.17,0,0,1-6.7-.54,45.12,45.12,0,0,1-6.24-1.27,7.71,7.71,0,0,1-4.16-2.44,10.41,10.41,0,0,1-2.45-5.07,10.52,10.52,0,0,1,.36-5.16,11.47,11.47,0,0,1,2.62-4.35,8.26,8.26,0,0,1,4.16-2.44,38.7,38.7,0,0,1,9.23-1q6-.09,11.23.09a34.77,34.77,0,0,1-.18-3.53,31,31,0,0,0-.18-3.35q-0.18-2.17-.18-5.52a50.35,50.35,0,0,1,.45-6.7,30.1,30.1,0,0,1,1.54-6.33,10.36,10.36,0,0,1,3.07-4.62,10.48,10.48,0,0,1,5.52-2.45,10.29,10.29,0,0,1,5.25.82,11.32,11.32,0,0,1,4.16,3.17,12.67,12.67,0,0,1,2.44,4.62,43.36,43.36,0,0,1,.91,5.16q0.36,3,.45,6.24t0.09,6.52v6h1.81c1.81,0,3.92-.06,6.33-0.18a47.43,47.43,0,0,1,7.15.18,19.84,19.84,0,0,1,6.43,1.72A8.82,8.82,0,0,1,386.13,865.49Z" transform="translate(300.2 -734.9)"/><path class="cls-4" d="M-264.35,770.83l-0.36,28.42h7.24q7.42-.18,13.21-0.18t12.85,0.18h0.91c1.45,0,2.86,0,4.25.09s2.74,0.09,4.07.09a30.25,30.25,0,0,1,4.16.63q2,0.45,4,1a12.28,12.28,0,0,1,5.07,3.26,8.42,8.42,0,0,1,1.81,5.25v2.08a5.57,5.57,0,0,1-.36,2.08,6.13,6.13,0,0,1-2.35,3.62,5.46,5.46,0,0,1-3.44,1.81,21.46,21.46,0,0,1-4.71.91,24.19,24.19,0,0,1-5.07.54h-8.5l-33.49.18-0.36,35.48,36,0.36h11.22a14.45,14.45,0,0,1,2.36.18,15.56,15.56,0,0,0,2.62.45,9.47,9.47,0,0,1,2.26.45,10.5,10.5,0,0,1,3.62,2,8.66,8.66,0,0,1,2.36,3.8c0.12,0.6.21,1.24,0.27,1.9a8.12,8.12,0,0,1-.09,2.08,8.41,8.41,0,0,1-1.81,5.25,9.71,9.71,0,0,1-5.07,3.26,20.94,20.94,0,0,1-8.33,1.63c-1.33.12-2.72,0.18-4.16,0.18s-2.84.06-4.16,0.18h-1.09q-14.12.36-29.32,0-3.62,0-5.79-.09t-3.89-.09h-8.24a10.45,10.45,0,0,1-6.87-1.45,8.45,8.45,0,0,1-3.08-3.44,1.57,1.57,0,0,1-.55-1.09,2.15,2.15,0,0,0-.36-0.54,1.92,1.92,0,0,1-.36-0.54,9.4,9.4,0,0,1-.55-1.9,10.43,10.43,0,0,1-.18-1.9c-0.12-.6-0.21-1.21-0.27-1.81s-0.15-1.21-.27-1.81v-2.9a12,12,0,0,1,.09-1.45,11.85,11.85,0,0,0,.09-1.45V843.41l0.36-26.07V793.27q0-6.51.09-11.58t0.27-11v-0.9c0.12-1.33.21-2.56,0.27-3.71s0.09-2.32.09-3.53a16.78,16.78,0,0,1,2-7.06,16.33,16.33,0,0,1,1.54-2.53,6.23,6.23,0,0,1,2.26-1.81,10.74,10.74,0,0,1,5.61-1.63,9.7,9.7,0,0,1,2.18.18v-0.18h9.14c1.27,0,2.63,0,4.08-.09s3.44-.09,6-0.09q7.24-.18,13.76-0.18t13.4,0.18h0.72q2,0.18,4.16.18c1.45,0,2.83.06,4.16,0.18a18.08,18.08,0,0,1,4,.45,33.74,33.74,0,0,1,4,1.18,10.88,10.88,0,0,1,5.07,3.08,9.32,9.32,0,0,1,1.63,5.07v2.08a5.07,5.07,0,0,1-.36,1.9,6.54,6.54,0,0,1-2.17,3.8,14.3,14.3,0,0,0-1.54.91,8,8,0,0,1-1.9.91,9.33,9.33,0,0,1-2.26.45c-0.79.06-1.54,0.15-2.26,0.27a10.85,10.85,0,0,1-2.63.36h-10.77l-36.2.18v0.54Z" transform="translate(300.2 -734.9)"/><path class="cls-4" d="M-114.66,843.05q0,5.8-.27,12.49T-115.56,868a108.74,108.74,0,0,1-.55,10.86,88.79,88.79,0,0,1-1.44,10.23,52.25,52.25,0,0,1-3.08,10.23,32.89,32.89,0,0,1-6.88,10.59,25.15,25.15,0,0,1-11.23,6.43,71.14,71.14,0,0,1-10.86,1.9,51.11,51.11,0,0,1-10.86-.27,42.87,42.87,0,0,1-8.15-2.08,42.3,42.3,0,0,1-8.15-3.89,31.58,31.58,0,0,1-6.7-5.52,17.18,17.18,0,0,1-4-7.15,15.06,15.06,0,0,1-.09-8.51,9.38,9.38,0,0,1,3.71-5.25,6.79,6.79,0,0,1,6-.54q3.43,1.09,6.52,5.61a15.33,15.33,0,0,0,6.33,5.25,24.83,24.83,0,0,0,8.87,2.35,22.4,22.4,0,0,0,9.14-1.18,13.43,13.43,0,0,0,7-5.34,19.87,19.87,0,0,0,2.63-7.78,81.86,81.86,0,0,0,1-10,38.66,38.66,0,0,1-18.92,2.81,40,40,0,0,1-17.55-6,37.55,37.55,0,0,1-12.67-13.4,33.17,33.17,0,0,1-4.07-19.1A53.5,53.5,0,0,1-185.7,821a30.56,30.56,0,0,1,11.13-13.58,35.46,35.46,0,0,1,14.3-5.7,91.41,91.41,0,0,1,15.38-1.36h8.6a27.33,27.33,0,0,1,7.88,1.09,17.44,17.44,0,0,1,6.52,3.62,15.4,15.4,0,0,1,4.35,7.42,58,58,0,0,1,2.62,15Q-114.65,834.91-114.66,843.05Zm-34.93,15a16.94,16.94,0,0,0,3.53-.36,30.23,30.23,0,0,0,3.35-.9,10.47,10.47,0,0,0,4.62-2.9,9.65,9.65,0,0,0,2.08-4.07,18.63,18.63,0,0,0,.46-5q-0.1-2.72-.09-5.61,0-2.35-.09-5.25a53.63,53.63,0,0,0-.45-5.52,23,23,0,0,0-1.09-4.62,3.9,3.9,0,0,0-2.17-2.53,30.31,30.31,0,0,0-5.79-1,39,39,0,0,0-6.52,0A26.68,26.68,0,0,0-158,821.6a15.48,15.48,0,0,0-5,2.62,15.47,15.47,0,0,0-4.16,5.79,22.53,22.53,0,0,0-1.72,7.24,25.47,25.47,0,0,0,.54,7.42,17,17,0,0,0,3,6.52,14.27,14.27,0,0,0,6.88,5.25A25,25,0,0,0-149.59,858.08Z" transform="translate(300.2 -734.9)"/><path class="cls-4" d="M-24.88,843.05q0,5.8-.27,12.49T-25.78,868a108.74,108.74,0,0,1-.55,10.86,88.79,88.79,0,0,1-1.44,10.23,52.25,52.25,0,0,1-3.08,10.23,32.89,32.89,0,0,1-6.88,10.59A25.15,25.15,0,0,1-49,916.36a71.14,71.14,0,0,1-10.86,1.9A51.11,51.11,0,0,1-70.67,918a42.87,42.87,0,0,1-8.15-2.08A42.3,42.3,0,0,1-87,912a31.58,31.58,0,0,1-6.7-5.52,17.18,17.18,0,0,1-4-7.15,15.06,15.06,0,0,1-.09-8.51A9.38,9.38,0,0,1-94,885.59a6.79,6.79,0,0,1,6-.54q3.43,1.09,6.52,5.61a15.33,15.33,0,0,0,6.33,5.25,24.83,24.83,0,0,0,8.87,2.35,22.4,22.4,0,0,0,9.14-1.18,13.43,13.43,0,0,0,7-5.34A19.87,19.87,0,0,0-47.59,884a81.86,81.86,0,0,0,1-10,38.66,38.66,0,0,1-18.92,2.81,40,40,0,0,1-17.55-6,37.55,37.55,0,0,1-12.67-13.4,33.17,33.17,0,0,1-4.07-19.1A53.5,53.5,0,0,1-95.92,821a30.56,30.56,0,0,1,11.13-13.58,35.46,35.46,0,0,1,14.3-5.7,91.41,91.41,0,0,1,15.38-1.36h8.6a27.33,27.33,0,0,1,7.88,1.09A17.44,17.44,0,0,1-32.11,805a15.4,15.4,0,0,1,4.35,7.42,58,58,0,0,1,2.62,15Q-24.87,834.91-24.88,843.05Zm-34.93,15a16.94,16.94,0,0,0,3.53-.36,30.23,30.23,0,0,0,3.35-.9,10.47,10.47,0,0,0,4.62-2.9,9.65,9.65,0,0,0,2.08-4.07,18.63,18.63,0,0,0,.46-5q-0.1-2.72-.09-5.61,0-2.35-.09-5.25a53.63,53.63,0,0,0-.45-5.52,23,23,0,0,0-1.09-4.62,3.9,3.9,0,0,0-2.17-2.53,30.31,30.31,0,0,0-5.79-1,39,39,0,0,0-6.52,0,26.68,26.68,0,0,0-6.25,1.27,15.48,15.48,0,0,0-5,2.62A15.47,15.47,0,0,0-77.37,830a22.53,22.53,0,0,0-1.72,7.24,25.47,25.47,0,0,0,.54,7.42,17,17,0,0,0,3,6.52,14.27,14.27,0,0,0,6.88,5.25A25,25,0,0,0-59.81,858.08Z" transform="translate(300.2 -734.9)"/><path class="cls-4" d="M123.22,830.06a17.15,17.15,0,0,1,.18,2.35V842L122.32,936v1.81a15,15,0,0,1-.54,3.26,13.43,13.43,0,0,1-.55,1.9c-0.25.66-.48,1.36-0.72,2.08a7,7,0,0,1-2.54,3.26,8.54,8.54,0,0,1-4.7,2,14,14,0,0,1-9.23-.91,7.77,7.77,0,0,1-3.26-3.62,4.13,4.13,0,0,1-.72-1.09,2.81,2.81,0,0,0-.36-1.09,9.72,9.72,0,0,1-.54-1.9c-0.12-.66-0.25-1.36-0.36-2.08a17.26,17.26,0,0,0-.09-1.81c-0.06-.6-0.15-1.2-0.27-1.81a4.3,4.3,0,0,1-.36-1.54v-1.54a6.86,6.86,0,0,0,.36-2.72l0.18-14.3,0.18-22.81H89l-36.74.18L51.9,936v1.81a14.82,14.82,0,0,1-.55,3.26,12.76,12.76,0,0,1-.54,1.9c-0.25.66-.49,1.36-0.73,2.08a7,7,0,0,1-2.53,3.26,8.54,8.54,0,0,1-4.7,2,14,14,0,0,1-9.23-.91,11.11,11.11,0,0,1-3.44-3.62,2.74,2.74,0,0,1-.36-1.09l-0.55-1.09a10.08,10.08,0,0,1-.55-1.9c-0.12-.66-0.24-1.36-0.36-2.08a9.47,9.47,0,0,0-.18-1.81c-0.12-.6-0.25-1.2-0.36-1.81a12.88,12.88,0,0,1,0-3.08v-2.72L28,915.86l0.36-26.61q0.18-5.79.18-11.95V864.63q-0.18-6.51-.09-11.58t0.45-11.4v-0.72a36.63,36.63,0,0,0,.18-3.71c0-1.27.06-2.56,0.18-3.89a22.15,22.15,0,0,1,.63-3.53,17.93,17.93,0,0,1,1.36-3.53,7.34,7.34,0,0,1,1.45-2.44,13.61,13.61,0,0,1,2.17-1.9,12.88,12.88,0,0,1,5.79-1.45q1.44,0,2.53.09c0.72,0.06,1.45.15,2.17,0.27A6.74,6.74,0,0,1,49.55,823a6.59,6.59,0,0,1,2,2.9,16.48,16.48,0,0,1,1.09,4.16,17.15,17.15,0,0,1,.18,2.35V842l-0.36,29.87h3.35c1.27,0,2.74-.06,4.43-0.18q9.41,0,18.73.18t19.64,0.18h0.18q0-8.15.09-15.57t0.45-15.57q0-1.81.09-3.71c0.06-1.27.15-2.56,0.27-3.89a22.72,22.72,0,0,1,.63-3.53,17.93,17.93,0,0,1,1.36-3.53,5.14,5.14,0,0,1,1.36-2.44,13.83,13.83,0,0,1,2.45-1.9,11.13,11.13,0,0,1,5.61-1.45q1.44,0,2.62.09a18.45,18.45,0,0,1,2.08.27A6.7,6.7,0,0,1,120,823a4.69,4.69,0,0,1,2,2.9c0.24,0.72.46,1.42,0.63,2.08S123,829.34,123.22,830.06Z" transform="translate(300.2 -734.9)"/><path class="cls-4" d="M212.28,906.27q-0.36,6-.72,12a57.39,57.39,0,0,1-1.9,11.67,32.51,32.51,0,0,1-4.71,10.14,22,22,0,0,1-9,7.24,38.92,38.92,0,0,1-10.86,3.53,57.88,57.88,0,0,1-11.58.81A46.38,46.38,0,0,1,162.32,950a37.66,37.66,0,0,1-9.78-4.25,21.85,21.85,0,0,1-7.06-7.06,39,39,0,0,1-4.26-9.41,54.83,54.83,0,0,1-2.08-10.5q-0.54-5.43-.72-10.14a208,208,0,0,1,0-24.62v-5.34a37.72,37.72,0,0,1,.45-5.88,21.14,21.14,0,0,1,1.54-5.34,7.46,7.46,0,0,1,3.62-3.71q5.43-2.89,10-.36t5.52,10.5a63.11,63.11,0,0,1,.45,9.23,88.16,88.16,0,0,0,.27,9.23q0.18,6.15.36,13.3a43,43,0,0,0,2.08,12.76,15.39,15.39,0,0,0,6.33,8.42q4.43,2.81,13.31.27,4.16-1.26,5.52-6.33t1.36-15q0-4.35-.18-9.59t-0.18-10.41q0-5.16.27-9.59a31,31,0,0,1,1-6.79,7.77,7.77,0,0,1,3.8-4.89,13.12,13.12,0,0,1,6.16-1.72,12.79,12.79,0,0,1,6.15,1.36,7.78,7.78,0,0,1,4,4.71,29.87,29.87,0,0,1,1.54,7.33q0.45,4.44.63,9.59t0.09,10.5Q212.46,901.56,212.28,906.27Z" transform="translate(300.2 -734.9)"/><path class="cls-4" d="M231.1,884.73q0-4.16-.09-8.87a20.34,20.34,0,0,1,1.54-8.51,9.24,9.24,0,0,1,4.8-5,9.4,9.4,0,0,1,6.61-.63,10.89,10.89,0,0,1,5.07,2,8.66,8.66,0,0,1,2.62,3.35,13.51,13.51,0,0,1,1,4.34q0.18,2.45.36,4.8a16,16,0,0,1,4.52-5.25,29.48,29.48,0,0,1,5.61-3.26,28.11,28.11,0,0,1,5.52-1.81,21.68,21.68,0,0,1,4.08-.54,33.65,33.65,0,0,1,13.67,3,30.42,30.42,0,0,1,11.31,8.42,26.73,26.73,0,0,1,3.89,6.79,37.66,37.66,0,0,1,2,7.33,65.65,65.65,0,0,1,.82,7.69q0.18,3.9.36,7.87a146.08,146.08,0,0,1,0,23q-0.18,2.35-.18,5.43a40.7,40.7,0,0,1-.45,6.06,16.78,16.78,0,0,1-1.63,5.25,5.3,5.3,0,0,1-3.89,2.81,15.61,15.61,0,0,1-6.24.45,8,8,0,0,1-3.89-1.72,7.68,7.68,0,0,1-2.17-3.26,33.17,33.17,0,0,1-1.27-4.52q-0.37-2-.63-4.62T284.05,930q-0.1-2.71-.18-5.34c-0.06-1.75-.09-3.35-0.09-4.8q0-3.44-.18-7.6t0-7.79q0-8.5-4.43-12.94t-12-3.71A18.24,18.24,0,0,0,257,892.42a12.34,12.34,0,0,0-4.16,10v4.35q0,2-.09,4t-0.09,4.34V933A30,30,0,0,1,251,943.74a9.53,9.53,0,0,1-4.89,6q-3.44,1.63-8.15-.9a8.33,8.33,0,0,1-3.17-3,16.4,16.4,0,0,1-1.81-4.07,22.19,22.19,0,0,1-.82-4.43c-0.12-1.51-.24-2.92-0.36-4.25q-0.55-6-.63-11.13t-0.09-11.13V884.73Z" transform="translate(300.2 -734.9)"/><path class="cls-4" d="M389.86,869.52a11.25,11.25,0,0,1,.27,7.6q-1.18,4.17-4.25,5.43a18.34,18.34,0,0,1-4.35,1.18q-2.72.45-5.88,0.81t-6.25.55q-3.08.18-5.25,0.18,0.18,5.43.36,11.13t0.36,11.13q0.18,5.43.18,10.41t-0.18,9v6.24a49.65,49.65,0,0,1-.46,6.79,27.15,27.15,0,0,1-1.36,5.7,5,5,0,0,1-2.72,3.17,17.06,17.06,0,0,1-10.23,1.36q-4.62-1-6.6-3.89a18.12,18.12,0,0,1-2.18-5.52,46,46,0,0,1-1-6.52,59.73,59.73,0,0,1-.18-6.52q0.09-3.17.09-5.52,0.18-7.6.27-17.29t0.09-19.46H337.9q-2.17,0-5.52-.09a62.17,62.17,0,0,1-6.7-.54,45.12,45.12,0,0,1-6.24-1.27,7.71,7.71,0,0,1-4.16-2.44,10.41,10.41,0,0,1-2.45-5.07,10.52,10.52,0,0,1,.36-5.16,11.47,11.47,0,0,1,2.62-4.35,8.26,8.26,0,0,1,4.16-2.44,38.7,38.7,0,0,1,9.23-1q6-.09,11.23.09a34.77,34.77,0,0,1-.18-3.53,31,31,0,0,0-.18-3.35q-0.18-2.17-.18-5.52a50.35,50.35,0,0,1,.45-6.7,30.1,30.1,0,0,1,1.54-6.33,10.36,10.36,0,0,1,3.07-4.62,10.48,10.48,0,0,1,5.52-2.45,10.29,10.29,0,0,1,5.25.82,11.32,11.32,0,0,1,4.16,3.17,12.67,12.67,0,0,1,2.44,4.62,43.36,43.36,0,0,1,.91,5.16q0.36,3,.45,6.24t0.09,6.52v6h1.81c1.81,0,3.92-.06,6.33-0.18a47.43,47.43,0,0,1,7.15.18,19.84,19.84,0,0,1,6.43,1.72A8.82,8.82,0,0,1,389.86,869.52Z" transform="translate(300.2 -734.9)"/><path class="cls-5" d="M336.69,972.56a1,1,0,0,1-.65.43,1.33,1.33,0,0,1-.82,0,2,2,0,0,1-.65-0.39,4.59,4.59,0,0,1-.58-0.61q-0.27-.34-0.5-0.7t-0.41-.65q-0.32-.59-0.58-1.19a12.22,12.22,0,0,1-.46-1.24q-0.2-.61-0.34-1.24a10.77,10.77,0,0,1-.22-1.32,11.52,11.52,0,0,1-.12-1.37q0-.73,0-1.44t0-1.23q0-.66.17-1.4t0.3-1.51q0.17-.73.39-1.49t0.52-1.49a13,13,0,0,1,.64-1.44q0.27-.57.63-1.18a3.11,3.11,0,0,1,.92-1,2.58,2.58,0,0,1,1.5-.3,0.65,0.65,0,0,1,.54.25,0.61,0.61,0,0,1,0,.47,2.54,2.54,0,0,1-.27.57,3.47,3.47,0,0,0-.28.54q-0.34.91-.64,1.78a17,17,0,0,0-.49,1.76,25.59,25.59,0,0,0-.64,5.66,24.71,24.71,0,0,0,.15,2.73l0.2,1.22a9.26,9.26,0,0,0,.29,1.24q0.15,0.59.33,1.21a10.5,10.5,0,0,0,.43,1.18,6,6,0,0,0,.43.92,1.62,1.62,0,0,1,.23,1,0.86,0.86,0,0,1,0,.16Z" transform="translate(300.2 -734.9)"/><path class="cls-5" d="M349.68,955.36a5.23,5.23,0,0,1,1.38,2.05,5.46,5.46,0,0,1,.34,2.37,4.47,4.47,0,0,1-.71,2.08,3.79,3.79,0,0,1-1.87,1.44,9,9,0,0,1-1.94.59q-1,.17-2.12.27l-0.87.06-0.82,0h-0.33a1.54,1.54,0,0,0-.33,0v5.09q-0.07.47-.18,1a1.15,1.15,0,0,1-.58.76,1.58,1.58,0,0,1-.66.17,3.35,3.35,0,0,1-.71,0,1.6,1.6,0,0,1-.58-0.18,1,1,0,0,1-.38-0.48,4.37,4.37,0,0,1-.18-0.5,2.43,2.43,0,0,1-.09-0.7v-13.6a1.92,1.92,0,0,1,0-.32l0-.29a1.31,1.31,0,0,0,.07-0.27,1.29,1.29,0,0,1,.07-0.27,1.39,1.39,0,0,1,.11-0.22,0.64,0.64,0,0,1,.16-0.17,1.09,1.09,0,0,1,.38-0.22,2.32,2.32,0,0,1,.78-0.1h0l1.7-.09a10.11,10.11,0,0,1,1.55,0,6.32,6.32,0,0,0,.64.06l0.57,0,0.59,0,0.59,0.07,0.46,0.07,0.43,0.07,0.43,0.1a1.33,1.33,0,0,1,.43.17,3.24,3.24,0,0,1,.86.37Q349.31,955.09,349.68,955.36Zm-1.48,4.06a1.86,1.86,0,0,0-.23-1,2.15,2.15,0,0,0-.73-0.74,4.15,4.15,0,0,0-1.06-.47,7.59,7.59,0,0,0-1.18-.25H344.6l-0.55,0-0.55,0h-0.41l-0.29,0H342.4q0,0.76,0,1.46v1.51q0,0.44,0,.89v0.86l1.53,0a12.81,12.81,0,0,0,1.3-.07,6,6,0,0,0,1.35-.3,3.09,3.09,0,0,0,1.09-.64A1.69,1.69,0,0,0,348.2,959.42Z" transform="translate(300.2 -734.9)"/><path class="cls-5" d="M354.45,960.87a6.09,6.09,0,0,1,1.55-.53,5.35,5.35,0,0,1,1.61-.07,5,5,0,0,1,1.54.42,4.88,4.88,0,0,1,1.38.95,4.75,4.75,0,0,1,1,1.4,6.62,6.62,0,0,1,.49,1.7,5.18,5.18,0,0,0,.32,1.18q0.22,0.54.48,1.08t0.49,1.08a7.39,7.39,0,0,1,.38,1.13,1.85,1.85,0,0,1-.09,1.09,1.05,1.05,0,0,1-.85.65,1.2,1.2,0,0,1-.7-0.06,1.91,1.91,0,0,1-.6-0.39,3.48,3.48,0,0,1-.48-0.57l-0.38-.58a4.59,4.59,0,0,1-1.23,1.14,4,4,0,0,1-1.6.53,7.76,7.76,0,0,1-1.5,0,7.88,7.88,0,0,1-1.53-.27,3.68,3.68,0,0,1-1.73-.95,4.6,4.6,0,0,1-1-1.57,5.54,5.54,0,0,1-.38-1.93,7.18,7.18,0,0,1,.25-2,5.55,5.55,0,0,1,1-2.16A4.75,4.75,0,0,1,354.45,960.87Zm0.61,2.88a2.52,2.52,0,0,0-.54.81,3.08,3.08,0,0,0-.23,1,3.39,3.39,0,0,0,.09,1,2.67,2.67,0,0,0,.39.91,1.81,1.81,0,0,0,.84.58,4.18,4.18,0,0,0,1.23.28,1.8,1.8,0,0,0,1.29-.39,2.78,2.78,0,0,0,.84-1.12,3.44,3.44,0,0,0,.26-1.45,2.83,2.83,0,0,0-.42-1.41,1.79,1.79,0,0,0-.77-0.69,2.55,2.55,0,0,0-1-.23,3,3,0,0,0-1.07.17A2.26,2.26,0,0,0,355.07,963.75Z" transform="translate(300.2 -734.9)"/><path class="cls-5" d="M365.74,962.52v-0.68q0-.38,0-0.79a7.76,7.76,0,0,1,.09-0.79,3,3,0,0,1,.18-0.68,1.08,1.08,0,0,1,.61-0.6,2.22,2.22,0,0,1,.91-0.14,1.62,1.62,0,0,1,.81.17,1.12,1.12,0,0,1,.44.46,1.77,1.77,0,0,1,.18.64,7.28,7.28,0,0,1,0,.75,1.8,1.8,0,0,1,.6-0.64,4.06,4.06,0,0,1,.77-0.39,4.49,4.49,0,0,1,.71-0.21l0.37-.06a8.86,8.86,0,0,1,1.12,0,4.43,4.43,0,0,1,1.12.22,4.7,4.7,0,0,1,.81.41,3.54,3.54,0,0,1,.74.6,1.79,1.79,0,0,1,.43.75,1.17,1.17,0,0,1-.11.85,0.92,0.92,0,0,1-.76.6,4.28,4.28,0,0,1-.91-0.14,2.69,2.69,0,0,1-.64-0.22,2.73,2.73,0,0,0-.64-0.22,2.9,2.9,0,0,0-1.48.12,4.23,4.23,0,0,0-2,1.55v3.54q0,0.66,0,1.38a4.5,4.5,0,0,1-.2,1.29,2,2,0,0,1-.62.93,1.73,1.73,0,0,1-1.24.31,1.1,1.1,0,0,1-.79-0.43,1.76,1.76,0,0,1-.42-0.8q0-.37-0.07-0.89t0-1.08q0-.57,0-1.14v-4.66Z" transform="translate(300.2 -734.9)"/><path class="cls-5" d="M387.49,960.38a1.53,1.53,0,0,1,0,1,1,1,0,0,1-.58.74,2.49,2.49,0,0,1-.59.16l-0.8.11-0.85.07-0.71,0q0,0.74,0,1.51t0,1.51q0,0.74,0,1.41t0,1.22V969a6.75,6.75,0,0,1-.06.92,3.71,3.71,0,0,1-.18.78,0.68,0.68,0,0,1-.37.43,2.32,2.32,0,0,1-1.39.18,1.39,1.39,0,0,1-.9-0.53,2.46,2.46,0,0,1-.3-0.75,6.21,6.21,0,0,1-.14-0.89,8,8,0,0,1,0-.89q0-.43,0-0.75,0-1,0-2.35t0-2.64h-1.12a8.44,8.44,0,0,1-.91-0.07,6.15,6.15,0,0,1-.85-0.17,1.05,1.05,0,0,1-.57-0.33,1.42,1.42,0,0,1-.33-0.69,1.43,1.43,0,0,1,0-.7,1.56,1.56,0,0,1,.36-0.59,1.12,1.12,0,0,1,.57-0.33,5.26,5.26,0,0,1,1.25-.14q0.81,0,1.53,0c0-.16,0-0.32,0-0.48a4.21,4.21,0,0,0,0-.46q0-.3,0-0.75a6.79,6.79,0,0,1,.06-0.91,4.11,4.11,0,0,1,.21-0.86,1.41,1.41,0,0,1,.42-0.63,1.42,1.42,0,0,1,.75-0.33,1.4,1.4,0,0,1,.71.11,1.54,1.54,0,0,1,.57.43,1.72,1.72,0,0,1,.33.63,5.83,5.83,0,0,1,.12.7q0,0.41.06,0.85t0,0.89v0.81h0.25l0.86,0a6.45,6.45,0,0,1,1,0,2.7,2.7,0,0,1,.87.23A1.2,1.2,0,0,1,387.49,960.38Z" transform="translate(300.2 -734.9)"/><path class="cls-5" d="M400.09,960.26a1.2,1.2,0,0,1,.2.74,2.29,2.29,0,0,1-.2,1l-0.14.32-0.17.42c-0.06.15-.12,0.29-0.18,0.42l-0.15.3,0,0.12L398.74,965q-0.32.71-.71,1.53t-0.75,1.54l-0.7,1.46c-0.07.13-.12,0.26-0.17,0.38a2.39,2.39,0,0,1-.2.38L395,972.86q-0.32.64-.6,1.25t-0.63,1.23l-0.14.23a2,2,0,0,0-.11.23,2.3,2.3,0,0,1-.5.58,1.2,1.2,0,0,1-.7.31,1.5,1.5,0,0,1-1.16-.39,1.23,1.23,0,0,1-.47-0.49,1.4,1.4,0,0,1-.1-0.57c0-.1,0-0.19,0-0.28a2.39,2.39,0,0,1,0-.26,1.42,1.42,0,0,0,.07-0.25,0.53,0.53,0,0,1,.07-0.2,0.29,0.29,0,0,1,.12-0.2l1.8-3.89-0.25-.55-0.22-.5-0.68-1.61-0.73-1.7q-0.37-.85-0.76-1.66t-0.79-1.55a4.51,4.51,0,0,1-.27-0.53,3.86,3.86,0,0,1-.2-0.57,1.71,1.71,0,0,1,0-.58,1.24,1.24,0,0,1,.22-0.59,1.2,1.2,0,0,1,.52-0.53,1.39,1.39,0,0,1,.68-0.15,1.75,1.75,0,0,1,.68.16,1.41,1.41,0,0,1,.52.39,3.6,3.6,0,0,1,.66,1q0.25,0.54.47,1.11,0.47,1,1,2.07t1,2.12l1.28-2.71q0.2-.39.36-0.76t0.33-.71q0.2-.42.38-0.86a4.77,4.77,0,0,1,.43-0.81l0.1-.17,0.1-.17a4.42,4.42,0,0,1,.39-0.47l0.21-.16a0.54,0.54,0,0,1,.21-0.09,1.69,1.69,0,0,1,.33-0.06,1.29,1.29,0,0,1,.31,0,5.79,5.79,0,0,1,.59.22A1.09,1.09,0,0,1,400.09,960.26Z" transform="translate(300.2 -734.9)"/><path class="cls-5" d="M403,972.56l0-.16a0.83,0.83,0,0,1,0-.16,1.62,1.62,0,0,1,.23-1,6,6,0,0,0,.43-0.92,10.7,10.7,0,0,0,.43-1.18q0.18-.61.33-1.21a9.37,9.37,0,0,0,.3-1.24l0.2-1.22a24.71,24.71,0,0,0,.15-2.73,25.59,25.59,0,0,0-.64-5.66,17.08,17.08,0,0,0-.49-1.76q-0.3-.87-0.64-1.78-0.12-.25-0.3-0.54a2.84,2.84,0,0,1-.26-0.57,0.61,0.61,0,0,1,0-.47,0.65,0.65,0,0,1,.54-0.25,2.58,2.58,0,0,1,1.5.3,3.12,3.12,0,0,1,.92,1q0.36,0.62.63,1.18a13.16,13.16,0,0,1,.64,1.44q0.27,0.73.52,1.49t0.39,1.49q0.17,0.73.3,1.51t0.17,1.4q0,0.66,0,1.23t0,1.44a11.59,11.59,0,0,1-.12,1.37,10.77,10.77,0,0,1-.22,1.32q-0.15.63-.34,1.24a12.47,12.47,0,0,1-.46,1.24q-0.26.6-.58,1.19l-0.42.65a7.85,7.85,0,0,1-.49.7,4.66,4.66,0,0,1-.58.61,2,2,0,0,1-.65.39,1.33,1.33,0,0,1-.82,0A1,1,0,0,1,403,972.56Z" transform="translate(300.2 -734.9)"/><path class="cls-6" d="M-132.5,967.43a10,10,0,0,1,2.62,3.91,10.39,10.39,0,0,1,.66,4.52,8.52,8.52,0,0,1-1.36,4,7.22,7.22,0,0,1-3.56,2.74,17.21,17.21,0,0,1-3.7,1.12q-1.83.33-4,.52-1,.09-1.66.12l-1.57.07h-0.63a2.94,2.94,0,0,0-.63,0v9.7q-0.14.89-.35,1.83a2.18,2.18,0,0,1-1.1,1.45,3,3,0,0,1-1.27.33,6.38,6.38,0,0,1-1.36,0,3,3,0,0,1-1.1-.35,1.84,1.84,0,0,1-.73-0.91,8.33,8.33,0,0,1-.35-1,4.64,4.64,0,0,1-.16-1.34V968.23a3.7,3.7,0,0,1,0-.61l0.09-.56a2.53,2.53,0,0,0,.14-0.52,2.43,2.43,0,0,1,.14-0.52,2.61,2.61,0,0,1,.21-0.42,1.2,1.2,0,0,1,.3-0.33,2.08,2.08,0,0,1,.73-0.42,4.41,4.41,0,0,1,1.48-.19h0.09q1.45-.09,3.23-0.16a19.27,19.27,0,0,1,3,.07,12,12,0,0,0,1.22.12l1.08,0.07,1.12,0.09q0.56,0,1.12.14t0.87,0.14a8.26,8.26,0,0,1,.82.14l0.82,0.19a2.54,2.54,0,0,1,.82.33,6.17,6.17,0,0,1,1.64.7Q-133.2,966.92-132.5,967.43Zm-2.81,7.73a3.53,3.53,0,0,0-.45-2,4.1,4.1,0,0,0-1.38-1.41,7.91,7.91,0,0,0-2-.89,14.45,14.45,0,0,0-2.25-.47l-0.77,0-1.05,0-1.05,0-0.77,0a2.92,2.92,0,0,0-.56,0h-0.75q0,1.45,0,2.79v2.88q0,0.84,0,1.69v1.64l2.9,0a24.38,24.38,0,0,0,2.48-.14,11.42,11.42,0,0,0,2.58-.56,5.87,5.87,0,0,0,2.08-1.22A3.22,3.22,0,0,0-135.31,975.16Z" transform="translate(300.2 -734.9)"/><path class="cls-7" d="M-149.57,998.73a6.73,6.73,0,0,1-1-.07,4,4,0,0,1-1.44-.47,2.79,2.79,0,0,1-1.13-1.37,9.26,9.26,0,0,1-.39-1.06,5.55,5.55,0,0,1-.21-1.62V968.23a4.69,4.69,0,0,1,.06-0.77l0.15-.76a1.56,1.56,0,0,0,.09-0.32,3.41,3.41,0,0,1,.2-0.72,3.59,3.59,0,0,1,.29-0.58,2.16,2.16,0,0,1,.49-0.55,3.07,3.07,0,0,1,1-.59,5.26,5.26,0,0,1,1.82-.25h0.09c0.91-.06,2-0.12,3.19-0.16a20.37,20.37,0,0,1,3.11.08,11.3,11.3,0,0,0,1.14.11l1.12,0.07,1.12,0.09c0.4,0,.81.08,1.21,0.15s0.58,0.11.82,0.13a9.18,9.18,0,0,1,.92.16l0.81,0.18a3.54,3.54,0,0,1,1,.38,7,7,0,0,1,1.78.78c0.45,0.29.92,0.61,1.41,1l0.09,0.07A11,11,0,0,1-129,971a11.41,11.41,0,0,1,.71,4.94,9.53,9.53,0,0,1-1.51,4.41,8.21,8.21,0,0,1-4,3.12,18.18,18.18,0,0,1-3.89,1.18c-1.24.22-2.62,0.4-4.12,0.53-0.66.06-1.24,0.1-1.71,0.12l-1.55.07h-0.34v8.92c-0.1.61-.22,1.24-0.36,1.89a3.17,3.17,0,0,1-1.56,2.08,4,4,0,0,1-1.69.46Zm-2.13-31.42-0.08.46a2.76,2.76,0,0,0,0,.45v25.91a3.73,3.73,0,0,0,.12,1.05,7.43,7.43,0,0,0,.31.85,1,1,0,0,0,.32.47,2.11,2.11,0,0,0,.75.23,5.44,5.44,0,0,0,1.16,0,2.08,2.08,0,0,0,.86-0.21,1.19,1.19,0,0,0,.62-0.81c0.13-.58.24-1.15,0.33-1.69V983.68l0.74-.19a3.65,3.65,0,0,1,.87-0.08h0.63l1.53-.07c0.44,0,1-.05,1.61-0.11,1.44-.12,2.77-0.29,3.95-0.5a16.32,16.32,0,0,0,3.49-1.06,6.25,6.25,0,0,0,3.12-2.37,7.59,7.59,0,0,0,1.21-3.51,9.47,9.47,0,0,0-.6-4.1,9,9,0,0,0-2.33-3.5c-0.44-.32-0.86-0.61-1.26-0.87a5.24,5.24,0,0,0-1.38-.59l-0.13,0-0.12-.07a1.56,1.56,0,0,0-.51-0.2l-0.86-.2c-0.22,0-.46-0.09-0.7-0.12s-0.6-.08-0.95-0.15-0.67-.1-1-0.13l-1.12-.09-1-.07a13,13,0,0,1-1.31-.13,18.49,18.49,0,0,0-2.77-.06q-1.77.07-3.21,0.16h-0.16a3.44,3.44,0,0,0-1.13.12,1.18,1.18,0,0,0-.38.2l-0.11.09-0.06.06a1.65,1.65,0,0,0-.13.27,1.47,1.47,0,0,0-.08.31A3.62,3.62,0,0,1-151.7,967.31Zm4.35,12.92V977.6c0-.58,0-1.17,0-1.74V973c0-.86,0-1.78,0-2.76l0-1h1.76a4,4,0,0,1,.65,0l0.73,0,1,0,1.06,0,0.73,0h0.12a15.49,15.49,0,0,1,2.4.5,8.94,8.94,0,0,1,2.26,1,5.09,5.09,0,0,1,1.7,1.74,4.51,4.51,0,0,1,.58,2.5v0.06a4.18,4.18,0,0,1-1.32,2.72,6.87,6.87,0,0,1-2.43,1.42,12.45,12.45,0,0,1-2.8.61,25.48,25.48,0,0,1-2.58.15Zm2-9c0,0.63,0,1.23,0,1.8v2.88c0,0.59,0,1.14,0,1.69v0.65l1.91,0a23.54,23.54,0,0,0,2.4-.14,10.49,10.49,0,0,0,2.36-.51,4.93,4.93,0,0,0,1.74-1,2.24,2.24,0,0,0,.69-1.46,2.54,2.54,0,0,0-.31-1.4,3.11,3.11,0,0,0-1.06-1.07,7,7,0,0,0-1.77-.78,13.61,13.61,0,0,0-2-.43l-0.76,0-1,0-1.06,0-0.73,0-0.19,0Z" transform="translate(300.2 -734.9)"/><path class="cls-6" d="M-101.16,994.46c0,0.19.05,0.37,0.07,0.54s0,0.37,0,.59a1.76,1.76,0,0,1-.33,1,2,2,0,0,1-.37.44,2,2,0,0,1-.56.35,3.85,3.85,0,0,1-2.48.47,3.22,3.22,0,0,1-1.17-.61l-0.14-.12a0.24,0.24,0,0,1-.09-0.12l-0.09-.12a0.35,0.35,0,0,0-.14-0.12,2.91,2.91,0,0,1-.37-0.45l-0.28-.44a4.1,4.1,0,0,0-.21-0.44l-0.26-.45-0.19-.35a1.34,1.34,0,0,1-.14-0.35,2.85,2.85,0,0,1-.23-0.75l-1-2.3-6.44,0q-3.21,0-6.44,0l-1,2.3a1.15,1.15,0,0,0-.12.37,1.16,1.16,0,0,1-.12.37l-0.16.35-0.16.35-0.26.45-0.26.44a2.44,2.44,0,0,1-.23.44,3,3,0,0,1-.37.45,0.35,0.35,0,0,0-.14.12l-0.09.12a0.25,0.25,0,0,1-.09.12,0.67,0.67,0,0,0-.14.12,3.23,3.23,0,0,1-1.17.61,3.85,3.85,0,0,1-2.48-.47,2,2,0,0,1-.56-0.35,1.93,1.93,0,0,1-.37-0.44,1.76,1.76,0,0,1-.33-1c0-.22,0-0.41,0-0.59s0-.35.07-0.54a8.56,8.56,0,0,1,.23-0.84l0.14-.42,9.74-24,0.28-.75a2.61,2.61,0,0,1,.23-0.52,2.35,2.35,0,0,0,.23-0.56,7,7,0,0,1,.52-1.08,2.88,2.88,0,0,1,.33-0.52l0.37-.47a2,2,0,0,1,.8-0.61,4.53,4.53,0,0,1,1.52-.23,4.54,4.54,0,0,1,1.52.23,2,2,0,0,1,.8.61q0.33,0.42.7,1a7,7,0,0,1,.52,1.08,2.32,2.32,0,0,0,.23.56,2.65,2.65,0,0,1,.23.52l0.28,0.75,9.74,24,0.14,0.42A8.74,8.74,0,0,1-101.16,994.46ZM-112.26,983q-0.61-1.36-1.24-2.81t-1.34-3l-0.37-.87-0.37-.87q-0.14.42-.33,0.87l-0.37.87q-0.7,1.5-1.33,3t-1.24,2.81l-0.84,2.06h8.29Z" transform="translate(300.2 -734.9)"/><path class="cls-7" d="M-104.24,998.9a5.06,5.06,0,0,1-.71-0.05l-0.13,0a4.21,4.21,0,0,1-1.52-.79l-0.06-.06a1.15,1.15,0,0,1-.35-0.35h0l-0.11-.11a3.89,3.89,0,0,1-.5-0.6l-0.31-.48-0.07-.13a3.17,3.17,0,0,0-.16-0.34l-0.24-.42,0-.06-0.17-.31a2.28,2.28,0,0,1-.21-0.51,3.88,3.88,0,0,1-.25-0.8l-0.68-1.6-5.79,0c-1.93,0-3.88,0-5.81,0l-0.77,1.81a2.15,2.15,0,0,1-.21.69l-0.14.3c-0.05.12-.12,0.26-0.19,0.4l0,0.07-0.24.42-0.24.42a3.43,3.43,0,0,1-.3.55,3.94,3.94,0,0,1-.5.59l-0.13.12a1.17,1.17,0,0,1-.34.35l-0.07.07a4.22,4.22,0,0,1-1.52.79l-0.13,0a4.82,4.82,0,0,1-3.05-.56,3,3,0,0,1-.78-0.5,2.92,2.92,0,0,1-.54-0.64,2.72,2.72,0,0,1-.48-1.56c0-.25,0-0.48,0-0.68s0-.4.08-0.61a9.47,9.47,0,0,1,.27-1l0.14-.42,9.77-24,0.27-.72a3.48,3.48,0,0,1,.31-0.67,1.39,1.39,0,0,0,.13-0.33l0-.08a8,8,0,0,1,.57-1.2,3.86,3.86,0,0,1,.42-0.65l0.37-.47a3,3,0,0,1,1.15-.89l0.08,0a6.07,6.07,0,0,1,3.7,0l0.08,0a3,3,0,0,1,1.17.91c0.22,0.28.47,0.63,0.73,1a8,8,0,0,1,.61,1.27l0,0.08a1.36,1.36,0,0,0,.13.33,3.64,3.64,0,0,1,.32.71l0.27,0.72,9.73,24,0.16,0.48a9.71,9.71,0,0,1,.26.94v0.06c0,0.21.06,0.41,0.08,0.6s0,0.43,0,.68a2.72,2.72,0,0,1-.49,1.56,3,3,0,0,1-.54.64,3,3,0,0,1-.78.5A4.82,4.82,0,0,1-104.24,998.9ZM-124,997.46h0Zm19.39-.53a2.86,2.86,0,0,0,1.8-.36l0.09,0a1.05,1.05,0,0,0,.29-0.18,1,1,0,0,0,.19-0.22l0-.06a0.79,0.79,0,0,0,.15-0.47c0-.19,0-0.35,0-0.5s0-.28-0.06-0.44-0.12-.49-0.2-0.72l-0.14-.42-9.72-23.93-0.29-.77a1.82,1.82,0,0,0-.16-0.36,3.27,3.27,0,0,1-.32-0.75,6,6,0,0,0-.43-0.89c-0.21-.31-0.43-0.63-0.64-0.89a1,1,0,0,0-.39-0.3,4.19,4.19,0,0,0-2.31,0,1,1,0,0,0-.38.29l-0.39.49a1.88,1.88,0,0,0-.22.34l0,0.07a5.94,5.94,0,0,0-.43.89,3.24,3.24,0,0,1-.32.75,1.67,1.67,0,0,0-.14.32l-0.29.78-9.75,24-0.12.36a7.63,7.63,0,0,0-.21.75c0,0.11,0,.27-0.05.41s0,0.32,0,.5a0.78,0.78,0,0,0,.15.47l0,0.06a1,1,0,0,0,.19.22,1,1,0,0,0,.29.18l0.09,0a2.86,2.86,0,0,0,1.8.36,2.24,2.24,0,0,0,.73-0.38l0.07-.07h0l0.11-.11a1.09,1.09,0,0,1,.31-0.32,1.74,1.74,0,0,0,.18-0.22,1.47,1.47,0,0,0,.14-0.27l0.07-.14,0.24-.42,0.25-.44,0.12-.27c0.05-.13.12-0.26,0.19-0.41a2.57,2.57,0,0,1,.23-0.75l1.22-2.84H-122c2.13,0,4.29,0,6.42,0l6.45,0h0.64l1.29,3,0,0.13a1.87,1.87,0,0,0,.16.49l0.06,0.16a0.36,0.36,0,0,0,0,.1l0.2,0.37,0.26,0.44a5.06,5.06,0,0,1,.23.48l0.22,0.35a1.77,1.77,0,0,0,.18.22,1.28,1.28,0,0,1,.34.34l0.12,0.12,0,0A2.22,2.22,0,0,0-104.61,996.93Zm-1.09-.65,0.09,0Zm-19.75,0-0.05,0ZM-110,986h-11.2l1.39-3.41c0.42-.93.83-1.87,1.25-2.83s0.88-2,1.35-3l0.36-.83c0.11-.27.21-0.54,0.3-0.8l0.8-2.39,1,2.3,0.38,0.88,0.37,0.85c0.46,1,.91,2,1.34,3s0.83,1.9,1.24,2.8v0Zm-8.29-2h5.38l-0.29-.7q-0.61-1.36-1.24-2.81c-0.37-.85-0.76-1.72-1.17-2.59q-0.61,1.32-1.17,2.59-0.63,1.46-1.25,2.82Z" transform="translate(300.2 -734.9)"/><path class="cls-6" d="M-71.83,994.09a13.9,13.9,0,0,1-.21,1.69,2.28,2.28,0,0,1-.91,1.45,2.45,2.45,0,0,1-1.26.56,3.75,3.75,0,0,1-1.38-.07,4.84,4.84,0,0,1-1.29-.52,3.12,3.12,0,0,1-1-.87,45.05,45.05,0,0,1-2.93-4.05l-2.69-4.19-3.94-5.95q-0.8-1.26-1.69-2.83t-1.83-2.93l-0.14,17.9v0.42a4.4,4.4,0,0,1-.26,1.48,2.86,2.86,0,0,1-.87,1.24,2.72,2.72,0,0,1-1.22.52,3,3,0,0,1-1.94-.14,3,3,0,0,1-1.22-1,4,4,0,0,1-.61-1.52,5.71,5.71,0,0,1-.07-1.71v-0.8l0.09-3.65,0-6.79q0-1.5,0-3.07V976q0-2,0-4.26t0.16-4.22a4.49,4.49,0,0,1,.52-1.83,2,2,0,0,1,1-1.12,3.15,3.15,0,0,1,1.33-.42,4.28,4.28,0,0,1,1.43,0l0.47,0.21,0.47,0.26,0.45,0.37a3.46,3.46,0,0,1,.4.42,4.2,4.2,0,0,1,.42.49l0.37,0.49q0.14,0.28.28,0.52a4.11,4.11,0,0,0,.33.47l0.52,0.75,10.82,17.05v-3.09q0-1.5,0-3.07t-0.07-3.26q0-2,0-4.22t0.12-4.22a4.51,4.51,0,0,1,.47-1.83,2,2,0,0,1,.8-1,3.49,3.49,0,0,1,1.26-.52,3.56,3.56,0,0,1,1.41,0,2.73,2.73,0,0,1,1.22.56,3.07,3.07,0,0,1,.28.33,1.87,1.87,0,0,1,.23.42,4.28,4.28,0,0,1,.28,1.08,5.68,5.68,0,0,1,.14,1.17q0,5.86,0,11.95t0.07,11.95q0,0.66,0,1.29A9,9,0,0,1-71.83,994.09Z" transform="translate(300.2 -734.9)"/><path class="cls-7" d="M-94.27,999a3.48,3.48,0,0,1-1.53-.33,4,4,0,0,1-1.6-1.36,5,5,0,0,1-.76-1.89,6.71,6.71,0,0,1-.09-1.94v-0.74l0.09-3.68,0-6.77c0-1,0-2,0-3.06V976c0-1.32,0-2.77,0-4.29s0.1-2.92.16-4.23a5.59,5.59,0,0,1,.59-2.16,3,3,0,0,1,1.39-1.58,4.09,4.09,0,0,1,1.72-.55,5.23,5.23,0,0,1,1.76.07l0.15,0,0.54,0.24,0.54,0.29,0.11,0.08,0.48,0.41a4.45,4.45,0,0,1,.48.5,5.19,5.19,0,0,1,.48.57l0.35,0.46,0.11,0.18c0.08,0.16.16,0.31,0.24,0.45a3.16,3.16,0,0,0,.25.36l0,0.06,0.52,0.75,9,14.25q0-1.36,0-2.79t-0.07-3.24c0-1.34,0-2.75,0-4.25s0.06-2.93.12-4.25a5.44,5.44,0,0,1,.55-2.18,3,3,0,0,1,1.14-1.39,4.47,4.47,0,0,1,1.62-.66,4.55,4.55,0,0,1,1.79,0,3.71,3.71,0,0,1,1.65.76l0.07,0.06a4.06,4.06,0,0,1,.37.43,2.86,2.86,0,0,1,.36.64,5.34,5.34,0,0,1,.34,1.29,6.51,6.51,0,0,1,.15,1.33q0,5.85,0,11.94t0.07,11.94c0,0.42,0,.83,0,1.22a10,10,0,0,1,0,1.42,15,15,0,0,1-.22,1.8A3.24,3.24,0,0,1-72.37,998a3.36,3.36,0,0,1-1.72.75,4.73,4.73,0,0,1-1.74-.09,5.84,5.84,0,0,1-1.55-.62,4.11,4.11,0,0,1-1.29-1.14,45.73,45.73,0,0,1-3-4.1l-2.69-4.19-3.93-5.94c-0.55-.88-1.13-1.85-1.72-2.89l0,0-0.11,15a5.39,5.39,0,0,1-.31,1.8,3.84,3.84,0,0,1-1.16,1.66,3.71,3.71,0,0,1-1.67.73A5.19,5.19,0,0,1-94.27,999Zm0.83-33.9-0.51,0a2.22,2.22,0,0,0-.92.28,1.19,1.19,0,0,0-.57.57l-0.09.21a3.54,3.54,0,0,0-.39,1.43c-0.06,1.27-.11,2.67-0.16,4.16s-0.05,2.9,0,4.21v3.23c0,1,0,2.08,0,3.1l0,6.77-0.09,3.67v0.88a4.75,4.75,0,0,0,.06,1.42,3,3,0,0,0,.46,1.16,2.06,2.06,0,0,0,.84.7,2.13,2.13,0,0,0,1.33.06,1.81,1.81,0,0,0,.8-0.32,1.86,1.86,0,0,0,.56-0.81,3.45,3.45,0,0,0,.2-1.15v-0.42l0.16-21,1.76,2.55c0.64,0.93,1.27,1.94,1.87,3s1.14,2,1.66,2.8l3.92,5.93,2.7,4.21a44.26,44.26,0,0,0,2.86,4,2.21,2.21,0,0,0,.71.64,3.89,3.89,0,0,0,1,.41,2.77,2.77,0,0,0,1,.05,1.48,1.48,0,0,0,.77-0.34A1.35,1.35,0,0,0-73,995.6a13,13,0,0,0,.2-1.57h0a8.06,8.06,0,0,0,0-1.15c0-.44,0-0.9,0-1.36q0-5.85-.07-11.94t0-12a4.76,4.76,0,0,0-.12-1l0-.1a3.35,3.35,0,0,0-.22-0.83,0.88,0.88,0,0,0-.11-0.19l-0.16-.19a1.77,1.77,0,0,0-.75-0.33,2.57,2.57,0,0,0-1,0,2.49,2.49,0,0,0-.91.37,1.07,1.07,0,0,0-.43.52,3.73,3.73,0,0,0-.4,1.48c-0.06,1.34-.1,2.75-0.12,4.23s0,2.9,0,4.21c0,1.1.05,2.19,0.07,3.24s0,2.08,0,3.08v6.45L-90.23,968a5.08,5.08,0,0,1-.38-0.55c-0.09-.15-0.18-0.31-0.27-0.49l-0.34-.45a3.25,3.25,0,0,0-.32-0.37l-0.07-.08a2.49,2.49,0,0,0-.29-0.3l-0.35-.3-0.35-.19-0.32-.15A2.77,2.77,0,0,0-93.44,965.09Z" transform="translate(300.2 -734.9)"/><path class="cls-6" d="M-43.4,978.82a24.25,24.25,0,0,1,0,3.19q-0.12,1.64-.35,3.19a18.87,18.87,0,0,1-1.73,5.2,11.89,11.89,0,0,1-3.7,4.31A14.58,14.58,0,0,1-55,997.25a39.76,39.76,0,0,1-6.42.82,20.5,20.5,0,0,1-2.18.07,10.66,10.66,0,0,1-2.13-.26,2.5,2.5,0,0,1-1.26-.52,1.08,1.08,0,0,1-.37-0.37,3.25,3.25,0,0,1-.23-0.47,2,2,0,0,1-.21-0.49c0-.17-0.1-0.35-0.16-0.54S-68,995.19-68,995a3.48,3.48,0,0,1,0-.4V967.29a1.75,1.75,0,0,1,.09-0.56,4.11,4.11,0,0,1,.28-1.08,1.54,1.54,0,0,1,.52-0.8,2.26,2.26,0,0,1,.56-0.35l0.52-.21a1.06,1.06,0,0,1,.59,0,1,1,0,0,0,.68-0.12l7.82,0.19a12.1,12.1,0,0,1,5.53,1.43,14.51,14.51,0,0,1,4.17,3.4,16.15,16.15,0,0,1,2.72,4.61A17.69,17.69,0,0,1-43.4,978.82Zm-8.71,8.9a10.34,10.34,0,0,0,1.31-3.23,14.89,14.89,0,0,0,.37-3.72,16.31,16.31,0,0,0-.52-3.7,12.15,12.15,0,0,0-1.31-3.21,5.46,5.46,0,0,0-1.69-1.69,8.46,8.46,0,0,0-2.3-1,15.8,15.8,0,0,0-2.69-.49q-1.43-.14-2.79-0.14,0,1.36,0,2.62v2.67q0,1.69,0,3.28v12.65q1.45,0,2.79-.16a10.92,10.92,0,0,0,2.58-.54,8.46,8.46,0,0,0,2.3-1.19A8.1,8.1,0,0,0-52.11,987.72Z" transform="translate(300.2 -734.9)"/><path class="cls-7" d="M-63.13,999.12h-0.45a11.68,11.68,0,0,1-2.33-.28,3.37,3.37,0,0,1-1.63-.68,2,2,0,0,1-.63-0.66,4.34,4.34,0,0,1-.27-0.54,2.93,2.93,0,0,1-.27-0.67c0-.15-0.09-0.32-0.15-0.49l0-.12c0-.19-0.07-0.36-0.08-0.53a4.42,4.42,0,0,1,0-.5V967.29a2.72,2.72,0,0,1,.12-0.78,5,5,0,0,1,.32-1.21,2.48,2.48,0,0,1,.83-1.21,3.22,3.22,0,0,1,.78-0.48l0.53-.22a2.08,2.08,0,0,1,1.12-.08l0.07,0,0.22-.11,8.07,0.19a13.13,13.13,0,0,1,6,1.55,15.54,15.54,0,0,1,4.45,3.62,17.2,17.2,0,0,1,2.88,4.89,18.74,18.74,0,0,1,1.23,5.31h0a25.32,25.32,0,0,1,0,3.31c-0.08,1.11-.2,2.21-0.36,3.26a20,20,0,0,1-1.82,5.49,12.91,12.91,0,0,1-4,4.66,15.61,15.61,0,0,1-6.14,2.72,40.91,40.91,0,0,1-6.58.84C-61.91,999.1-62.52,999.12-63.13,999.12ZM-67,995.25c0.06,0.18.11,0.36,0.16,0.53a1,1,0,0,0,.11.25l0.07,0.14a2.24,2.24,0,0,0,.16.33l0.19,0.15a1.56,1.56,0,0,0,.78.28,10,10,0,0,0,2,.24,19.49,19.49,0,0,0,2.07-.07,39.21,39.21,0,0,0,6.3-.8,13.68,13.68,0,0,0,5.38-2.38,11,11,0,0,0,3.41-4A18,18,0,0,0-44.73,985c0.15-1,.26-2,0.34-3.09a23.4,23.4,0,0,0,0-3.05,16.8,16.8,0,0,0-1.11-4.75A15.25,15.25,0,0,0-48,969.79a13.6,13.6,0,0,0-3.89-3.17A11.19,11.19,0,0,0-57,965.32l-7.6-.18a1.87,1.87,0,0,1-1.09.09l-0.51.18a1.3,1.3,0,0,0-.31.2l-0.05,0a0.79,0.79,0,0,0-.16.31l0,0.09a3.13,3.13,0,0,0-.21.82l0,0.17a0.78,0.78,0,0,0,0,.25v27.36a2.48,2.48,0,0,0,0,.29C-67,995-67,995.14-67,995.25Zm1.73-31.93h0Zm2.58,29.43V979.1c0-1.08,0-2.19,0-3.31v-2.64c0-.82,0-1.69,0-2.59l0-1h1c0.93,0,1.9,0,2.88.15a16.85,16.85,0,0,1,2.86.52,9.47,9.47,0,0,1,2.56,1.12,6.45,6.45,0,0,1,2,2A13.21,13.21,0,0,1-50,976.81a17.37,17.37,0,0,1,.55,3.92,15.93,15.93,0,0,1-.4,4,11.36,11.36,0,0,1-1.44,3.54h0a9.1,9.1,0,0,1-2.18,2.38A9.47,9.47,0,0,1-56,992a11.94,11.94,0,0,1-2.81.59c-0.91.08-1.87,0.14-2.84,0.17Zm2-21.23c0,0.56,0,1.1,0,1.63v2.67q0,1.69,0,3.28v11.63c0.59,0,1.17-.07,1.73-0.12a10,10,0,0,0,2.35-.49,7.53,7.53,0,0,0,2-1.06,7.17,7.17,0,0,0,1.7-1.87,9.43,9.43,0,0,0,1.18-2.92,14,14,0,0,0,.35-3.48,15.42,15.42,0,0,0-.48-3.48,11.22,11.22,0,0,0-1.2-3A4.42,4.42,0,0,0-54.46,973a7.52,7.52,0,0,0-2-.89,14.93,14.93,0,0,0-2.53-.46C-59.59,971.58-60.16,971.54-60.71,971.52Z" transform="translate(300.2 -734.9)"/><path class="cls-6" d="M-33.14,970.1l-0.09,7.35h1.87q1.92,0,3.42,0t3.33,0h0.23l1.1,0,1.05,0a7.84,7.84,0,0,1,1.08.16l1,0.26a3.17,3.17,0,0,1,1.31.84,2.18,2.18,0,0,1,.47,1.36v0.54a1.44,1.44,0,0,1-.09.54,1.59,1.59,0,0,1-.61.94,1.42,1.42,0,0,1-.89.47,5.54,5.54,0,0,1-1.22.23,6.27,6.27,0,0,1-1.31.14h-2.2l-8.67,0-0.09,9.18,9.32,0.09h2.9a3.72,3.72,0,0,1,.61,0,4,4,0,0,0,.68.12,2.46,2.46,0,0,1,.59.12,2.72,2.72,0,0,1,.94.52,2.24,2.24,0,0,1,.61,1,4.86,4.86,0,0,1,.07.49,2.13,2.13,0,0,1,0,.54,2.17,2.17,0,0,1-.47,1.36,2.51,2.51,0,0,1-1.31.84,5.42,5.42,0,0,1-2.15.42q-0.52,0-1.08,0t-1.08,0H-24.1q-3.65.09-7.59,0l-1.5,0-1,0h-2.13a2.71,2.71,0,0,1-1.78-.37,2.19,2.19,0,0,1-.8-0.89,0.41,0.41,0,0,1-.14-0.28,0.57,0.57,0,0,0-.09-0.14,0.51,0.51,0,0,1-.09-0.14,2.49,2.49,0,0,1-.14-0.49,2.73,2.73,0,0,1,0-.49c0-.16-0.05-0.31-0.07-0.47s0-.31-0.07-0.47v-0.75a2.92,2.92,0,0,1,0-.37,3.07,3.07,0,0,0,0-.37v-3.65l0.09-6.75v-6.23q0-1.69,0-3t0.07-2.86v-0.23c0-.34.05-0.66,0.07-1s0-.6,0-0.91a4.35,4.35,0,0,1,.52-1.83,4.25,4.25,0,0,1,.4-0.66,1.62,1.62,0,0,1,.59-0.47,2.78,2.78,0,0,1,1.45-.42,2.5,2.5,0,0,1,.56,0v0h2.37l1.05,0,1.55,0q1.87,0,3.56,0t3.47,0h0.19q0.52,0,1.08,0t1.08,0a4.67,4.67,0,0,1,1,.12,8.7,8.7,0,0,1,1,.3,2.82,2.82,0,0,1,1.31.8,2.41,2.41,0,0,1,.42,1.31v0.54a1.31,1.31,0,0,1-.09.49,1.7,1.7,0,0,1-.56,1,3.87,3.87,0,0,0-.4.23,2.05,2.05,0,0,1-.49.23,2.4,2.4,0,0,1-.59.12l-0.59.07a2.81,2.81,0,0,1-.68.09h-2.79l-9.37,0v0.14Z" transform="translate(300.2 -734.9)"/><path class="cls-7" d="M-27.82,998.86c-1.27,0-2.57,0-3.89,0l-1.52,0-1,0h-2.09a3.65,3.65,0,0,1-2.36-.54,3.12,3.12,0,0,1-1.06-1.14,1.4,1.4,0,0,1-.24-0.43,1.66,1.66,0,0,1-.16-0.26l0-.06a3.49,3.49,0,0,1-.2-0.68,3.74,3.74,0,0,1-.06-0.56c0-.16-0.05-0.32-0.07-0.47s0-.25-0.06-0.38l0-.19v-0.75a3.89,3.89,0,0,1,0-.5,2,2,0,0,0,0-.25v-3.65l0.09-6.76v-6.22q0-1.7,0-3T-40.3,970v-0.29c0-.33.05-0.64,0.07-0.93s0-.57,0-0.86a5.37,5.37,0,0,1,.63-2.28,5.19,5.19,0,0,1,.48-0.79,2.58,2.58,0,0,1,.89-0.74,3.75,3.75,0,0,1,1.92-.54h2.93l1,0c0.39,0,.92,0,1.59,0,1.24,0,2.45,0,3.56,0s2.29,0,3.49,0h0.25c0.65,0.06,1.42,0,2.11.09a5.68,5.68,0,0,1,1.2.14,9.75,9.75,0,0,1,1.15.34,3.73,3.73,0,0,1,1.7,1.05l0.1,0.13a3.38,3.38,0,0,1,.58,1.84v0.54a2.3,2.3,0,0,1-.12.73,2.73,2.73,0,0,1-.82,1.44l-0.11.11-0.14.07-0.3.18a3,3,0,0,1-.72.35,3.36,3.36,0,0,1-.82.16l-0.46.05a3.75,3.75,0,0,1-.87.11h-2.79l-8.4,0-0.07,5.55h0.89c1.27,0,2.41,0,3.42,0s2.12,0,3.35,0h0.21l1.14,0,1,0h0.08a8.83,8.83,0,0,1,1.21.18l1.07,0.27,0.07,0a4.15,4.15,0,0,1,1.71,1.1l0.05,0.07a3.14,3.14,0,0,1,.67,2v0.54a2.46,2.46,0,0,1-.13.81,2.53,2.53,0,0,1-.85,1.35,2.41,2.41,0,0,1-1.35.73,6.54,6.54,0,0,1-1.33.26,7.25,7.25,0,0,1-1.45.15h-2.2l-7.7,0-0.07,7.25,11.24,0.08a4.7,4.7,0,0,1,.77.06l0.08,0a3.12,3.12,0,0,0,.51.09,3.44,3.44,0,0,1,.82.16,3.7,3.7,0,0,1,1.27.71l0,0a3.21,3.21,0,0,1,.86,1.42l0,0.07a5.87,5.87,0,0,1,.08.59,3.09,3.09,0,0,1,0,.71,3.14,3.14,0,0,1-.67,1.87,3.53,3.53,0,0,1-1.77,1.17,6.42,6.42,0,0,1-2.43.47c-0.69.06-1.46,0-2.11,0.09H-24.1C-25.3,998.84-26.55,998.86-27.82,998.86Zm-8.55-2h2.17l1,0,1.46,0c2.62,0.06,5.16.06,7.56,0h0.26c0.66-.06,1.43,0,2.11-0.09h0.09a4.48,4.48,0,0,0,1.77-.34l0.15,0a1.55,1.55,0,0,0,.81-0.53,1.17,1.17,0,0,0,.23-0.72V995a1.15,1.15,0,0,0,0-.29c0-.12,0-0.24,0-0.35a1.31,1.31,0,0,0-.32-0.5,1.8,1.8,0,0,0-.58-0.3,1.49,1.49,0,0,0-.35-0.07,5,5,0,0,1-.8-0.13,2.85,2.85,0,0,0-.41,0h-2.9l-10.31-.1,0.11-11.12,11.83-.05a5.33,5.33,0,0,0,1.11-.12l0.13,0a4.59,4.59,0,0,0,1-.19l0.08,0a0.9,0.9,0,0,0,.33-0.11l0.15-.16a0.68,0.68,0,0,0,.27-0.36l0.05-.19a0.49,0.49,0,0,0,0-.18v-0.54a1.19,1.19,0,0,0-.24-0.73,2.19,2.19,0,0,0-.86-0.54l-1-.24a6.87,6.87,0,0,0-.9-0.14l-1.06,0-1.06,0h-0.23c-1.23,0-2.33,0-3.33,0s-2.12,0-3.4,0h-2.89l0.11-9.44,13.13-.05a1.87,1.87,0,0,0,.44-0.06l0.08,0c0.21,0,.44-0.06.67-0.08a1.43,1.43,0,0,0,.35-0.07,1.09,1.09,0,0,0,.26-0.12l0.34-.21a0.72,0.72,0,0,0,.19-0.29l0.07-.26a0.34,0.34,0,0,0,0-.13v-0.54a1.39,1.39,0,0,0-.22-0.71A1.88,1.88,0,0,0-19.6,966a8.38,8.38,0,0,0-1-.29,3.73,3.73,0,0,0-.81-0.09h-0.09c-0.68-.06-1.45,0-2.11-0.09h-0.14c-1.21,0-2.37,0-3.47,0s-2.28,0-3.54,0l-1.53,0-1.09,0h-1.39v0.27l-1.21-.25a1.83,1.83,0,0,0-.33,0,1.81,1.81,0,0,0-.95.28l-0.07,0a0.67,0.67,0,0,0-.24.18,3.3,3.3,0,0,0-.31.51,3.39,3.39,0,0,0-.41,1.44c0,0.28,0,.6,0,0.92s0,0.61-.07,1v0.19c0,1.06-.06,2-0.07,2.88s0,1.86,0,3v6.23l-0.09,6.76v3.64a4.06,4.06,0,0,1,0,.49,2,2,0,0,0,0,.26V994q0,0.23.07,0.46a3.78,3.78,0,0,0,.06.38l0,0.19a1.77,1.77,0,0,0,0,.32,1.56,1.56,0,0,0,.06.22,1.58,1.58,0,0,1,.18.29l0.14,0.28a1.22,1.22,0,0,0,.45.5,1.76,1.76,0,0,0,1.17.23h0Zm-2.09-1.41,0,0Z" transform="translate(300.2 -734.9)"/><path class="cls-6" d="M14.69,994.28c0,0.37-.08.77-0.14,1.17a4.3,4.3,0,0,1-.33,1.12,2.2,2.2,0,0,1-1.83,1.36,2.57,2.57,0,0,1-1.27.14,4.31,4.31,0,0,1-1.12-.33,2.67,2.67,0,0,1-1-1,4.89,4.89,0,0,1-.44-1.24,6.47,6.47,0,0,1-.14-1.36v-5l0-7.17v-1.94q0-.35,0-0.8t0-1.29c0-.09,0-0.26,0-0.49s0-.87-0.07-1.9q-1.83,3-3,4.9a33.47,33.47,0,0,1-2,2.86,5.78,5.78,0,0,1-1.43,1.36,2.91,2.91,0,0,1-1.26.4A1.29,1.29,0,0,1-.16,985a4,4,0,0,1-.73-0.47,7.8,7.8,0,0,1-.66-0.59A3.85,3.85,0,0,1-2,983.31q-1.12-1.4-2.53-3.37a43.48,43.48,0,0,1-2.9-4.78s0,0.55,0,1.55,0,2.24,0,3.72,0,3.08,0,4.78,0,3.29,0,4.76,0,2.69-.07,3.68a9,9,0,0,1-.09,1.48,3,3,0,0,1-.37,1.48,3.11,3.11,0,0,1-1,1.1,2.91,2.91,0,0,1-1.48.47,3.55,3.55,0,0,1-1.83-.47,2.3,2.3,0,0,1-.91-1.08,5.35,5.35,0,0,1-.4-1.31q0-.66-0.07-1.27t0-1.27l0-3.65,0-7.22v-6.28q0-4.08.28-8a3.75,3.75,0,0,1,.12-1,5.61,5.61,0,0,1,.3-0.87,2.69,2.69,0,0,1,1-1.12,2.86,2.86,0,0,1,1.5-.42l0.63,0,0.59,0.07a2.66,2.66,0,0,1,1.62,1.1A18.77,18.77,0,0,0-6.44,967a11,11,0,0,1,.8,1q0.42,0.61.84,1.27l0.8,1.26,0.66,1.08q1.22,2,2.18,3.61t1.8,2.81a3.45,3.45,0,0,0,.33-0.4l0.4-.56q0.21-.3.37-0.59c0.11-.19.19-0.34,0.26-0.47l0.94-1.48,1-1.55q0.54-.82,1.12-1.8T6.45,969q0.33-.56.84-1.36a13.41,13.41,0,0,1,1.17-1.55,8.86,8.86,0,0,1,1.38-1.29,2.46,2.46,0,0,1,1.48-.54l0.66,0,0.56,0.07a1.83,1.83,0,0,1,1.08.52,2.67,2.67,0,0,1,.56.8,5.85,5.85,0,0,1,.23,1q0,0.33.07,0.61t0,0.56q0,2.62,0,5.2t0,5.2q0,3.19,0,6.56t0,6.56q0,0.66,0,1.41A12.17,12.17,0,0,1,14.69,994.28Z" transform="translate(300.2 -734.9)"/><path class="cls-7" d="M-10.74,999.14a4.64,4.64,0,0,1-2.14-.58l-0.06,0a3.26,3.26,0,0,1-1.3-1.52,6.34,6.34,0,0,1-.47-1.55v-0.08q0-.67-0.07-1.3c0-.42,0-0.85,0-1.3l0-3.67,0-7.21v-6.27c0-2.72.09-5.42,0.28-8a4.72,4.72,0,0,1,.15-1.17,6.61,6.61,0,0,1,.36-1,3.7,3.7,0,0,1,1.36-1.56,3.85,3.85,0,0,1,2-.57l0.71,0,0.67,0.08a3.63,3.63,0,0,1,2.24,1.48,17.84,17.84,0,0,0,1.22,1.49,12,12,0,0,1,.88,1.14q0.43,0.62.86,1.29l0.81,1.28,0.66,1.09c0.8,1.29,1.53,2.51,2.18,3.62,0.34,0.59.68,1.13,1,1.62L0.9,976l0.23-.41,0-.08L2.11,974l1-1.55c0.34-.52.71-1.12,1.1-1.77s0.86-1.42,1.39-2.27c0.21-.36.5-0.82,0.85-1.37a14.48,14.48,0,0,1,1.26-1.66A9.88,9.88,0,0,1,9.26,964a3.42,3.42,0,0,1,2.06-.73c0.28,0,.53,0,0.74,0l0.61,0.07a2.8,2.8,0,0,1,1.61.76,3.71,3.71,0,0,1,.8,1.12l0,0.11a6.73,6.73,0,0,1,.27,1.21c0,0.21.06,0.43,0.07,0.63s0,0.43,0,.64c0,1.74,0,3.48,0,5.18s0,3.51,0,5.22q0,3.18,0,6.55t0,6.56c0,0.42,0,.87,0,1.34a13.27,13.27,0,0,1,0,1.62v0c0,0.4-.08.81-0.15,1.24a5.3,5.3,0,0,1-.4,1.38,3.18,3.18,0,0,1-2.51,1.92A3.49,3.49,0,0,1,11,999a5.32,5.32,0,0,1-1.38-.41l-0.12-.07a3.64,3.64,0,0,1-1.3-1.38,5.89,5.89,0,0,1-.53-1.49,7.48,7.48,0,0,1-.16-1.56v-5l0-9.11c0-.22,0-0.47,0-0.75,0-.1,0-0.21,0-0.34q-0.71,1.16-1.28,2A34.6,34.6,0,0,1,4,984a6.62,6.62,0,0,1-1.7,1.59,3.9,3.9,0,0,1-1.68.53,2.22,2.22,0,0,1-1.26-.24,5,5,0,0,1-.9-0.58,8.83,8.83,0,0,1-.74-0.66,4.92,4.92,0,0,1-.59-0.7c-0.75-.94-1.6-2.07-2.54-3.38q-0.58-.81-1.18-1.77,0,0.79,0,1.69,0,2.23,0,4.79l0,4.76q0,2.22-.07,3.7a13.32,13.32,0,0,1-.09,1.47,4,4,0,0,1-.5,1.92,4.09,4.09,0,0,1-1.32,1.44,3.88,3.88,0,0,1-2,.63h-0.19Zm-1.21-2.3a2.61,2.61,0,0,0,1.29.34,1.93,1.93,0,0,0,1-.31A2.13,2.13,0,0,0-9,996.12a2,2,0,0,0,.25-1v-1h0.07c0-.15,0-0.32,0-0.53q0-1.47.07-3.66l0-4.75q0-2.55,0-4.77t0-3.74v-0.38q0-1.09,0-1.16l0-3.85,1.81,3.39a42.71,42.71,0,0,0,2.84,4.67c0.92,1.29,1.77,2.42,2.5,3.33l0.05,0.07a2.9,2.9,0,0,0,.37.43,6.85,6.85,0,0,0,.58.51,3.11,3.11,0,0,0,.55.36,0.31,0.31,0,0,0,.19,0,2,2,0,0,0,.9-0.28,4.78,4.78,0,0,0,1.16-1.13,32.69,32.69,0,0,0,2-2.77c0.79-1.22,1.8-2.86,3-4.87l1.62-2.7,0.19,3.15a19.33,19.33,0,0,1,.07,2c0,0.21,0,.35,0,0.43q0,0.81,0,1.24c0,0.32,0,.6,0,0.85V982l0,12.13a5.51,5.51,0,0,0,.12,1.15,3.94,3.94,0,0,0,.36,1,1.65,1.65,0,0,0,.56.6,3.43,3.43,0,0,0,.81.22,1.61,1.61,0,0,0,.79-0.1l0.13,0h0.14a1,1,0,0,0,.63-0.26l0.07-.06a1.06,1.06,0,0,0,.29-0.44,3.41,3.41,0,0,0,.26-0.9c0.06-.38.1-0.74,0.13-1.09a11.24,11.24,0,0,0,0-1.37c0-.51,0-1,0-1.47q0-3.18,0-6.55t0-6.57c0-1.7,0-3.44,0-5.18s0-3.46,0-5.22q0-.24,0-0.48c0-.17,0-0.35-0.06-0.55a4.81,4.81,0,0,0-.18-0.82,1.77,1.77,0,0,0-.34-0.46,0.85,0.85,0,0,0-.47-0.23H12.38l-0.49-.06-0.57,0a1.51,1.51,0,0,0-.89.35,7.94,7.94,0,0,0-1.23,1.15,12.5,12.5,0,0,0-1.09,1.43q-0.5.78-.82,1.32c-0.54.86-1,1.61-1.39,2.26S5.12,973,4.76,973.57l-1,1.54-0.91,1.43c-0.07.13-.16,0.29-0.26,0.48s-0.26.43-.42,0.65l-0.41.58a4.39,4.39,0,0,1-.43.51l-0.81.81-0.67-.93c-0.58-.8-1.2-1.78-1.85-2.89s-1.37-2.3-2.17-3.59l-0.66-1.08-0.79-1.25q-0.41-.64-0.82-1.24a10,10,0,0,0-.72-0.94A19.69,19.69,0,0,1-8.51,966a1.71,1.71,0,0,0-1-.73l-0.47-.05a2.58,2.58,0,0,0-1.55.26,1.72,1.72,0,0,0-.61.72,4.67,4.67,0,0,0-.23.68,2.81,2.81,0,0,0-.09.71v0.07c-0.18,2.59-.28,5.26-0.28,7.94v6.28l-0.09,10.88c0,0.41,0,.82,0,1.21s0,0.78.07,1.19a4.47,4.47,0,0,0,.32,1A1.34,1.34,0,0,0-11.95,996.85Z" transform="translate(300.2 -734.9)"/><path class="cls-6" d="M19.94,992.68l0-3.7,0-6.89q0-1.5,0-3.09v-6.28q0-1.31.09-3v-0.19q0-.47.07-1c0-.33,0-0.66,0-1a4.91,4.91,0,0,1,.52-1.83,3.05,3.05,0,0,1,1-1.12,3.25,3.25,0,0,1,1.45-.37l0.68,0,0.59,0.07a1.92,1.92,0,0,1,1.08.56,2.1,2.1,0,0,1,.52.75c0.06,0.19.12,0.37,0.16,0.54a5.49,5.49,0,0,1,.12.54c0,0.22.05,0.42,0.07,0.61s0,0.37,0,.56,0,0.41,0,.59,0,0.35,0,.54v0.8l-0.28,24.31v0.47a3.38,3.38,0,0,1,0,.35q0,0.21-.07.49a4.44,4.44,0,0,0-.16.49q-0.07.26-.16,0.54a4.44,4.44,0,0,1-.3.44,2.43,2.43,0,0,1-.4.4,2.21,2.21,0,0,1-1.22.52,3.68,3.68,0,0,1-2.39-.23,2.08,2.08,0,0,1-.8-0.94,0.4,0.4,0,0,1-.14-0.28,0.56,0.56,0,0,0-.09-0.14,0.5,0.5,0,0,1-.09-0.14,2.47,2.47,0,0,1-.14-0.49,3,3,0,0,1,0-.54,4.65,4.65,0,0,1-.07-0.47c0-.16,0-0.31-0.07-0.47a3.37,3.37,0,0,1,0-.8v-0.7Z" transform="translate(300.2 -734.9)"/><path class="cls-7" d="M22.91,999a4.6,4.6,0,0,1-1.93-.43l-0.13-.07a3.07,3.07,0,0,1-1.09-1.22,1.39,1.39,0,0,1-.22-0.41,1.66,1.66,0,0,1-.16-0.26l0-.06a3.48,3.48,0,0,1-.2-0.69,3.92,3.92,0,0,1-.06-0.61c0-.16-0.05-0.31-0.07-0.47s0-.25-0.06-0.37V994.3a4.33,4.33,0,0,1,0-1v-0.66l0-3.7,0-6.88c0-1,0-2.05,0-3.09v-6.28c0-.9,0-1.91.1-3v-0.23q0-.45.07-0.91t0-1a5.91,5.91,0,0,1,.61-2.25,4,4,0,0,1,1.3-1.5l0.13-.08a4.22,4.22,0,0,1,1.89-.48l0.76,0,0.67,0.08a2.87,2.87,0,0,1,1.58.81A3.06,3.06,0,0,1,27,965.3l0,0.1c0.07,0.2.13,0.4,0.18,0.59a6.46,6.46,0,0,1,.14.63c0,0.26.06,0.48,0.08,0.69s0,0.43,0,.65,0,0.48,0,.67,0,0.3,0,.45v0.8L27.1,994.65a4.38,4.38,0,0,1,0,.46c0,0.16,0,.34-0.08.54l-0.06.21a3.46,3.46,0,0,0-.13.38q-0.08.28-.18,0.59l-0.09.19a5.45,5.45,0,0,1-.37.54,3.4,3.4,0,0,1-.52.53,3.16,3.16,0,0,1-1.71.75A4.71,4.71,0,0,1,22.91,999Zm-1-2.17a2.7,2.7,0,0,0,1.7.14,1.45,1.45,0,0,0,.74-0.25l0.08-.07a1.46,1.46,0,0,0,.24-0.24l0.18-.26c0-.13.08-0.26,0.11-0.38s0.1-.33.16-0.49,0-.24,0-0.35a2.32,2.32,0,0,0,0-.24v-0.47l0.28-25.11c0-.22,0-0.43,0-0.63s0-.31,0-0.49,0-.32,0-0.48,0-.35-0.06-0.55-0.05-.28-0.09-0.42-0.08-.28-0.13-0.44a1.11,1.11,0,0,0-.23-0.36l-0.06-.06a0.94,0.94,0,0,0-.54-0.29l-0.51-.06a2.9,2.9,0,0,0-1.55.22,2,2,0,0,0-.62.72,4,4,0,0,0-.41,1.44c0,0.31,0,.66,0,1s0,0.65-.07,1v0.14c-0.06,1.12-.09,2.09-0.09,3V979c0,1.05,0,2.1,0,3.12l-0.1,11.37a2.44,2.44,0,0,0,0,.54q0,0.26.08,0.52a3.73,3.73,0,0,0,.06.38l0,0.19a2,2,0,0,0,0,.36,1.57,1.57,0,0,0,.06.22,1.58,1.58,0,0,1,.18.29l0.17,0.35A1.08,1.08,0,0,0,21.87,996.79ZM21,995.59l0,0Z" transform="translate(300.2 -734.9)"/><path class="cls-6" d="M60.51,994.46c0,0.19.05,0.37,0.07,0.54s0,0.37,0,.59a1.76,1.76,0,0,1-.33,1,2,2,0,0,1-.37.44,2,2,0,0,1-.56.35,3.85,3.85,0,0,1-2.48.47,3.22,3.22,0,0,1-1.17-.61l-0.14-.12a0.24,0.24,0,0,1-.09-0.12l-0.09-.12a0.35,0.35,0,0,0-.14-0.12,2.91,2.91,0,0,1-.37-0.45l-0.28-.44a4.1,4.1,0,0,0-.21-0.44L54.09,995l-0.19-.35a1.34,1.34,0,0,1-.14-0.35,2.85,2.85,0,0,1-.23-0.75l-1-2.3-6.44,0q-3.21,0-6.44,0l-1,2.3a1.15,1.15,0,0,0-.12.37,1.16,1.16,0,0,1-.12.37l-0.16.35-0.16.35-0.26.45-0.26.44a2.44,2.44,0,0,1-.23.44,3,3,0,0,1-.37.45,0.35,0.35,0,0,0-.14.12l-0.09.12a0.25,0.25,0,0,1-.09.12,0.67,0.67,0,0,0-.14.12,3.23,3.23,0,0,1-1.17.61,3.85,3.85,0,0,1-2.48-.47,2,2,0,0,1-.56-0.35,1.93,1.93,0,0,1-.37-0.44,1.76,1.76,0,0,1-.33-1c0-.22,0-0.41,0-0.59s0-.35.07-0.54a8.56,8.56,0,0,1,.23-0.84l0.14-.42,9.74-24,0.28-.75a2.61,2.61,0,0,1,.23-0.52,2.35,2.35,0,0,0,.23-0.56,7,7,0,0,1,.52-1.08,2.88,2.88,0,0,1,.33-0.52l0.37-.47a2,2,0,0,1,.8-0.61,5.07,5.07,0,0,1,3,0,2,2,0,0,1,.8.61q0.33,0.42.7,1a7,7,0,0,1,.52,1.08,2.32,2.32,0,0,0,.23.56,2.65,2.65,0,0,1,.23.52l0.28,0.75,9.74,24,0.14,0.42A8.74,8.74,0,0,1,60.51,994.46ZM49.41,983q-0.61-1.36-1.24-2.81t-1.34-3l-0.37-.87-0.37-.87q-0.14.42-.33,0.87l-0.37.87q-0.7,1.5-1.33,3T42.8,983L42,985h8.29Z" transform="translate(300.2 -734.9)"/><path class="cls-7" d="M57.43,998.9a5.06,5.06,0,0,1-.71-0.05l-0.13,0a4.2,4.2,0,0,1-1.52-.79L55,998h0a1.14,1.14,0,0,1-.35-0.35h0l-0.11-.11a4,4,0,0,1-.5-0.6l-0.31-.48-0.07-.14a3.17,3.17,0,0,0-.16-0.34l-0.24-.42,0-.06-0.17-.31a2.26,2.26,0,0,1-.22-0.51,3.92,3.92,0,0,1-.25-0.8l-0.68-1.6-5.79,0c-1.93,0-3.88,0-5.81,0l-0.77,1.81a2.15,2.15,0,0,1-.21.69l-0.14.3c-0.05.12-.12,0.26-0.19,0.4l0,0.07-0.24.42-0.24.42a3.43,3.43,0,0,1-.3.55,3.94,3.94,0,0,1-.5.59l-0.13.12a1.17,1.17,0,0,1-.34.35l-0.07.07a4.22,4.22,0,0,1-1.52.79l-0.13,0a4.82,4.82,0,0,1-3.05-.56,3,3,0,0,1-.78-0.5,2.92,2.92,0,0,1-.54-0.64,2.72,2.72,0,0,1-.48-1.56c0-.25,0-0.48,0-0.68s0-.4.08-0.61a9.47,9.47,0,0,1,.27-1l0.14-.42,9.77-24,0.27-.72a3.48,3.48,0,0,1,.31-0.67,1.39,1.39,0,0,0,.13-0.33l0-.08a8,8,0,0,1,.57-1.2,3.86,3.86,0,0,1,.42-0.65l0.37-.47a3,3,0,0,1,1.15-.89l0.08,0a6.07,6.07,0,0,1,3.7,0l0.08,0a3,3,0,0,1,1.17.91c0.22,0.29.47,0.64,0.73,1a8,8,0,0,1,.61,1.27l0,0.08a1.39,1.39,0,0,0,.13.33,3.66,3.66,0,0,1,.32.71l0.27,0.72,9.74,24,0.16,0.48c0.1,0.31.19,0.62,0.26,0.94v0.06c0,0.21.06,0.41,0.08,0.61s0,0.43,0,.68a2.73,2.73,0,0,1-.48,1.56,3,3,0,0,1-1.32,1.14A4.82,4.82,0,0,1,57.43,998.9Zm-19.76-1.44h0Zm19.39-.53a2.87,2.87,0,0,0,1.8-.36l0.09,0a1.05,1.05,0,0,0,.29-0.18,1,1,0,0,0,.19-0.22l0-.06a0.79,0.79,0,0,0,.15-0.47c0-.19,0-0.35,0-0.5s0-.28-0.06-0.44-0.12-.48-0.2-0.72l-0.14-.42-9.72-23.93-0.29-.77a1.79,1.79,0,0,0-.16-0.36,3.29,3.29,0,0,1-.32-0.75,6.08,6.08,0,0,0-.43-0.89c-0.21-.31-0.43-0.62-0.64-0.89a1.05,1.05,0,0,0-.39-0.3,4.18,4.18,0,0,0-2.31,0,1,1,0,0,0-.38.29l-0.39.49a1.88,1.88,0,0,0-.22.34l0,0.07a5.94,5.94,0,0,0-.43.89,3.24,3.24,0,0,1-.32.75,1.67,1.67,0,0,0-.14.32l-0.29.78-9.75,24-0.12.36a7.63,7.63,0,0,0-.21.75c0,0.11,0,.27-0.05.41s0,0.32,0,.5a0.78,0.78,0,0,0,.15.47l0,0.06a1,1,0,0,0,.19.22,1,1,0,0,0,.29.18l0.09,0a2.86,2.86,0,0,0,1.8.36,2.24,2.24,0,0,0,.73-0.38l0.07-.07h0l0.11-.11a1.09,1.09,0,0,1,.31-0.32,1.74,1.74,0,0,0,.18-0.22,1.47,1.47,0,0,0,.14-0.27l0.07-.14L37,995l0.25-.44,0.12-.27c0.05-.13.12-0.26,0.19-0.41a2.57,2.57,0,0,1,.23-0.75L39,990.29h0.65c2.13,0,4.29,0,6.42,0l6.45,0h0.64l1.29,3,0,0.13a1.9,1.9,0,0,0,.16.49l0.06,0.17a0.38,0.38,0,0,0,0,.09l0.2,0.37L55.2,995a5.08,5.08,0,0,1,.23.48l0.22,0.35a1.75,1.75,0,0,0,.18.22,1.29,1.29,0,0,1,.34.35l0.12,0.12,0,0A2.22,2.22,0,0,0,57.06,996.93ZM56,996.28l0.07,0Zm-19.75,0-0.05,0ZM51.7,986H40.5l1.39-3.41c0.42-.93.83-1.87,1.25-2.83s0.88-2,1.35-3l0.36-.83c0.11-.27.22-0.54,0.3-0.8l0.8-2.39,1,2.31L47.35,976l0.37,0.85c0.46,1,.92,2,1.34,3s0.83,1.9,1.24,2.8Zm-8.29-2h5.38l-0.29-.7q-0.61-1.36-1.24-2.81c-0.37-.84-0.76-1.71-1.17-2.59q-0.61,1.32-1.17,2.59-0.63,1.46-1.25,2.82Z" transform="translate(300.2 -734.9)"/><path class="cls-6" d="M87.68,970.1l-0.09,7.35h1.87q1.92,0,3.42,0t3.33,0h0.23l1.1,0,1.05,0a7.84,7.84,0,0,1,1.08.16l1,0.26a3.18,3.18,0,0,1,1.31.84,2.18,2.18,0,0,1,.47,1.36v0.54a1.44,1.44,0,0,1-.09.54,1.59,1.59,0,0,1-.61.94,1.42,1.42,0,0,1-.89.47,5.54,5.54,0,0,1-1.22.23,6.27,6.27,0,0,1-1.31.14h-2.2l-8.67,0-0.09,9.18,9.32,0.09h2.9a3.73,3.73,0,0,1,.61,0,4,4,0,0,0,.68.12,2.46,2.46,0,0,1,.59.12,2.72,2.72,0,0,1,.94.52,2.25,2.25,0,0,1,.61,1,5,5,0,0,1,.07.49,2.13,2.13,0,0,1,0,.54,2.17,2.17,0,0,1-.47,1.36,2.51,2.51,0,0,1-1.31.84,5.42,5.42,0,0,1-2.16.42q-0.52,0-1.08,0c-0.37,0-.73,0-1.08,0H96.72q-3.65.09-7.59,0l-1.5,0-1,0H84.5a2.71,2.71,0,0,1-1.78-.37,2.19,2.19,0,0,1-.8-0.89,0.41,0.41,0,0,1-.14-0.28,0.57,0.57,0,0,0-.09-0.14,0.51,0.51,0,0,1-.09-0.14,2.49,2.49,0,0,1-.14-0.49,2.73,2.73,0,0,1,0-.49c0-.16-0.05-0.31-0.07-0.47s0-.31-0.07-0.47v-0.75a2.92,2.92,0,0,1,0-.37,3.07,3.07,0,0,0,0-.37v-3.65l0.09-6.75v-6.23q0-1.69,0-3t0.07-2.86v-0.23c0-.34.05-0.66,0.07-1s0-.6,0-0.91a4.35,4.35,0,0,1,.52-1.83,4.25,4.25,0,0,1,.4-0.66,1.62,1.62,0,0,1,.59-0.47,2.78,2.78,0,0,1,1.45-.42,2.5,2.5,0,0,1,.56,0v0h2.37l1.05,0,1.55,0q1.87,0,3.56,0t3.47,0h0.19q0.51,0,1.08,0c0.37,0,.73,0,1.08,0a4.68,4.68,0,0,1,1,.12,8.73,8.73,0,0,1,1,.3,2.82,2.82,0,0,1,1.31.8,2.41,2.41,0,0,1,.42,1.31v0.54a1.31,1.31,0,0,1-.09.49,1.7,1.7,0,0,1-.56,1,3.83,3.83,0,0,0-.4.23,2.08,2.08,0,0,1-.49.23,2.4,2.4,0,0,1-.59.12l-0.59.07a2.81,2.81,0,0,1-.68.09H97.05l-9.37,0v0.14Z" transform="translate(300.2 -734.9)"/><path class="cls-7" d="M93,998.86c-1.27,0-2.57,0-3.89,0-0.6,0-1.13,0-1.52,0l-1,0H84.54a3.65,3.65,0,0,1-2.36-.54,3.12,3.12,0,0,1-1.06-1.14,1.41,1.41,0,0,1-.24-0.43,1.76,1.76,0,0,1-.15-0.25l0-.07a3.52,3.52,0,0,1-.2-0.68,3.82,3.82,0,0,1-.06-0.56c0-.16-0.05-0.32-0.07-0.48s0-.25-0.06-0.37l0-.19v-0.75a4,4,0,0,1,0-.5,2,2,0,0,0,0-.25v-3.65l0.09-6.76v-6.22q0-1.7,0-3T80.52,970v-0.29q0-.5.07-0.93c0-.28,0-0.56,0-0.86a5.38,5.38,0,0,1,.63-2.28,5.23,5.23,0,0,1,.48-0.79,2.58,2.58,0,0,1,.9-0.74,3.75,3.75,0,0,1,1.92-.54h2.93l1,0c0.39,0,.92,0,1.59,0,1.24,0,2.45,0,3.56,0s2.29,0,3.49,0h0.25c0.64,0.06,1.42,0,2.11.09a5.69,5.69,0,0,1,1.2.14,9.79,9.79,0,0,1,1.15.34,3.72,3.72,0,0,1,1.7,1.06l0.1,0.13a3.38,3.38,0,0,1,.58,1.84v0.54a2.28,2.28,0,0,1-.12.73,2.72,2.72,0,0,1-.82,1.44l-0.11.11L103,970l-0.3.18a3.06,3.06,0,0,1-.72.35,3.37,3.37,0,0,1-.82.16l-0.46.05a3.74,3.74,0,0,1-.87.11H97.05l-8.4,0-0.07,5.55h0.89c1.27,0,2.41,0,3.42,0s2.12,0,3.35,0h0.21l1.14,0,1,0h0.08a8.87,8.87,0,0,1,1.21.18L101,977l0.07,0a4.15,4.15,0,0,1,1.71,1.1l0.06,0.07a3.15,3.15,0,0,1,.67,2v0.54a2.46,2.46,0,0,1-.13.81,2.53,2.53,0,0,1-.85,1.35,2.41,2.41,0,0,1-1.35.73,6.54,6.54,0,0,1-1.33.26,7.25,7.25,0,0,1-1.45.15h-2.2l-7.7,0-0.07,7.25,11.24,0.08a4.71,4.71,0,0,1,.77.06l0.08,0a3.12,3.12,0,0,0,.51.09,3.44,3.44,0,0,1,.82.16,3.7,3.7,0,0,1,1.27.71l0,0a3.22,3.22,0,0,1,.86,1.42l0,0.07a5.84,5.84,0,0,1,.08.59,3.09,3.09,0,0,1,0,.71,3.14,3.14,0,0,1-.67,1.87,3.54,3.54,0,0,1-1.77,1.17,6.42,6.42,0,0,1-2.43.47c-0.69.06-1.46,0-2.11,0.09H96.72C95.52,998.84,94.27,998.86,93,998.86Zm-8.55-2h2.17l1,0,1.46,0c2.62,0.06,5.16.06,7.56,0H97c0.66-.06,1.43,0,2.11-0.09h0.09a4.47,4.47,0,0,0,1.77-.34l0.15,0a1.55,1.55,0,0,0,.81-0.53,1.17,1.17,0,0,0,.23-0.72V995a1.16,1.16,0,0,0,0-.29c0-.12,0-0.24,0-0.35a1.32,1.32,0,0,0-.32-0.5,1.81,1.81,0,0,0-.58-0.31,1.49,1.49,0,0,0-.35-0.07,5,5,0,0,1-.8-0.13,2.84,2.84,0,0,0-.41,0h-2.9l-10.31-.1,0.11-11.12L98.36,982a5.34,5.34,0,0,0,1.11-.12l0.13,0a4.58,4.58,0,0,0,1-.19l0.08,0a0.89,0.89,0,0,0,.33-0.11l0.15-.16a0.68,0.68,0,0,0,.27-0.36l0.05-.19a0.49,0.49,0,0,0,0-.18v-0.54a1.19,1.19,0,0,0-.24-0.73,2.2,2.2,0,0,0-.86-0.54l-1-.24a6.8,6.8,0,0,0-.9-0.14l-1.05,0-1.06,0H96.21c-1.23,0-2.33,0-3.33,0s-2.13,0-3.4,0H86.6L86.71,969l13.13-.05a1.87,1.87,0,0,0,.44-0.06l0.08,0,0.67-.08a1.43,1.43,0,0,0,.35-0.07,1.13,1.13,0,0,0,.26-0.12l0.34-.21a0.73,0.73,0,0,0,.19-0.29l0.06-.27a0.34,0.34,0,0,0,0-.13v-0.54a1.39,1.39,0,0,0-.22-0.71,1.88,1.88,0,0,0-.81-0.46,8.37,8.37,0,0,0-1-.29,3.73,3.73,0,0,0-.81-0.09H99.35c-0.68-.06-1.45,0-2.11-0.09H97.1c-1.21,0-2.37,0-3.47,0s-2.28,0-3.54,0l-1.53,0-1.09,0H86.08v0.27l-1.21-.25a1.83,1.83,0,0,0-.33,0,1.81,1.81,0,0,0-.95.28l-0.07,0a0.68,0.68,0,0,0-.24.18,4,4,0,0,0-.72,1.95c0,0.28,0,.6,0,0.92s0,0.61-.07,1v0.19c0,1.06-.05,2-0.07,2.88s0,1.86,0,3v6.23l-0.09,6.76v3.64a4,4,0,0,1,0,.49,2.08,2.08,0,0,0,0,.26V994q0,0.23.07,0.46a3.74,3.74,0,0,0,.06.37l0,0.19a1.79,1.79,0,0,0,0,.32,1.58,1.58,0,0,0,.06.22,1.56,1.56,0,0,1,.18.29l0.14,0.28a1.22,1.22,0,0,0,.44.5,1.75,1.75,0,0,0,1.17.23h0Zm-2.09-1.41,0.06,0.06Z" transform="translate(300.2 -734.9)"/><path class="cls-6" d="M131.62,978.82a24.31,24.31,0,0,1,0,3.19q-0.12,1.64-.35,3.19a18.89,18.89,0,0,1-1.73,5.2,11.89,11.89,0,0,1-3.7,4.31,14.58,14.58,0,0,1-5.76,2.55,39.76,39.76,0,0,1-6.42.82,20.49,20.49,0,0,1-2.18.07,10.66,10.66,0,0,1-2.13-.26,2.5,2.5,0,0,1-1.27-.52,1.07,1.07,0,0,1-.37-0.37,3.29,3.29,0,0,1-.23-0.47,1.94,1.94,0,0,1-.21-0.49c0-.17-0.1-0.35-0.16-0.54S107,995.19,107,995a3.55,3.55,0,0,1,0-.4V967.29a1.75,1.75,0,0,1,.09-0.56,4.08,4.08,0,0,1,.28-1.08,1.54,1.54,0,0,1,.52-0.8,2.26,2.26,0,0,1,.56-0.35l0.52-.21a1.06,1.06,0,0,1,.59,0,1,1,0,0,0,.68-0.12l7.82,0.19a12.1,12.1,0,0,1,5.53,1.43,14.51,14.51,0,0,1,4.17,3.4,16.16,16.16,0,0,1,2.72,4.61A17.69,17.69,0,0,1,131.62,978.82Zm-8.71,8.9a10.34,10.34,0,0,0,1.31-3.23,14.9,14.9,0,0,0,.37-3.72,16.31,16.31,0,0,0-.52-3.7,12.14,12.14,0,0,0-1.31-3.21,5.45,5.45,0,0,0-1.69-1.69,8.45,8.45,0,0,0-2.3-1,15.82,15.82,0,0,0-2.69-.49q-1.43-.14-2.79-0.14,0,1.36,0,2.62v2.67q0,1.69,0,3.28v12.65q1.45,0,2.79-.16a10.91,10.91,0,0,0,2.58-.54,8.46,8.46,0,0,0,2.3-1.19A8.11,8.11,0,0,0,122.91,987.72Z" transform="translate(300.2 -734.9)"/><path class="cls-7" d="M111.89,999.12h-0.45a11.68,11.68,0,0,1-2.33-.28,3.38,3.38,0,0,1-1.63-.68,2,2,0,0,1-.63-0.66,4.33,4.33,0,0,1-.27-0.54,2.89,2.89,0,0,1-.28-0.67c0-.15-0.09-0.32-0.15-0.49l0-.11c0-.19-0.07-0.37-0.08-0.53a4.52,4.52,0,0,1,0-.5V967.29a2.72,2.72,0,0,1,.12-0.78,5,5,0,0,1,.32-1.21,2.49,2.49,0,0,1,.83-1.21,3.22,3.22,0,0,1,.78-0.48l0.53-.22a2.08,2.08,0,0,1,1.12-.08l0.07,0,0.22-.11,8.07,0.19a13.13,13.13,0,0,1,6,1.55,15.54,15.54,0,0,1,4.45,3.62,17.2,17.2,0,0,1,2.88,4.89,18.75,18.75,0,0,1,1.23,5.31h0a25.26,25.26,0,0,1,0,3.31c-0.08,1.12-.2,2.21-0.36,3.26a20,20,0,0,1-1.83,5.49,12.91,12.91,0,0,1-4,4.66,15.6,15.6,0,0,1-6.14,2.72,40.9,40.9,0,0,1-6.58.84C113.11,999.1,112.5,999.12,111.89,999.12ZM108,995.25c0.06,0.18.11,0.36,0.16,0.53a1,1,0,0,0,.11.25l0.07,0.14a2.28,2.28,0,0,0,.17.33l0.19,0.15a1.56,1.56,0,0,0,.78.28,10,10,0,0,0,2,.24,19.57,19.57,0,0,0,2.07-.07,39.18,39.18,0,0,0,6.3-.8,13.67,13.67,0,0,0,5.38-2.38,11,11,0,0,0,3.41-4,18,18,0,0,0,1.65-4.93c0.15-1,.26-2,0.34-3.09a23.46,23.46,0,0,0,0-3,16.82,16.82,0,0,0-1.11-4.75,15.26,15.26,0,0,0-2.55-4.34,13.6,13.6,0,0,0-3.89-3.17,11.18,11.18,0,0,0-5.09-1.31l-7.6-.18a1.87,1.87,0,0,1-1.09.09l-0.51.18a1.3,1.3,0,0,0-.31.2l-0.05,0a0.78,0.78,0,0,0-.16.31l0,0.09a3.1,3.1,0,0,0-.21.82l0,0.18a0.77,0.77,0,0,0,0,.25v27.36a2.59,2.59,0,0,0,0,.29C108,995,108,995.14,108,995.25Zm1.73-31.93h0Zm2.58,29.43V979.1c0-1.06,0-2.17,0-3.31v-2.64c0-.82,0-1.69,0-2.59l0-1h1c0.93,0,1.9,0,2.88.15a16.85,16.85,0,0,1,2.86.52,9.47,9.47,0,0,1,2.56,1.12,6.44,6.44,0,0,1,2,2,13.18,13.18,0,0,1,1.43,3.49,17.38,17.38,0,0,1,.55,3.92,16,16,0,0,1-.4,4,11.37,11.37,0,0,1-1.44,3.54h0a9.12,9.12,0,0,1-2.18,2.38A9.46,9.46,0,0,1,119,992a11.93,11.93,0,0,1-2.81.59c-0.91.08-1.87,0.14-2.84,0.17Zm2-21.23c0,0.56,0,1.1,0,1.63v2.67q0,1.72,0,3.28v11.63c0.59,0,1.17-.07,1.73-0.12a10,10,0,0,0,2.35-.49,7.53,7.53,0,0,0,2-1.06,7.19,7.19,0,0,0,1.7-1.87,9.42,9.42,0,0,0,1.18-2.92,14,14,0,0,0,.35-3.48,15.38,15.38,0,0,0-.48-3.48,11.22,11.22,0,0,0-1.2-3,4.41,4.41,0,0,0-1.37-1.37,7.51,7.51,0,0,0-2-.89,15,15,0,0,0-2.53-.46C115.43,971.58,114.87,971.54,114.31,971.52Z" transform="translate(300.2 -734.9)"/><path class="cls-6" d="M136.92,992.68l0-3.7,0-6.89q0-1.5,0-3.09v-6.28q0-1.31.09-3v-0.19q0-.47.07-1c0-.33,0-0.66,0-1a4.91,4.91,0,0,1,.52-1.83,3.05,3.05,0,0,1,1-1.12,3.25,3.25,0,0,1,1.45-.37l0.68,0,0.59,0.07a1.91,1.91,0,0,1,1.08.56,2.09,2.09,0,0,1,.52.75c0.06,0.19.12,0.37,0.16,0.54a5.4,5.4,0,0,1,.12.54c0,0.22.05,0.42,0.07,0.61s0,0.37,0,.56,0,0.41,0,.59,0,0.35,0,.54v0.8l-0.28,24.31v0.47a3.38,3.38,0,0,1,0,.35q0,0.21-.07.49a4.51,4.51,0,0,0-.16.49c0,0.17-.1.35-0.16,0.54a4.39,4.39,0,0,1-.3.44,2.41,2.41,0,0,1-.4.4,2.21,2.21,0,0,1-1.22.52,3.68,3.68,0,0,1-2.39-.23,2.08,2.08,0,0,1-.8-0.94,0.4,0.4,0,0,1-.14-0.28,0.56,0.56,0,0,0-.09-0.14,0.51,0.51,0,0,1-.09-0.14,2.47,2.47,0,0,1-.14-0.49,3,3,0,0,1,0-.54,4.56,4.56,0,0,1-.07-0.47c0-.16,0-0.31-0.07-0.47a3.33,3.33,0,0,1,0-.8v-0.7Z" transform="translate(300.2 -734.9)"/><path class="cls-7" d="M139.89,999a4.6,4.6,0,0,1-1.93-.43l-0.14-.07a3.07,3.07,0,0,1-1.09-1.22,1.39,1.39,0,0,1-.22-0.41,1.63,1.63,0,0,1-.16-0.26l0-.06a3.45,3.45,0,0,1-.2-0.69,3.85,3.85,0,0,1-.06-0.61c0-.16-0.05-0.32-0.07-0.47s0-.25-0.06-0.38a4.36,4.36,0,0,1,0-1v-0.66l0-3.7,0-6.88q0-1.52,0-3.09v-6.28c0-.9,0-1.91.1-3v-0.23q0-.44.07-0.91t0-1a5.89,5.89,0,0,1,.61-2.25,4,4,0,0,1,1.3-1.5l0.13-.08a4.23,4.23,0,0,1,1.89-.48l0.75,0,0.67,0.08a2.87,2.87,0,0,1,1.58.81,3,3,0,0,1,.74,1.06l0,0.1c0.07,0.2.13,0.4,0.18,0.59a6.44,6.44,0,0,1,.14.64c0,0.26.06,0.48,0.08,0.69s0,0.43,0,.64,0,0.48,0,.67,0,0.3,0,.45v0.8l-0.28,24.78a4.38,4.38,0,0,1,0,.46c0,0.16,0,.34-0.08.55l-0.06.2a3.47,3.47,0,0,0-.13.39c0,0.19-.11.38-0.18,0.59l-0.09.19a5.43,5.43,0,0,1-.37.54,3.37,3.37,0,0,1-.52.53,3.16,3.16,0,0,1-1.71.75A4.71,4.71,0,0,1,139.89,999Zm-1-2.17a2.7,2.7,0,0,0,1.7.14,1.45,1.45,0,0,0,.74-0.25l0.08-.07a1.47,1.47,0,0,0,.24-0.24l0.18-.26c0-.13.08-0.26,0.11-0.38s0.1-.34.16-0.49,0-.24,0-0.34a2.4,2.4,0,0,0,0-.24v-0.47l0.28-25.11c0-.22,0-0.43,0-0.63s0-.31,0-0.5,0-.32,0-0.48,0-.35-0.06-0.55a4.21,4.21,0,0,0-.09-0.42c0-.14-0.08-0.28-0.13-0.44a1.09,1.09,0,0,0-.23-0.36l-0.06-.06a0.94,0.94,0,0,0-.54-0.29l-0.51-.06a2.9,2.9,0,0,0-1.55.22,2,2,0,0,0-.62.72,3.94,3.94,0,0,0-.41,1.44c0,0.31,0,.66,0,1s0,0.65-.07,1v0.14c-0.06,1.11-.09,2.09-0.09,3V979c0,1.06,0,2.11,0,3.12l-0.1,11.37a2.35,2.35,0,0,0,0,.56c0,0.12.05,0.31,0.07,0.49a3.74,3.74,0,0,0,.06.37l0,0.19a2,2,0,0,0,0,.36,1.62,1.62,0,0,0,.06.22,1.59,1.59,0,0,1,.18.28l0.17,0.35A1.08,1.08,0,0,0,138.85,996.79Zm-0.83-1.2,0,0Z" transform="translate(300.2 -734.9)"/><path class="cls-6" d="M172.57,965.93a2,2,0,0,1,.52,1.27c0,0.19,0,.38,0,0.59a4.74,4.74,0,0,1-.07.54,2.24,2.24,0,0,1-.61,1,2.64,2.64,0,0,1-1,.42,4.76,4.76,0,0,1-.66.14q-0.33,0-.7.14a4.57,4.57,0,0,1-.66,0h-3.09q-0.84,0-1.66,0H163q0,1.45,0,3.12t0,3.86q0,2.2,0,5.11t0,6.75v3.56a3.83,3.83,0,0,0,0,.7v0.35a2.13,2.13,0,0,1,0,.4,7.25,7.25,0,0,0-.14,1,2.09,2.09,0,0,1,0,.44,2.92,2.92,0,0,1-.14.45,0.52,0.52,0,0,0-.19.28l-0.14.28a2.41,2.41,0,0,1-.89.89,3.36,3.36,0,0,1-2.3.23,2.42,2.42,0,0,1-1.22-.42,2.85,2.85,0,0,1-.61-0.84,2.59,2.59,0,0,1-.33-1,2.78,2.78,0,0,1-.14-0.89V970.29h-1.17l-1.9,0-1.9-.07q-0.89,0-1.22-.09l-0.87-.14q-0.59-.09-1-0.19a3.27,3.27,0,0,1-1.55-.89,2,2,0,0,1-.52-1.36V967a1.37,1.37,0,0,1,.09-0.52,1.54,1.54,0,0,1,.75-0.94,4.63,4.63,0,0,1,.59-0.35,3.42,3.42,0,0,1,.77-0.3,7.05,7.05,0,0,1,1.41-.28,6.18,6.18,0,0,1,.75,0H155q1.48,0,3.12,0,2.72,0,5.41,0t5.36,0.12q0.61,0,1.17.14a5.16,5.16,0,0,1,1.12.33,4.61,4.61,0,0,1,.8.35A1.87,1.87,0,0,1,172.57,965.93Z" transform="translate(300.2 -734.9)"/><path class="cls-7" d="M159.94,998.58a4.93,4.93,0,0,1-1-.11,3.3,3.3,0,0,1-1.65-.62l-0.09-.08a3.85,3.85,0,0,1-.79-1.1,3.62,3.62,0,0,1-.41-1.21,3.8,3.8,0,0,1-.16-1.1v-23.1h-0.2l-1.92,0-1.93-.07c-0.62,0-1-.07-1.3-0.1l-0.88-.14c-0.42-.07-0.76-0.13-1-0.2a4.28,4.28,0,0,1-2-1.17,3,3,0,0,1-.77-2V967a2.37,2.37,0,0,1,.14-0.81,2.49,2.49,0,0,1,1.13-1.44,5.74,5.74,0,0,1,.68-0.41,4.45,4.45,0,0,1,1-.38,8,8,0,0,1,1.57-.31,7.12,7.12,0,0,1,.86-0.05H155c1,0,2,0,3.09,0,1.81,0,3.64,0,5.45,0s3.62,0.06,5.39.12c0.48,0,.9.09,1.3,0.15a6.15,6.15,0,0,1,1.31.38,5.56,5.56,0,0,1,.93.41,2.85,2.85,0,0,1,.9.79,2.89,2.89,0,0,1,.72,1.87q0,0.32,0,.66a5.78,5.78,0,0,1-.09.65l0,0.07a3.21,3.21,0,0,1-.86,1.42l-0.11.09a3.52,3.52,0,0,1-1.38.59,5.66,5.66,0,0,1-.76.16c-0.19,0-.39.07-0.6,0.12l-0.09,0a5.53,5.53,0,0,1-.8.06h-3.09c-0.52,0-1.09,0-1.66,0H164c0,0.69,0,1.4,0,2.14q0,1.67,0,3.87t0,5.1q0,2.9,0,6.74v3.56a2.93,2.93,0,0,0,0,.51l0,0.19v0.35a3.07,3.07,0,0,1-.07.59,6.33,6.33,0,0,0-.12.84,3.11,3.11,0,0,1-.07.61,4,4,0,0,1-.19.6l-0.07.19-0.15.17-0.14.28a3.32,3.32,0,0,1-1.24,1.27l-0.09.05A4.12,4.12,0,0,1,159.94,998.58Zm-1.44-2.24a1.68,1.68,0,0,0,.69.2l0.1,0a2.4,2.4,0,0,0,1.6-.13,1.4,1.4,0,0,0,.5-0.48l0.09-.18a1.41,1.41,0,0,1,.26-0.46l0-.14a1.09,1.09,0,0,0,0-.23v-0.08a8.18,8.18,0,0,1,.16-1.12,1.07,1.07,0,0,0,0-.18v-0.27a5.26,5.26,0,0,1,0-.79v-3.56q0-3.85,0-6.75t0-5.11q0-2.19,0-3.85c0-1.08,0-2.12,0-3.08l0-1h2.62c0.53,0,1.07,0,1.61,0h3.15a3.64,3.64,0,0,0,.47,0q0.4-.1.75-0.15a3.82,3.82,0,0,0,.53-0.11l0.07,0a1.88,1.88,0,0,0,.6-0.21,1.26,1.26,0,0,0,.29-0.46q0-.17,0-0.39c0-.17,0-0.35,0-0.51a0.94,0.94,0,0,0-.29-0.64l0-.06a0.91,0.91,0,0,0-.3-0.26,3.65,3.65,0,0,0-.63-0.28l-0.06,0a4.21,4.21,0,0,0-.91-0.27c-0.34-.06-0.7-0.1-1.09-0.13-1.71-.06-3.51-0.1-5.3-0.11s-3.6,0-5.39,0c-1.08,0-2.14,0-3.13,0h-3.91a5.25,5.25,0,0,0-.63,0,6.19,6.19,0,0,0-1.22.24l-0.07,0a2.47,2.47,0,0,0-.55.22,3.63,3.63,0,0,0-.46.27l-0.08.05a0.57,0.57,0,0,0-.31.34l0,0.13a0.4,0.4,0,0,0,0,.15v0.56a1.08,1.08,0,0,0,.28.73,2.34,2.34,0,0,0,1.07.58c0.19,0,.48.1,0.85,0.16l0.87,0.14c0.09,0,.38,0,1.11.08l1.87,0.07,1.88,0h2.15v25.06a1.79,1.79,0,0,0,.09.58l0,0.22a1.64,1.64,0,0,0,.21.61l0,0.07A1.8,1.8,0,0,0,158.5,996.34Z" transform="translate(300.2 -734.9)"/><path class="cls-6" d="M176.41,992.68l0-3.7,0-6.89q0-1.5,0-3.09v-6.28q0-1.31.09-3v-0.19q0-.47.07-1c0-.33,0-0.66,0-1a4.91,4.91,0,0,1,.52-1.83,3.05,3.05,0,0,1,1-1.12,3.25,3.25,0,0,1,1.45-.37l0.68,0,0.59,0.07A1.91,1.91,0,0,1,182,965a2.09,2.09,0,0,1,.52.75c0.06,0.19.12,0.37,0.16,0.54a5.4,5.4,0,0,1,.12.54c0,0.22.05,0.42,0.07,0.61s0,0.37,0,.56,0,0.41,0,.59,0,0.35,0,.54v0.8l-0.28,24.31v0.47a3.38,3.38,0,0,1,0,.35q0,0.21-.07.49a4.51,4.51,0,0,0-.16.49c0,0.17-.1.35-0.16,0.54a4.39,4.39,0,0,1-.3.44,2.41,2.41,0,0,1-.4.4,2.21,2.21,0,0,1-1.22.52,3.68,3.68,0,0,1-2.39-.23,2.08,2.08,0,0,1-.8-0.94,0.4,0.4,0,0,1-.14-0.28,0.56,0.56,0,0,0-.09-0.14,0.51,0.51,0,0,1-.09-0.14,2.47,2.47,0,0,1-.14-0.49,3,3,0,0,1,0-.54,4.56,4.56,0,0,1-.07-0.47c0-.16,0-0.31-0.07-0.47a3.33,3.33,0,0,1,0-.8v-0.7Z" transform="translate(300.2 -734.9)"/><path class="cls-7" d="M179.38,999a4.6,4.6,0,0,1-1.93-.43l-0.14-.07a3.07,3.07,0,0,1-1.09-1.22,1.39,1.39,0,0,1-.22-0.41,1.63,1.63,0,0,1-.16-0.26l0-.06a3.45,3.45,0,0,1-.2-0.69,3.85,3.85,0,0,1-.06-0.61c0-.16-0.05-0.32-0.07-0.47s0-.25-0.06-0.38a4.36,4.36,0,0,1,0-1v-0.66l0-3.7,0-6.88q0-1.52,0-3.09v-6.28c0-.9,0-1.91.1-3v-0.23q0-.44.07-0.91t0-1a5.89,5.89,0,0,1,.61-2.25,4,4,0,0,1,1.3-1.5l0.13-.08a4.23,4.23,0,0,1,1.89-.48l0.75,0,0.67,0.08a2.87,2.87,0,0,1,1.58.81,3,3,0,0,1,.74,1.06l0,0.1c0.07,0.2.13,0.4,0.18,0.59a6.44,6.44,0,0,1,.14.64c0,0.26.06,0.48,0.08,0.69s0,0.43,0,.64,0,0.48,0,.67,0,0.3,0,.45v0.8l-0.28,24.78a4.38,4.38,0,0,1,0,.46c0,0.16,0,.34-0.08.55l-0.06.2a3.47,3.47,0,0,0-.13.39c0,0.19-.11.38-0.18,0.59L183,997a5.43,5.43,0,0,1-.37.54,3.37,3.37,0,0,1-.52.53,3.16,3.16,0,0,1-1.71.75A4.71,4.71,0,0,1,179.38,999Zm-1-2.17a2.7,2.7,0,0,0,1.7.14,1.45,1.45,0,0,0,.74-0.25l0.08-.07a1.47,1.47,0,0,0,.24-0.24l0.18-.26c0-.13.08-0.26,0.11-0.38s0.1-.34.16-0.49,0-.24,0-0.34a2.4,2.4,0,0,0,0-.24v-0.47l0.28-25.11c0-.22,0-0.43,0-0.63s0-.31,0-0.5,0-.32,0-0.48,0-.35-0.06-0.55a4.21,4.21,0,0,0-.09-0.42c0-.14-0.08-0.28-0.13-0.44a1.09,1.09,0,0,0-.23-0.36l-0.06-.06a0.94,0.94,0,0,0-.54-0.29l-0.51-.06a2.9,2.9,0,0,0-1.55.22,2,2,0,0,0-.62.72,3.94,3.94,0,0,0-.41,1.44c0,0.31,0,.66,0,1s0,0.65-.07,1v0.14c-0.06,1.11-.09,2.09-0.09,3V979c0,1.06,0,2.11,0,3.12l-0.1,11.37a2.35,2.35,0,0,0,0,.56c0,0.12.05,0.31,0.07,0.49a3.74,3.74,0,0,0,.06.37l0,0.19a2,2,0,0,0,0,.36,1.62,1.62,0,0,0,.06.22,1.59,1.59,0,0,1,.18.28l0.17,0.35A1.08,1.08,0,0,0,178.34,996.79Zm-0.83-1.2,0,0Z" transform="translate(300.2 -734.9)"/><path class="cls-6" d="M196.37,965.61a14.19,14.19,0,0,1,5.69-1,10.23,10.23,0,0,1,4.57,1.29,11.13,11.13,0,0,1,3.44,3.07,17.29,17.29,0,0,1,2.32,4.31,20.83,20.83,0,0,1,1.08,3.75,25.89,25.89,0,0,1,.3,7.73,20.35,20.35,0,0,1-.68,3.47,14.54,14.54,0,0,1-.66,2,15.87,15.87,0,0,1-.89,1.78,10,10,0,0,1-3,3.28,12.58,12.58,0,0,1-7.14,2.13,13.3,13.3,0,0,1-3.14-.42,13.07,13.07,0,0,1-3-1.17,11.17,11.17,0,0,1-2.6-1.94,12.08,12.08,0,0,1-2.39-3.26,18.73,18.73,0,0,1-1.45-3.89,23,23,0,0,1-.66-4.1,27.47,27.47,0,0,1,0-3.94,20.22,20.22,0,0,1,.68-3.7,16.6,16.6,0,0,1,1.57-3.79,15.2,15.2,0,0,1,2.51-3.3A9.7,9.7,0,0,1,196.37,965.61Zm11,20.05a17.67,17.67,0,0,0,.47-5,18.72,18.72,0,0,0-.89-5.2,11.32,11.32,0,0,0-1.29-2.65,5.58,5.58,0,0,0-1.83-1.76,4.84,4.84,0,0,0-2.46-.61,7.28,7.28,0,0,0-3.14.84,5.31,5.31,0,0,0-1.76,1.41,7.55,7.55,0,0,0-1.17,2,14.51,14.51,0,0,0-.7,2.34,14.2,14.2,0,0,0-.3,2.34,22.78,22.78,0,0,0,0,2.55,17.19,17.19,0,0,0,.3,2.67,14.29,14.29,0,0,0,.73,2.53,7.44,7.44,0,0,0,1.26,2.13,6.39,6.39,0,0,0,2.83,1.94,5.77,5.77,0,0,0,3.21.16,5.67,5.67,0,0,0,3.94-3.42A8.65,8.65,0,0,0,207.33,985.66Z" transform="translate(300.2 -734.9)"/><path class="cls-7" d="M201.57,998.32h-0.2a14.34,14.34,0,0,1-3.37-.45,14.1,14.1,0,0,1-3.2-1.26A12.2,12.2,0,0,1,192,994.5a13.09,13.09,0,0,1-2.57-3.5,19.78,19.78,0,0,1-1.53-4.09,24,24,0,0,1-.68-4.27,28.58,28.58,0,0,1,0-4.07,21.28,21.28,0,0,1,.71-3.89,17.66,17.66,0,0,1,1.66-4,16.25,16.25,0,0,1,2.67-3.51,10.71,10.71,0,0,1,3.79-2.45h0a15.19,15.19,0,0,1,6.09-1.09,11.23,11.23,0,0,1,5,1.42,12.15,12.15,0,0,1,3.74,3.33,18.33,18.33,0,0,1,2.45,4.55,21.84,21.84,0,0,1,1.12,3.91,26.86,26.86,0,0,1,.32,8,21.43,21.43,0,0,1-.71,3.63,15.45,15.45,0,0,1-.69,2.07,16.89,16.89,0,0,1-.95,1.89,11,11,0,0,1-3.32,3.6A13.57,13.57,0,0,1,201.57,998.32Zm-4.86-31.8a8.77,8.77,0,0,0-3.1,2,14.29,14.29,0,0,0-2.35,3.09,15.7,15.7,0,0,0-1.48,3.57,19.32,19.32,0,0,0-.65,3.52,26.65,26.65,0,0,0,0,3.79,22.13,22.13,0,0,0,.63,3.93,17.87,17.87,0,0,0,1.38,3.69,11.17,11.17,0,0,0,2.2,3,10.3,10.3,0,0,0,2.39,1.79,12.16,12.16,0,0,0,2.75,1.08,12.39,12.39,0,0,0,2.91.39,10.87,10.87,0,0,0,2.84-.32,11,11,0,0,0,3.74-1.64,9.07,9.07,0,0,0,2.73-3,15,15,0,0,0,.83-1.67,13.68,13.68,0,0,0,.61-1.83,19.61,19.61,0,0,0,.65-3.33,24.92,24.92,0,0,0-.29-7.44,19.92,19.92,0,0,0-1-3.57,16.43,16.43,0,0,0-2.19-4.09,10.21,10.21,0,0,0-3.14-2.8,9.3,9.3,0,0,0-4.14-1.16A13.34,13.34,0,0,0,196.71,966.52Zm4.53,26a7,7,0,0,1-2.21-.37,7.38,7.38,0,0,1-3.26-2.23,8.48,8.48,0,0,1-1.44-2.41,15.33,15.33,0,0,1-.78-2.7,18.23,18.23,0,0,1-.32-2.82,23.78,23.78,0,0,1,0-2.66,15,15,0,0,1,.32-2.47,15.59,15.59,0,0,1,.75-2.5,8.57,8.57,0,0,1,1.32-2.27,6.3,6.3,0,0,1,2.08-1.66c2.61-1.27,4.84-1.18,6.52-.21a6.58,6.58,0,0,1,2.15,2.06,12.35,12.35,0,0,1,1.4,2.87,19.79,19.79,0,0,1,.94,5.48,18.75,18.75,0,0,1-.49,5.22,9.65,9.65,0,0,1-.94,2.59A6.6,6.6,0,0,1,201.24,992.55Zm0.09-21.09a6.37,6.37,0,0,0-2.71.74,4.35,4.35,0,0,0-1.43,1.14,6.62,6.62,0,0,0-1,1.76,13.6,13.6,0,0,0-.66,2.18,13.26,13.26,0,0,0-.28,2.18,22.18,22.18,0,0,0,0,2.48,16.26,16.26,0,0,0,.29,2.52,13.33,13.33,0,0,0,.68,2.36,6.5,6.5,0,0,0,1.1,1.86,5.37,5.37,0,0,0,2.4,1.65,4.77,4.77,0,0,0,2.68.14,4.72,4.72,0,0,0,3.28-2.89,7.86,7.86,0,0,0,.77-2.13v0a16.81,16.81,0,0,0,.44-4.69,17.85,17.85,0,0,0-.84-4.93,10.39,10.39,0,0,0-1.17-2.41,4.65,4.65,0,0,0-1.51-1.46A3.84,3.84,0,0,0,201.33,971.45Z" transform="translate(300.2 -734.9)"/><path class="cls-6" d="M243.21,994.09a13.77,13.77,0,0,1-.21,1.69,2.28,2.28,0,0,1-.91,1.45,2.45,2.45,0,0,1-1.27.56,3.75,3.75,0,0,1-1.38-.07,4.84,4.84,0,0,1-1.29-.52,3.12,3.12,0,0,1-1-.87,45.11,45.11,0,0,1-2.93-4.05l-2.69-4.19-3.94-5.95q-0.8-1.26-1.69-2.83t-1.83-2.93L224,994.28v0.42a4.39,4.39,0,0,1-.26,1.48,2.85,2.85,0,0,1-.87,1.24,2.72,2.72,0,0,1-1.22.52,2.86,2.86,0,0,1-3.16-1.17,4,4,0,0,1-.61-1.52,5.73,5.73,0,0,1-.07-1.71v-0.8l0.09-3.65,0-6.79q0-1.5,0-3.07V976q0-2,0-4.26t0.16-4.22a4.48,4.48,0,0,1,.52-1.83,2,2,0,0,1,1-1.12,3.15,3.15,0,0,1,1.33-.42,4.28,4.28,0,0,1,1.43,0l0.47,0.21,0.47,0.26L223.8,965a3.46,3.46,0,0,1,.4.42,4.23,4.23,0,0,1,.42.49l0.37,0.49q0.14,0.28.28,0.52a4.16,4.16,0,0,0,.33.47l0.52,0.75,10.82,17.05v-3.09q0-1.5,0-3.07t-0.07-3.26q0-2,0-4.22t0.12-4.22a4.51,4.51,0,0,1,.47-1.83,2,2,0,0,1,.8-1,3.48,3.48,0,0,1,1.27-.52,3.56,3.56,0,0,1,1.4,0,2.73,2.73,0,0,1,1.22.56,3.07,3.07,0,0,1,.28.33,1.87,1.87,0,0,1,.23.42,4.27,4.27,0,0,1,.28,1.08,5.68,5.68,0,0,1,.14,1.17q0,5.86,0,11.95t0.07,11.95q0,0.66,0,1.29A8.9,8.9,0,0,1,243.21,994.09Z" transform="translate(300.2 -734.9)"/><path class="cls-7" d="M220.78,999a3.48,3.48,0,0,1-1.53-.33,4,4,0,0,1-1.6-1.36,5,5,0,0,1-.76-1.89,6.75,6.75,0,0,1-.09-1.94v-0.74l0.09-3.68,0-6.77c0-1,0-2.06,0-3.06V976c0-1.32,0-2.78,0-4.29s0.1-2.92.16-4.23a5.58,5.58,0,0,1,.59-2.16,3,3,0,0,1,1.39-1.58,4.09,4.09,0,0,1,1.72-.55,5.24,5.24,0,0,1,1.76.07l0.15,0,0.54,0.24,0.54,0.29,0.11,0.08,0.48,0.41a4.4,4.4,0,0,1,.48.5,5.24,5.24,0,0,1,.48.57l0.35,0.46,0.11,0.18c0.08,0.16.16,0.31,0.24,0.45a3.18,3.18,0,0,0,.25.36l0,0.06,0.52,0.75,9,14.25q0-1.36,0-2.79t-0.07-3.24c0-1.34,0-2.75,0-4.25s0.06-2.94.12-4.25a5.35,5.35,0,0,1,.56-2.18,3,3,0,0,1,1.14-1.39,4.48,4.48,0,0,1,1.62-.66,4.53,4.53,0,0,1,1.79,0,3.71,3.71,0,0,1,1.65.76l0.07,0.06a4.06,4.06,0,0,1,.37.43,2.87,2.87,0,0,1,.36.64,5.32,5.32,0,0,1,.34,1.29,6.53,6.53,0,0,1,.15,1.33q0,5.85,0,11.94t0.07,11.94c0,0.42,0,.83,0,1.22a10,10,0,0,1,0,1.42A14.93,14.93,0,0,1,244,996a3.24,3.24,0,0,1-1.29,2.06,3.37,3.37,0,0,1-1.72.75,4.74,4.74,0,0,1-1.74-.09,5.83,5.83,0,0,1-1.55-.62,4.1,4.1,0,0,1-1.29-1.14,45.83,45.83,0,0,1-3-4.1l-2.69-4.19-3.93-5.94c-0.55-.87-1.12-1.84-1.72-2.89l0,0-0.11,15a5.38,5.38,0,0,1-.31,1.8,3.82,3.82,0,0,1-1.16,1.66,3.7,3.7,0,0,1-1.67.73A5.22,5.22,0,0,1,220.78,999Zm0.83-33.9-0.51,0a2.22,2.22,0,0,0-.92.28,1.19,1.19,0,0,0-.57.57l-0.09.21a3.55,3.55,0,0,0-.39,1.43c-0.06,1.27-.11,2.67-0.16,4.16s-0.05,2.9,0,4.21v3.23c0,1,0,2.07,0,3.1l0,6.77-0.09,3.67v0.88a4.78,4.78,0,0,0,.06,1.42,3,3,0,0,0,.46,1.15,2.05,2.05,0,0,0,.84.7,2.14,2.14,0,0,0,1.33.06,1.8,1.8,0,0,0,.8-0.32,1.85,1.85,0,0,0,.56-0.81,3.44,3.44,0,0,0,.2-1.15v-0.42l0.16-21,1.76,2.55c0.64,0.93,1.27,1.93,1.87,3s1.14,2,1.66,2.8l3.92,5.93,2.7,4.2a44.31,44.31,0,0,0,2.87,4,2.22,2.22,0,0,0,.71.64,3.89,3.89,0,0,0,1,.41,2.81,2.81,0,0,0,1,.05,1.48,1.48,0,0,0,.77-0.34,1.35,1.35,0,0,0,.58-0.88,12.78,12.78,0,0,0,.2-1.57h0a8,8,0,0,0,0-1.15c0-.45,0-0.9,0-1.36q0-5.85-.07-11.94t0-12a4.76,4.76,0,0,0-.12-1l0-.1a3.35,3.35,0,0,0-.22-0.83,0.88,0.88,0,0,0-.1-0.19l-0.16-.19a1.77,1.77,0,0,0-.75-0.33,2.57,2.57,0,0,0-1,0,2.49,2.49,0,0,0-.91.37,1.06,1.06,0,0,0-.43.52,3.74,3.74,0,0,0-.4,1.48c-0.06,1.33-.1,2.74-0.12,4.23s0,2.9,0,4.21c0,1.1.05,2.19,0.07,3.24s0,2.08,0,3.08v6.45L224.81,968a5.13,5.13,0,0,1-.38-0.55c-0.09-.15-0.18-0.31-0.27-0.49l-0.34-.45a3.28,3.28,0,0,0-.32-0.37l-0.07-.08a2.52,2.52,0,0,0-.29-0.3l-0.35-.3-0.35-.19-0.32-.15A2.77,2.77,0,0,0,221.61,965.09Z" transform="translate(300.2 -734.9)"/></svg>